{"glyphs":{"0":{"ha":679,"x_min":88,"x_max":592,"o":"m 340 -11 q 167 23 217 -11 q 102 151 117 57 q 88 478 88 246 q 102 804 88 710 q 167 933 117 899 q 340 967 217 967 q 517 933 467 967 q 579 808 567 899 q 592 478 592 717 q 578 151 592 244 q 514 23 564 57 q 340 -11 464 -11 m 340 36 q 480 60 442 36 q 530 168 518 83 q 542 478 542 253 q 530 788 542 703 q 480 896 518 872 q 340 919 442 919 q 199 896 238 919 q 149 788 161 872 q 138 478 138 703 q 149 168 138 253 q 199 60 161 83 q 340 36 238 36 z "},"1":{"ha":364,"x_min":51,"x_max":239,"o":"m 189 0 l 189 886 l 51 808 l 51 861 l 200 956 l 239 956 l 239 0 l 189 0 z "},"2":{"ha":601,"x_min":74,"x_max":528,"o":"m 122 47 l 528 47 l 528 0 l 74 0 l 74 99 q 79 265 74 218 q 108 344 85 313 q 189 410 131 375 q 392 531 319 489 q 462 603 444 561 q 479 726 479 644 q 464 848 479 807 q 411 904 449 889 q 299 919 374 919 q 88 904 210 919 l 88 949 q 188 962 126 957 q 307 967 250 967 q 428 952 382 967 q 501 888 474 938 q 528 739 528 838 q 517 616 528 661 q 480 542 506 571 q 404 483 454 513 l 181 351 q 133 296 143 328 q 124 242 126 274 q 122 139 122 210 l 122 47 z "},"3":{"ha":582,"x_min":49,"x_max":501,"o":"m 246 -11 q 147 -6 203 -11 q 49 8 90 0 l 49 53 q 246 36 168 36 q 360 52 317 36 q 428 113 404 68 q 451 246 451 158 q 417 411 451 361 q 301 461 382 461 l 169 461 l 169 508 l 301 508 q 402 553 361 508 q 443 713 443 599 q 422 844 443 800 q 356 904 400 889 q 236 919 313 919 q 146 915 197 919 q 53 903 94 910 l 53 947 q 149 961 94 956 q 246 967 204 967 q 395 942 342 967 q 471 863 449 917 q 493 715 493 808 q 463 561 493 614 q 371 492 432 508 l 371 486 q 467 419 433 472 q 501 256 501 367 q 481 106 501 163 q 406 19 461 50 q 246 -11 351 -11 z "},"4":{"ha":647,"x_min":53,"x_max":589,"o":"m 429 0 l 429 244 l 53 244 l 53 288 l 326 956 l 379 956 l 107 292 l 431 292 l 431 708 l 479 708 l 479 292 l 589 292 l 589 244 l 479 244 l 479 0 l 429 0 z "},"5":{"ha":606,"x_min":83,"x_max":536,"o":"m 83 53 q 281 36 203 36 q 410 58 367 36 q 470 131 454 81 q 486 274 486 181 q 469 422 486 375 q 406 484 451 468 q 260 500 360 500 q 92 479 200 500 l 92 956 l 485 956 l 485 908 l 142 908 l 142 532 q 300 547 200 547 q 453 519 403 547 q 520 438 504 492 q 536 283 536 383 q 515 106 536 168 q 440 17 494 44 q 281 -11 385 -11 q 181 -6 238 -11 q 83 8 125 0 l 83 53 z "},"6":{"ha":657,"x_min":88,"x_max":593,"o":"m 351 -11 q 230 1 276 -11 q 152 45 183 13 q 103 140 121 78 q 90 247 93 172 q 88 464 88 321 q 91 676 88 600 q 107 797 94 753 q 192 929 133 892 q 368 967 251 967 q 556 947 449 967 l 556 903 q 376 919 463 919 q 217 886 267 919 q 152 764 168 853 q 136 479 136 675 l 143 479 q 208 532 163 513 q 349 551 253 551 q 499 534 450 551 q 571 463 549 517 q 593 292 593 408 q 575 106 593 168 q 506 16 557 43 q 351 -11 456 -11 m 343 36 q 470 52 429 36 q 527 115 511 68 q 543 265 543 163 q 528 428 543 381 q 474 490 513 476 q 343 504 436 504 q 208 486 251 504 q 153 431 165 468 q 140 317 140 393 q 158 135 140 194 q 217 56 175 76 q 343 36 258 36 z "},"7":{"ha":551,"x_min":39,"x_max":501,"o":"m 146 0 l 447 908 l 39 908 l 39 956 l 501 956 l 501 915 l 199 0 l 146 0 z "},"8":{"ha":682,"x_min":81,"x_max":601,"o":"m 342 -11 q 176 17 232 -11 q 100 101 119 46 q 81 256 81 157 q 94 383 81 338 q 135 450 108 428 q 208 485 163 472 l 208 490 q 116 558 144 506 q 88 715 88 611 q 109 862 88 808 q 185 941 131 915 q 342 967 240 967 q 497 941 443 967 q 573 862 551 915 q 594 715 594 808 q 566 558 594 611 q 475 490 538 506 l 475 485 q 547 451 521 472 q 588 383 574 429 q 601 256 601 338 q 582 101 601 157 q 507 17 563 46 q 342 -11 451 -11 m 342 507 q 468 525 425 507 q 528 586 511 543 q 544 713 544 629 q 528 839 544 796 q 469 901 513 882 q 342 919 426 919 q 213 901 256 919 q 153 839 169 882 q 138 713 138 796 q 155 587 138 631 q 215 525 172 543 q 342 507 258 507 m 342 36 q 469 53 425 36 q 533 114 514 69 q 551 246 551 158 q 535 384 551 340 q 475 444 518 428 q 342 460 432 460 q 208 444 251 460 q 148 383 165 428 q 131 246 131 339 q 150 114 131 158 q 213 53 169 69 q 342 36 257 36 z "},"9":{"ha":657,"x_min":65,"x_max":569,"o":"m 289 -11 q 198 -6 250 -11 q 103 8 146 0 l 103 53 q 192 41 142 46 q 281 36 242 36 q 440 69 390 36 q 505 191 489 103 q 521 476 521 279 l 514 476 q 449 423 494 442 q 308 404 404 404 q 159 422 208 404 q 88 493 110 439 q 65 664 65 547 q 83 850 65 788 q 151 940 101 913 q 306 967 201 967 q 474 936 419 967 q 553 819 529 906 q 567 707 564 778 q 569 492 569 636 q 565 264 569 343 q 546 138 561 185 q 458 22 517 54 q 289 -11 400 -11 m 314 451 q 449 469 406 451 q 505 526 492 488 q 518 639 518 564 q 501 820 518 761 q 441 899 483 879 q 314 919 399 919 q 187 903 228 919 q 130 840 146 888 q 114 690 114 793 q 129 527 114 575 q 183 465 144 479 q 314 451 221 451 z "},"\u0000":{"ha":0,"x_min":0,"x_max":0,"o":""},"\r":{"ha":261,"x_min":0,"x_max":0,"o":""}," ":{"ha":261,"x_min":0,"x_max":0,"o":""},"A":{"ha":686,"x_min":38,"x_max":649,"o":"m 596 0 l 508 304 l 175 304 l 88 0 l 38 0 l 315 956 l 369 956 l 649 0 l 596 0 m 346 867 l 339 867 l 189 351 l 494 351 l 346 867 z "},"Á":{"ha":686,"x_min":38,"x_max":649,"o":"m 596 0 l 508 304 l 175 304 l 88 0 l 38 0 l 315 956 l 369 956 l 649 0 l 596 0 m 346 867 l 339 867 l 189 351 l 494 351 l 346 867 m 318 1042 l 318 1049 l 397 1233 l 456 1233 l 456 1226 l 351 1042 l 318 1042 z "},"Ă":{"ha":686,"x_min":38,"x_max":649,"o":"m 596 0 l 508 304 l 175 304 l 88 0 l 38 0 l 315 956 l 369 956 l 649 0 l 596 0 m 346 867 l 339 867 l 189 351 l 494 351 l 346 867 m 486 1233 q 479 1123 486 1161 q 441 1061 472 1085 q 342 1038 410 1038 q 243 1061 274 1038 q 206 1123 213 1085 q 199 1233 199 1161 l 243 1233 q 248 1140 243 1171 q 274 1093 253 1110 q 342 1076 294 1076 q 410 1093 389 1076 q 436 1140 431 1110 q 442 1233 442 1171 l 486 1233 z "},"Ắ":{"ha":686,"x_min":38,"x_max":649,"o":"m 596 0 l 508 304 l 175 304 l 88 0 l 38 0 l 315 956 l 369 956 l 649 0 l 596 0 m 346 867 l 339 867 l 189 351 l 494 351 l 346 867 m 485 1233 q 478 1123 485 1161 q 440 1061 471 1085 q 340 1038 408 1038 q 242 1061 272 1038 q 204 1123 211 1085 q 197 1233 197 1161 l 242 1233 q 247 1140 242 1171 q 272 1093 251 1110 q 340 1076 293 1076 q 408 1093 388 1076 q 435 1140 429 1110 q 440 1233 440 1171 l 485 1233 m 324 1282 l 324 1289 l 403 1474 l 461 1474 l 461 1467 l 357 1282 l 324 1282 z "},"Ặ":{"ha":686,"x_min":38,"x_max":649,"o":"m 596 0 l 508 304 l 175 304 l 88 0 l 38 0 l 315 956 l 369 956 l 649 0 l 596 0 m 346 867 l 339 867 l 189 351 l 494 351 l 346 867 m 311 -176 l 311 -86 l 375 -86 l 375 -176 l 311 -176 m 486 1233 q 479 1123 486 1161 q 441 1061 472 1085 q 342 1038 410 1038 q 243 1061 274 1038 q 206 1123 213 1085 q 199 1233 199 1161 l 243 1233 q 248 1140 243 1171 q 274 1093 253 1110 q 342 1076 294 1076 q 410 1093 389 1076 q 436 1140 431 1110 q 442 1233 442 1171 l 486 1233 z "},"Ằ":{"ha":686,"x_min":38,"x_max":649,"o":"m 596 0 l 508 304 l 175 304 l 88 0 l 38 0 l 315 956 l 369 956 l 649 0 l 596 0 m 346 867 l 339 867 l 189 351 l 494 351 l 346 867 m 486 1233 q 479 1123 486 1161 q 441 1061 472 1085 q 342 1038 410 1038 q 243 1061 274 1038 q 206 1123 213 1085 q 199 1233 199 1161 l 243 1233 q 248 1140 243 1171 q 274 1093 253 1110 q 342 1076 294 1076 q 410 1093 389 1076 q 436 1140 431 1110 q 442 1233 442 1171 l 486 1233 m 335 1282 l 231 1467 l 231 1474 l 289 1474 l 368 1289 l 368 1282 l 335 1282 z "},"Ẳ":{"ha":686,"x_min":38,"x_max":649,"o":"m 596 0 l 508 304 l 175 304 l 88 0 l 38 0 l 315 956 l 369 956 l 649 0 l 596 0 m 346 867 l 339 867 l 189 351 l 494 351 l 346 867 m 486 1233 q 479 1123 486 1161 q 441 1061 472 1085 q 342 1038 410 1038 q 243 1061 274 1038 q 206 1123 213 1085 q 199 1233 199 1161 l 243 1233 q 248 1140 243 1171 q 274 1093 253 1110 q 342 1076 294 1076 q 410 1093 389 1076 q 436 1140 431 1110 q 442 1233 442 1171 l 486 1233 m 294 1246 q 306 1287 294 1275 q 346 1307 317 1299 l 368 1313 q 419 1335 407 1324 q 432 1375 432 1346 q 424 1411 432 1400 q 396 1426 417 1422 q 329 1431 375 1431 q 215 1425 304 1431 l 215 1461 q 338 1469 296 1469 q 447 1451 418 1469 q 475 1382 475 1432 q 465 1322 475 1342 q 413 1289 454 1303 l 390 1283 q 351 1269 363 1275 q 336 1256 339 1264 q 333 1233 333 1249 l 294 1233 l 294 1246 z "},"Ẵ":{"ha":686,"x_min":38,"x_max":649,"o":"m 596 0 l 508 304 l 175 304 l 88 0 l 38 0 l 315 956 l 369 956 l 649 0 l 596 0 m 346 867 l 339 867 l 189 351 l 494 351 l 346 867 m 483 1233 q 476 1123 483 1161 q 438 1061 469 1085 q 339 1038 407 1038 q 240 1061 271 1038 q 203 1123 210 1085 q 196 1233 196 1161 l 240 1233 q 245 1140 240 1171 q 271 1093 250 1110 q 339 1076 292 1076 q 407 1093 386 1076 q 433 1140 428 1110 q 439 1233 439 1171 l 483 1233 m 526 1474 q 511 1370 526 1399 q 453 1342 496 1342 q 401 1351 426 1342 q 333 1379 375 1360 q 274 1405 294 1397 q 231 1413 253 1413 q 202 1394 208 1413 q 196 1326 196 1376 l 158 1326 q 173 1430 158 1401 q 231 1458 188 1458 q 285 1449 258 1458 q 354 1419 311 1439 q 408 1396 385 1404 q 453 1388 431 1388 q 482 1406 475 1388 q 489 1474 489 1425 l 526 1474 z "},"Ǎ":{"ha":686,"x_min":38,"x_max":649,"o":"m 596 0 l 508 304 l 175 304 l 88 0 l 38 0 l 315 956 l 369 956 l 649 0 l 596 0 m 346 867 l 339 867 l 189 351 l 494 351 l 346 867 m 311 1042 l 200 1226 l 200 1233 l 238 1233 l 343 1083 l 449 1233 l 486 1233 l 486 1226 l 375 1042 l 311 1042 z "},"Â":{"ha":686,"x_min":38,"x_max":649,"o":"m 596 0 l 508 304 l 175 304 l 88 0 l 38 0 l 315 956 l 369 956 l 649 0 l 596 0 m 346 867 l 339 867 l 189 351 l 494 351 l 346 867 m 200 1042 l 200 1049 l 311 1233 l 375 1233 l 486 1049 l 486 1042 l 449 1042 l 343 1192 l 238 1042 l 200 1042 z "},"Ấ":{"ha":686,"x_min":38,"x_max":649,"o":"m 596 0 l 508 304 l 175 304 l 88 0 l 38 0 l 315 956 l 369 956 l 649 0 l 596 0 m 346 867 l 339 867 l 189 351 l 494 351 l 346 867 m 197 1035 l 197 1042 l 308 1226 l 372 1226 l 483 1042 l 483 1035 l 446 1035 l 340 1185 l 235 1035 l 197 1035 m 432 1226 l 432 1233 l 511 1418 l 569 1418 l 569 1411 l 465 1226 l 432 1226 z "},"Ậ":{"ha":686,"x_min":38,"x_max":649,"o":"m 596 0 l 508 304 l 175 304 l 88 0 l 38 0 l 315 956 l 369 956 l 649 0 l 596 0 m 346 867 l 339 867 l 189 351 l 494 351 l 346 867 m 311 -176 l 311 -86 l 375 -86 l 375 -176 l 311 -176 m 200 1042 l 200 1049 l 311 1233 l 375 1233 l 486 1049 l 486 1042 l 449 1042 l 343 1192 l 238 1042 l 200 1042 z "},"Ầ":{"ha":686,"x_min":38,"x_max":649,"o":"m 596 0 l 508 304 l 175 304 l 88 0 l 38 0 l 315 956 l 369 956 l 649 0 l 596 0 m 346 867 l 339 867 l 189 351 l 494 351 l 346 867 m 197 1035 l 197 1042 l 308 1226 l 372 1226 l 483 1042 l 483 1035 l 446 1035 l 340 1185 l 235 1035 l 197 1035 m 449 1226 l 344 1411 l 344 1418 l 403 1418 l 482 1233 l 482 1226 l 449 1226 z "},"Ẩ":{"ha":686,"x_min":38,"x_max":649,"o":"m 596 0 l 508 304 l 175 304 l 88 0 l 38 0 l 315 956 l 369 956 l 649 0 l 596 0 m 346 867 l 339 867 l 189 351 l 494 351 l 346 867 m 200 1035 l 200 1042 l 311 1226 l 375 1226 l 486 1042 l 486 1035 l 449 1035 l 343 1185 l 238 1035 l 200 1035 m 400 1238 q 411 1278 400 1267 q 451 1299 422 1290 l 474 1304 q 525 1326 513 1315 q 538 1367 538 1338 q 530 1403 538 1392 q 501 1418 522 1414 q 435 1422 481 1422 q 321 1417 410 1422 l 321 1453 q 443 1461 401 1461 q 552 1442 524 1461 q 581 1374 581 1424 q 570 1314 581 1333 q 518 1281 560 1294 l 496 1275 q 456 1261 468 1267 q 442 1248 444 1256 q 439 1225 439 1240 l 400 1225 l 400 1238 z "},"Ẫ":{"ha":686,"x_min":38,"x_max":649,"o":"m 596 0 l 508 304 l 175 304 l 88 0 l 38 0 l 315 956 l 369 956 l 649 0 l 596 0 m 346 867 l 339 867 l 189 351 l 494 351 l 346 867 m 197 1035 l 197 1042 l 308 1226 l 372 1226 l 483 1042 l 483 1035 l 446 1035 l 340 1185 l 235 1035 l 197 1035 m 526 1467 q 511 1363 526 1392 q 453 1335 496 1335 q 401 1344 426 1335 q 333 1372 375 1353 q 274 1398 294 1390 q 231 1406 253 1406 q 202 1388 208 1406 q 196 1319 196 1369 l 158 1319 q 173 1423 158 1394 q 231 1451 188 1451 q 285 1442 258 1451 q 354 1413 311 1432 q 408 1389 385 1397 q 453 1381 431 1381 q 482 1399 475 1381 q 489 1467 489 1418 l 526 1467 z "},"Ȁ":{"ha":686,"x_min":38,"x_max":649,"o":"m 596 0 l 508 304 l 175 304 l 88 0 l 38 0 l 315 956 l 369 956 l 649 0 l 596 0 m 346 867 l 339 867 l 189 351 l 494 351 l 346 867 m 274 1047 l 240 1047 l 139 1214 l 139 1221 l 196 1221 l 274 1054 l 274 1047 m 456 1047 l 422 1047 l 319 1214 l 319 1221 l 378 1221 l 456 1054 l 456 1047 z "},"Ä":{"ha":686,"x_min":38,"x_max":649,"o":"m 596 0 l 508 304 l 175 304 l 88 0 l 38 0 l 315 956 l 369 956 l 649 0 l 596 0 m 346 867 l 339 867 l 189 351 l 494 351 l 346 867 m 193 1069 l 193 1154 l 251 1154 l 251 1069 l 193 1069 m 433 1069 l 433 1154 l 492 1154 l 492 1069 l 433 1069 z "},"Ạ":{"ha":686,"x_min":38,"x_max":649,"o":"m 596 0 l 508 304 l 175 304 l 88 0 l 38 0 l 315 956 l 369 956 l 649 0 l 596 0 m 346 867 l 339 867 l 189 351 l 494 351 l 346 867 m 311 -176 l 311 -86 l 375 -86 l 375 -176 l 311 -176 z "},"À":{"ha":686,"x_min":38,"x_max":649,"o":"m 596 0 l 508 304 l 175 304 l 88 0 l 38 0 l 315 956 l 369 956 l 649 0 l 596 0 m 346 867 l 339 867 l 189 351 l 494 351 l 346 867 m 335 1042 l 231 1226 l 231 1233 l 289 1233 l 368 1049 l 368 1042 l 335 1042 z "},"Ả":{"ha":686,"x_min":38,"x_max":649,"o":"m 596 0 l 508 304 l 175 304 l 88 0 l 38 0 l 315 956 l 369 956 l 649 0 l 596 0 m 346 867 l 339 867 l 189 351 l 494 351 l 346 867 m 292 1038 q 303 1078 292 1067 q 343 1097 314 1089 l 365 1104 q 417 1126 404 1115 q 429 1167 429 1138 q 422 1203 429 1192 q 393 1218 414 1214 q 326 1222 372 1222 q 213 1215 286 1222 l 213 1251 q 335 1260 272 1260 q 444 1241 415 1260 q 472 1174 472 1222 q 462 1113 472 1132 q 410 1081 451 1093 l 388 1074 q 347 1060 358 1065 q 333 1047 336 1054 q 331 1025 331 1040 l 292 1025 l 292 1038 z "},"Ȃ":{"ha":686,"x_min":38,"x_max":649,"o":"m 596 0 l 508 304 l 175 304 l 88 0 l 38 0 l 315 956 l 369 956 l 649 0 l 596 0 m 346 867 l 339 867 l 189 351 l 494 351 l 346 867 m 197 1046 q 204 1156 197 1118 q 242 1218 211 1194 q 342 1242 274 1242 q 440 1218 410 1242 q 478 1156 471 1194 q 485 1046 485 1118 l 440 1046 q 435 1139 440 1108 q 410 1186 431 1169 q 342 1203 389 1203 q 274 1186 294 1203 q 247 1139 253 1169 q 242 1046 242 1108 l 197 1046 z "},"Ā":{"ha":686,"x_min":38,"x_max":649,"o":"m 596 0 l 508 304 l 175 304 l 88 0 l 38 0 l 315 956 l 369 956 l 649 0 l 596 0 m 346 867 l 339 867 l 189 351 l 494 351 l 346 867 m 215 1183 l 215 1233 l 471 1233 l 471 1183 l 215 1183 z "},"Ą":{"ha":686,"x_min":38,"x_max":649,"o":"m 558 -164 q 624 -228 558 -228 l 647 -226 l 647 -271 q 617 -272 635 -272 q 537 -245 563 -272 q 511 -172 511 -218 q 535 -83 511 -131 q 594 3 558 -35 l 508 304 l 175 304 l 88 0 l 38 0 l 315 956 l 369 956 l 649 0 l 640 0 q 584 -78 610 -29 q 558 -164 558 -126 m 189 351 l 494 351 l 346 867 l 339 867 l 189 351 z "},"Å":{"ha":686,"x_min":38,"x_max":649,"o":"m 649 0 l 596 0 l 508 304 l 175 304 l 88 0 l 38 0 l 310 942 q 248 958 268 944 q 222 994 228 971 q 217 1064 217 1018 q 224 1140 217 1115 q 258 1175 232 1164 q 342 1186 285 1186 q 426 1175 400 1186 q 461 1139 453 1164 q 469 1064 469 1114 q 463 994 469 1018 q 437 958 457 971 q 375 943 417 944 l 649 0 m 263 1064 q 267 1011 263 1028 q 288 988 271 994 q 342 981 304 981 q 397 988 381 981 q 419 1011 414 994 q 424 1064 424 1028 q 419 1117 424 1100 q 397 1140 414 1133 q 342 1147 381 1147 q 288 1140 304 1147 q 267 1117 271 1133 q 263 1064 263 1100 m 189 351 l 494 351 l 346 867 l 339 867 l 189 351 z "},"Ǻ":{"ha":686,"x_min":38,"x_max":649,"o":"m 649 0 l 596 0 l 508 304 l 175 304 l 88 0 l 38 0 l 310 942 q 248 958 268 944 q 222 994 228 971 q 217 1064 217 1018 q 224 1140 217 1115 q 258 1175 232 1164 q 342 1186 285 1186 q 426 1175 400 1186 q 461 1139 453 1164 q 469 1064 469 1114 q 463 994 469 1018 q 437 958 457 971 q 375 943 417 944 l 649 0 m 263 1064 q 267 1011 263 1028 q 288 988 271 994 q 342 981 304 981 q 397 988 381 981 q 419 1011 414 994 q 424 1064 424 1028 q 419 1117 424 1100 q 397 1140 414 1133 q 342 1147 381 1147 q 288 1140 304 1147 q 267 1117 271 1133 q 263 1064 263 1100 m 189 351 l 494 351 l 346 867 l 339 867 l 189 351 m 319 1272 l 319 1279 l 399 1464 l 457 1464 l 457 1457 l 353 1272 l 319 1272 z "},"Ã":{"ha":686,"x_min":38,"x_max":649,"o":"m 596 0 l 508 304 l 175 304 l 88 0 l 38 0 l 315 956 l 369 956 l 649 0 l 596 0 m 346 867 l 339 867 l 189 351 l 494 351 l 346 867 m 528 1189 q 513 1085 528 1114 q 454 1057 497 1057 q 402 1066 428 1057 q 335 1094 376 1075 q 275 1120 296 1113 q 232 1128 254 1128 q 203 1110 210 1128 q 197 1042 197 1092 l 160 1042 q 174 1145 160 1117 q 232 1174 189 1174 q 286 1164 260 1174 q 356 1135 313 1154 q 409 1111 386 1119 q 454 1103 432 1103 q 483 1122 476 1103 q 490 1189 490 1140 l 528 1189 z "},"Æ":{"ha":940,"x_min":0,"x_max":886,"o":"m 560 0 l 497 304 l 165 304 l 51 0 l 0 0 l 363 956 l 886 956 l 886 908 l 426 908 l 508 507 l 839 507 l 839 460 l 517 460 l 601 47 l 886 47 l 886 0 l 560 0 m 385 867 l 378 867 l 182 351 l 488 351 l 385 867 z "},"Ǽ":{"ha":940,"x_min":0,"x_max":886,"o":"m 560 0 l 497 304 l 165 304 l 51 0 l 0 0 l 363 956 l 886 956 l 886 908 l 426 908 l 508 507 l 839 507 l 839 460 l 517 460 l 601 47 l 886 47 l 886 0 l 560 0 m 385 867 l 378 867 l 182 351 l 488 351 l 385 867 m 446 1042 l 446 1049 l 525 1233 l 583 1233 l 583 1226 l 479 1042 l 446 1042 z "},"B":{"ha":689,"x_min":113,"x_max":608,"o":"m 113 956 l 389 956 q 553 894 507 956 q 600 717 600 832 q 566 565 600 622 q 457 492 532 508 l 457 486 q 578 407 547 469 q 608 250 608 344 q 562 69 608 138 q 379 0 515 0 l 113 0 l 113 956 m 381 508 q 506 560 461 508 q 550 708 550 611 q 514 862 550 815 q 381 908 478 908 l 163 908 l 163 508 l 381 508 m 383 47 q 519 97 481 47 q 558 254 558 146 q 517 412 558 363 q 383 461 476 461 l 163 461 l 163 47 l 383 47 z "},"C":{"ha":560,"x_min":88,"x_max":507,"o":"m 507 3 q 358 -11 442 -11 q 181 22 236 -11 q 107 154 126 56 q 88 478 88 253 q 107 799 88 700 q 181 933 126 899 q 358 967 236 967 q 436 962 394 967 q 504 950 478 957 l 504 906 q 369 919 439 919 q 213 891 258 919 q 152 776 167 863 q 138 478 138 689 q 152 180 138 267 q 213 65 167 93 q 369 36 258 36 q 442 40 403 36 q 507 50 481 44 l 507 3 z "},"Ć":{"ha":560,"x_min":88,"x_max":507,"o":"m 507 3 q 358 -11 442 -11 q 181 22 236 -11 q 107 154 126 56 q 88 478 88 253 q 107 799 88 700 q 181 933 126 899 q 358 967 236 967 q 436 962 394 967 q 504 950 478 957 l 504 906 q 369 919 439 919 q 213 891 258 919 q 152 776 167 863 q 138 478 138 689 q 152 180 138 267 q 213 65 167 93 q 369 36 258 36 q 442 40 403 36 q 507 50 481 44 l 507 3 m 258 1042 l 258 1049 l 338 1233 l 396 1233 l 396 1226 l 292 1042 l 258 1042 z "},"Č":{"ha":560,"x_min":88,"x_max":507,"o":"m 507 3 q 358 -11 442 -11 q 181 22 236 -11 q 107 154 126 56 q 88 478 88 253 q 107 799 88 700 q 181 933 126 899 q 358 967 236 967 q 436 962 394 967 q 504 950 478 957 l 504 906 q 369 919 439 919 q 213 891 258 919 q 152 776 167 863 q 138 478 138 689 q 152 180 138 267 q 213 65 167 93 q 369 36 258 36 q 442 40 403 36 q 507 50 481 44 l 507 3 m 249 1042 l 138 1226 l 138 1233 l 175 1233 l 281 1083 l 386 1233 l 424 1233 l 424 1226 l 313 1042 l 249 1042 z "},"Ç":{"ha":560,"x_min":88,"x_max":507,"o":"m 369 36 q 442 40 403 36 q 507 50 481 44 l 507 3 q 358 -11 442 -11 q 297 -10 315 -11 l 239 -264 l 183 -264 l 183 -257 l 258 -6 q 150 51 186 7 q 101 192 114 96 q 88 478 88 289 q 107 799 88 700 q 181 933 126 899 q 358 967 236 967 q 436 962 394 967 q 504 950 478 957 l 504 906 q 369 919 439 919 q 213 891 258 919 q 152 776 167 863 q 138 478 138 689 q 152 180 138 267 q 213 65 167 93 q 369 36 258 36 z "},"Ĉ":{"ha":560,"x_min":88,"x_max":507,"o":"m 507 3 q 358 -11 442 -11 q 181 22 236 -11 q 107 154 126 56 q 88 478 88 253 q 107 799 88 700 q 181 933 126 899 q 358 967 236 967 q 436 962 394 967 q 504 950 478 957 l 504 906 q 369 919 439 919 q 213 891 258 919 q 152 776 167 863 q 138 478 138 689 q 152 180 138 267 q 213 65 167 93 q 369 36 258 36 q 442 40 403 36 q 507 50 481 44 l 507 3 m 138 1042 l 138 1049 l 249 1233 l 313 1233 l 424 1049 l 424 1042 l 386 1042 l 281 1192 l 175 1042 l 138 1042 z "},"Ċ":{"ha":560,"x_min":88,"x_max":507,"o":"m 507 3 q 358 -11 442 -11 q 181 22 236 -11 q 107 154 126 56 q 88 478 88 253 q 107 799 88 700 q 181 933 126 899 q 358 967 236 967 q 436 962 394 967 q 504 950 478 957 l 504 906 q 369 919 439 919 q 213 891 258 919 q 152 776 167 863 q 138 478 138 689 q 152 180 138 267 q 213 65 167 93 q 369 36 258 36 q 442 40 403 36 q 507 50 481 44 l 507 3 m 251 1131 l 251 1215 l 308 1215 l 308 1131 l 251 1131 z "},"D":{"ha":696,"x_min":113,"x_max":608,"o":"m 113 956 l 326 956 q 517 922 460 956 q 591 795 574 889 q 608 478 608 701 q 591 160 608 254 q 517 33 574 67 q 326 0 460 0 l 113 0 l 113 956 m 317 47 q 482 70 436 47 q 543 177 528 93 q 558 478 558 261 q 542 778 558 694 q 481 885 526 863 q 317 908 436 908 l 163 908 l 163 47 l 317 47 z "},"Ǳ":{"ha":1279,"x_min":113,"x_max":1236,"o":"m 113 956 l 326 956 q 517 922 460 956 q 591 795 574 889 q 608 478 608 701 q 591 160 608 254 q 517 33 574 67 q 326 0 460 0 l 113 0 l 113 956 m 317 47 q 482 70 436 47 q 543 177 528 93 q 558 478 558 261 q 542 778 558 694 q 481 885 526 863 q 317 908 436 908 l 163 908 l 163 47 l 317 47 m 742 0 l 742 44 l 1171 908 l 753 908 l 753 956 l 1228 956 l 1228 911 l 800 47 l 1236 47 l 1236 0 l 742 0 z "},"Ǆ":{"ha":1279,"x_min":113,"x_max":1236,"o":"m 113 956 l 326 956 q 517 922 460 956 q 591 795 574 889 q 608 478 608 701 q 591 160 608 254 q 517 33 574 67 q 326 0 460 0 l 113 0 l 113 956 m 317 47 q 482 70 436 47 q 543 177 528 93 q 558 478 558 261 q 542 778 558 694 q 481 885 526 863 q 317 908 436 908 l 163 908 l 163 47 l 317 47 m 742 0 l 742 44 l 1171 908 l 753 908 l 753 956 l 1228 956 l 1228 911 l 800 47 l 1236 47 l 1236 0 l 742 0 m 957 1042 l 846 1226 l 846 1233 l 883 1233 l 989 1083 l 1094 1233 l 1132 1233 l 1132 1226 l 1021 1042 l 957 1042 z "},"Ð":{"ha":696,"x_min":31,"x_max":608,"o":"m 113 460 l 31 460 l 31 510 l 113 510 l 113 956 l 326 956 q 517 922 460 956 q 591 795 574 889 q 608 478 608 701 q 591 160 608 254 q 517 33 574 67 q 326 0 460 0 l 113 0 l 113 460 m 317 47 q 482 70 436 47 q 543 177 528 93 q 558 478 558 261 q 542 778 558 694 q 481 885 526 863 q 317 908 436 908 l 163 908 l 163 510 l 329 510 l 329 460 l 163 460 l 163 47 l 317 47 z "},"Ď":{"ha":696,"x_min":113,"x_max":608,"o":"m 113 956 l 326 956 q 517 922 460 956 q 591 795 574 889 q 608 478 608 701 q 591 160 608 254 q 517 33 574 67 q 326 0 460 0 l 113 0 l 113 956 m 317 47 q 482 70 436 47 q 543 177 528 93 q 558 478 558 261 q 542 778 558 694 q 481 885 526 863 q 317 908 436 908 l 163 908 l 163 47 l 317 47 m 317 1042 l 206 1226 l 206 1233 l 243 1233 l 349 1083 l 454 1233 l 492 1233 l 492 1226 l 381 1042 l 317 1042 z "},"Đ":{"ha":696,"x_min":31,"x_max":608,"o":"m 113 460 l 31 460 l 31 510 l 113 510 l 113 956 l 326 956 q 517 922 460 956 q 591 795 574 889 q 608 478 608 701 q 591 160 608 254 q 517 33 574 67 q 326 0 460 0 l 113 0 l 113 460 m 317 47 q 482 70 436 47 q 543 177 528 93 q 558 478 558 261 q 542 778 558 694 q 481 885 526 863 q 317 908 436 908 l 163 908 l 163 510 l 329 510 l 329 460 l 163 460 l 163 47 l 317 47 z "},"Ḍ":{"ha":696,"x_min":113,"x_max":608,"o":"m 113 956 l 326 956 q 517 922 460 956 q 591 795 574 889 q 608 478 608 701 q 591 160 608 254 q 517 33 574 67 q 326 0 460 0 l 113 0 l 113 956 m 317 47 q 482 70 436 47 q 543 177 528 93 q 558 478 558 261 q 542 778 558 694 q 481 885 526 863 q 317 908 436 908 l 163 908 l 163 47 l 317 47 m 317 -176 l 317 -86 l 381 -86 l 381 -176 l 317 -176 z "},"ǲ":{"ha":1200,"x_min":113,"x_max":1150,"o":"m 113 956 l 326 956 q 517 922 460 956 q 591 795 574 889 q 608 478 608 701 q 591 160 608 254 q 517 33 574 67 q 326 0 460 0 l 113 0 l 113 956 m 317 47 q 482 70 436 47 q 543 177 528 93 q 558 478 558 261 q 542 778 558 694 q 481 885 526 863 q 317 908 436 908 l 163 908 l 163 47 l 317 47 m 746 0 l 746 39 l 1090 664 l 757 664 l 757 708 l 1149 708 l 1149 669 l 804 44 l 1150 44 l 1150 0 l 746 0 z "},"ǅ":{"ha":1200,"x_min":113,"x_max":1150,"o":"m 113 956 l 326 956 q 517 922 460 956 q 591 795 574 889 q 608 478 608 701 q 591 160 608 254 q 517 33 574 67 q 326 0 460 0 l 113 0 l 113 956 m 317 47 q 482 70 436 47 q 543 177 528 93 q 558 478 558 261 q 542 778 558 694 q 481 885 526 863 q 317 908 436 908 l 163 908 l 163 47 l 317 47 m 746 0 l 746 39 l 1090 664 l 757 664 l 757 708 l 1149 708 l 1149 669 l 804 44 l 1150 44 l 1150 0 l 746 0 m 929 840 l 818 1025 l 818 1032 l 856 1032 l 961 882 l 1067 1032 l 1104 1032 l 1104 1025 l 993 840 l 929 840 z "},"E":{"ha":600,"x_min":113,"x_max":546,"o":"m 113 0 l 113 956 l 546 956 l 546 908 l 164 908 l 164 507 l 499 507 l 499 460 l 164 460 l 164 47 l 546 47 l 546 0 l 113 0 z "},"É":{"ha":600,"x_min":113,"x_max":546,"o":"m 113 0 l 113 956 l 546 956 l 546 908 l 164 908 l 164 507 l 499 507 l 499 460 l 164 460 l 164 47 l 546 47 l 546 0 l 113 0 m 311 1042 l 311 1049 l 390 1233 l 449 1233 l 449 1226 l 344 1042 l 311 1042 z "},"Ĕ":{"ha":600,"x_min":113,"x_max":546,"o":"m 113 0 l 113 956 l 546 956 l 546 908 l 164 908 l 164 507 l 499 507 l 499 460 l 164 460 l 164 47 l 546 47 l 546 0 l 113 0 m 472 1233 q 465 1123 472 1161 q 427 1061 458 1085 q 328 1038 396 1038 q 229 1061 260 1038 q 192 1123 199 1085 q 185 1233 185 1161 l 229 1233 q 234 1140 229 1171 q 260 1093 239 1110 q 328 1076 281 1076 q 396 1093 375 1076 q 422 1140 417 1110 q 428 1233 428 1171 l 472 1233 z "},"Ě":{"ha":600,"x_min":113,"x_max":546,"o":"m 113 0 l 113 956 l 546 956 l 546 908 l 164 908 l 164 507 l 499 507 l 499 460 l 164 460 l 164 47 l 546 47 l 546 0 l 113 0 m 297 1042 l 186 1226 l 186 1233 l 224 1233 l 329 1083 l 435 1233 l 472 1233 l 472 1226 l 361 1042 l 297 1042 z "},"Ê":{"ha":600,"x_min":113,"x_max":546,"o":"m 113 0 l 113 956 l 546 956 l 546 908 l 164 908 l 164 507 l 499 507 l 499 460 l 164 460 l 164 47 l 546 47 l 546 0 l 113 0 m 190 1042 l 190 1049 l 301 1233 l 365 1233 l 476 1049 l 476 1042 l 439 1042 l 333 1192 l 228 1042 l 190 1042 z "},"Ế":{"ha":600,"x_min":113,"x_max":556,"o":"m 113 0 l 113 956 l 546 956 l 546 908 l 164 908 l 164 507 l 499 507 l 499 460 l 164 460 l 164 47 l 546 47 l 546 0 l 113 0 m 183 1035 l 183 1042 l 294 1226 l 358 1226 l 469 1042 l 469 1035 l 432 1035 l 326 1185 l 221 1035 l 183 1035 m 418 1226 l 418 1233 l 497 1418 l 556 1418 l 556 1411 l 451 1226 l 418 1226 z "},"Ệ":{"ha":600,"x_min":113,"x_max":546,"o":"m 113 0 l 113 956 l 546 956 l 546 908 l 164 908 l 164 507 l 499 507 l 499 460 l 164 460 l 164 47 l 546 47 l 546 0 l 113 0 m 297 -176 l 297 -86 l 361 -86 l 361 -176 l 297 -176 m 186 1042 l 186 1049 l 297 1233 l 361 1233 l 472 1049 l 472 1042 l 435 1042 l 329 1192 l 224 1042 l 186 1042 z "},"Ề":{"ha":600,"x_min":113,"x_max":546,"o":"m 113 0 l 113 956 l 546 956 l 546 908 l 164 908 l 164 507 l 499 507 l 499 460 l 164 460 l 164 47 l 546 47 l 546 0 l 113 0 m 183 1035 l 183 1042 l 294 1226 l 358 1226 l 469 1042 l 469 1035 l 432 1035 l 326 1185 l 221 1035 l 183 1035 m 435 1226 l 331 1411 l 331 1418 l 389 1418 l 468 1233 l 468 1226 l 435 1226 z "},"Ể":{"ha":600,"x_min":113,"x_max":567,"o":"m 113 0 l 113 956 l 546 956 l 546 908 l 164 908 l 164 507 l 499 507 l 499 460 l 164 460 l 164 47 l 546 47 l 546 0 l 113 0 m 186 1035 l 186 1042 l 297 1226 l 361 1226 l 472 1042 l 472 1035 l 435 1035 l 329 1185 l 224 1035 l 186 1035 m 386 1238 q 397 1278 386 1267 q 438 1299 408 1290 l 460 1304 q 511 1326 499 1315 q 524 1367 524 1338 q 516 1403 524 1392 q 488 1418 508 1414 q 421 1422 467 1422 q 307 1417 396 1422 l 307 1453 q 429 1461 388 1461 q 538 1442 510 1461 q 567 1374 567 1424 q 556 1314 567 1333 q 504 1281 546 1294 l 482 1275 q 442 1261 454 1267 q 428 1248 431 1256 q 425 1225 425 1240 l 386 1225 l 386 1238 z "},"Ễ":{"ha":600,"x_min":113,"x_max":546,"o":"m 113 0 l 113 956 l 546 956 l 546 908 l 164 908 l 164 507 l 499 507 l 499 460 l 164 460 l 164 47 l 546 47 l 546 0 l 113 0 m 183 1035 l 183 1042 l 294 1226 l 358 1226 l 469 1042 l 469 1035 l 432 1035 l 326 1185 l 221 1035 l 183 1035 m 513 1467 q 497 1363 513 1392 q 439 1335 482 1335 q 387 1344 413 1335 q 319 1372 361 1353 q 260 1398 281 1390 q 217 1406 239 1406 q 188 1388 194 1406 q 182 1319 182 1369 l 144 1319 q 159 1423 144 1394 q 217 1451 174 1451 q 271 1442 244 1451 q 340 1413 297 1432 q 394 1389 371 1397 q 439 1381 417 1381 q 468 1399 461 1381 q 475 1467 475 1418 l 513 1467 z "},"Ȅ":{"ha":600,"x_min":113,"x_max":546,"o":"m 113 0 l 113 956 l 546 956 l 546 908 l 164 908 l 164 507 l 499 507 l 499 460 l 164 460 l 164 47 l 546 47 l 546 0 l 113 0 m 260 1047 l 226 1047 l 125 1214 l 125 1221 l 182 1221 l 260 1054 l 260 1047 m 442 1047 l 408 1047 l 306 1214 l 306 1221 l 364 1221 l 442 1054 l 442 1047 z "},"Ë":{"ha":600,"x_min":113,"x_max":546,"o":"m 113 0 l 113 956 l 546 956 l 546 908 l 164 908 l 164 507 l 499 507 l 499 460 l 164 460 l 164 47 l 546 47 l 546 0 l 113 0 m 185 1069 l 185 1154 l 243 1154 l 243 1069 l 185 1069 m 425 1069 l 425 1154 l 483 1154 l 483 1069 l 425 1069 z "},"Ė":{"ha":600,"x_min":113,"x_max":546,"o":"m 113 0 l 113 956 l 546 956 l 546 908 l 164 908 l 164 507 l 499 507 l 499 460 l 164 460 l 164 47 l 546 47 l 546 0 l 113 0 m 300 1131 l 300 1215 l 357 1215 l 357 1131 l 300 1131 z "},"Ẹ":{"ha":600,"x_min":113,"x_max":546,"o":"m 113 0 l 113 956 l 546 956 l 546 908 l 164 908 l 164 507 l 499 507 l 499 460 l 164 460 l 164 47 l 546 47 l 546 0 l 113 0 m 297 -176 l 297 -86 l 361 -86 l 361 -176 l 297 -176 z "},"È":{"ha":600,"x_min":113,"x_max":546,"o":"m 113 0 l 113 956 l 546 956 l 546 908 l 164 908 l 164 507 l 499 507 l 499 460 l 164 460 l 164 47 l 546 47 l 546 0 l 113 0 m 331 1042 l 226 1226 l 226 1233 l 285 1233 l 364 1049 l 364 1042 l 331 1042 z "},"Ẻ":{"ha":600,"x_min":113,"x_max":546,"o":"m 113 0 l 113 956 l 546 956 l 546 908 l 164 908 l 164 507 l 499 507 l 499 460 l 164 460 l 164 47 l 546 47 l 546 0 l 113 0 m 278 1038 q 289 1078 278 1067 q 329 1097 300 1089 l 351 1104 q 403 1126 390 1115 q 415 1167 415 1138 q 408 1203 415 1192 q 379 1218 400 1214 q 313 1222 358 1222 q 199 1215 272 1222 l 199 1251 q 321 1260 258 1260 q 430 1241 401 1260 q 458 1174 458 1222 q 448 1113 458 1132 q 396 1081 438 1093 l 374 1074 q 333 1060 344 1065 q 319 1047 322 1054 q 317 1025 317 1040 l 278 1025 l 278 1038 z "},"Ȇ":{"ha":600,"x_min":113,"x_max":546,"o":"m 113 0 l 113 956 l 546 956 l 546 908 l 164 908 l 164 507 l 499 507 l 499 460 l 164 460 l 164 47 l 546 47 l 546 0 l 113 0 m 183 1046 q 190 1156 183 1118 q 228 1218 197 1194 q 328 1242 260 1242 q 426 1218 396 1242 q 464 1156 457 1194 q 471 1046 471 1118 l 426 1046 q 422 1139 426 1108 q 396 1186 417 1169 q 328 1203 375 1203 q 260 1186 281 1203 q 233 1139 239 1169 q 228 1046 228 1108 l 183 1046 z "},"Ē":{"ha":600,"x_min":113,"x_max":546,"o":"m 113 0 l 113 956 l 546 956 l 546 908 l 164 908 l 164 507 l 499 507 l 499 460 l 164 460 l 164 47 l 546 47 l 546 0 l 113 0 m 201 1183 l 201 1233 l 457 1233 l 457 1183 l 201 1183 z "},"Ę":{"ha":600,"x_min":113,"x_max":546,"o":"m 510 -272 q 430 -245 456 -272 q 404 -176 404 -218 q 430 -85 404 -132 q 497 0 456 -37 l 113 0 l 113 956 l 546 956 l 546 908 l 164 908 l 164 507 l 499 507 l 499 460 l 164 460 l 164 47 l 546 47 l 546 0 q 482 -76 513 -26 q 451 -165 451 -125 q 467 -210 451 -193 q 517 -228 482 -228 l 540 -226 l 540 -271 q 510 -272 528 -272 z "},"Ẽ":{"ha":600,"x_min":113,"x_max":546,"o":"m 113 0 l 113 956 l 546 956 l 546 908 l 164 908 l 164 507 l 499 507 l 499 460 l 164 460 l 164 47 l 546 47 l 546 0 l 113 0 m 513 1233 q 497 1130 513 1158 q 439 1101 482 1101 q 387 1110 413 1101 q 319 1139 361 1119 q 260 1165 281 1157 q 217 1172 239 1172 q 188 1154 194 1172 q 182 1086 182 1136 l 144 1086 q 159 1190 144 1161 q 217 1218 174 1218 q 271 1208 244 1218 q 340 1179 297 1199 q 394 1156 371 1164 q 439 1147 417 1147 q 468 1166 461 1147 q 475 1233 475 1185 l 513 1233 z "},"F":{"ha":568,"x_min":113,"x_max":526,"o":"m 113 0 l 113 956 l 526 956 l 526 908 l 164 908 l 164 488 l 489 488 l 489 440 l 164 440 l 164 0 l 113 0 z "},"G":{"ha":678,"x_min":88,"x_max":588,"o":"m 354 438 l 354 485 l 588 485 l 588 13 q 479 -5 539 1 q 374 -11 419 -11 q 192 24 250 -11 q 110 159 133 58 q 88 478 88 260 q 110 795 88 694 q 190 931 132 896 q 374 967 249 967 q 485 960 426 967 q 585 942 544 953 l 585 897 q 490 913 542 907 q 404 919 439 919 q 230 897 281 919 q 158 784 179 874 q 138 478 138 694 q 153 190 138 278 q 216 69 168 101 q 372 36 264 36 q 460 41 411 36 q 538 53 508 46 l 538 438 l 354 438 z "},"Ǵ":{"ha":678,"x_min":88,"x_max":588,"o":"m 354 438 l 354 485 l 588 485 l 588 13 q 479 -5 539 1 q 374 -11 419 -11 q 192 24 250 -11 q 110 159 133 58 q 88 478 88 260 q 110 795 88 694 q 190 931 132 896 q 374 967 249 967 q 485 960 426 967 q 585 942 544 953 l 585 897 q 490 913 542 907 q 404 919 439 919 q 230 897 281 919 q 158 784 179 874 q 138 478 138 694 q 153 190 138 278 q 216 69 168 101 q 372 36 264 36 q 460 41 411 36 q 538 53 508 46 l 538 438 l 354 438 m 317 1042 l 317 1049 l 396 1233 l 454 1233 l 454 1226 l 350 1042 l 317 1042 z "},"Ğ":{"ha":678,"x_min":88,"x_max":588,"o":"m 354 438 l 354 485 l 588 485 l 588 13 q 479 -5 539 1 q 374 -11 419 -11 q 192 24 250 -11 q 110 159 133 58 q 88 478 88 260 q 110 795 88 694 q 190 931 132 896 q 374 967 249 967 q 485 960 426 967 q 585 942 544 953 l 585 897 q 490 913 542 907 q 404 919 439 919 q 230 897 281 919 q 158 784 179 874 q 138 478 138 694 q 153 190 138 278 q 216 69 168 101 q 372 36 264 36 q 460 41 411 36 q 538 53 508 46 l 538 438 l 354 438 m 482 1233 q 475 1123 482 1161 q 437 1061 468 1085 q 338 1038 406 1038 q 239 1061 269 1038 q 201 1123 208 1085 q 194 1233 194 1161 l 239 1233 q 244 1140 239 1171 q 269 1093 249 1110 q 338 1076 290 1076 q 406 1093 385 1076 q 432 1140 426 1110 q 438 1233 438 1171 l 482 1233 z "},"Ǧ":{"ha":678,"x_min":88,"x_max":588,"o":"m 354 438 l 354 485 l 588 485 l 588 13 q 479 -5 539 1 q 374 -11 419 -11 q 192 24 250 -11 q 110 159 133 58 q 88 478 88 260 q 110 795 88 694 q 190 931 132 896 q 374 967 249 967 q 485 960 426 967 q 585 942 544 953 l 585 897 q 490 913 542 907 q 404 919 439 919 q 230 897 281 919 q 158 784 179 874 q 138 478 138 694 q 153 190 138 278 q 216 69 168 101 q 372 36 264 36 q 460 41 411 36 q 538 53 508 46 l 538 438 l 354 438 m 307 1042 l 196 1226 l 196 1233 l 233 1233 l 339 1083 l 444 1233 l 482 1233 l 482 1226 l 371 1042 l 307 1042 z "},"Ĝ":{"ha":678,"x_min":88,"x_max":588,"o":"m 354 438 l 354 485 l 588 485 l 588 13 q 479 -5 539 1 q 374 -11 419 -11 q 192 24 250 -11 q 110 159 133 58 q 88 478 88 260 q 110 795 88 694 q 190 931 132 896 q 374 967 249 967 q 485 960 426 967 q 585 942 544 953 l 585 897 q 490 913 542 907 q 404 919 439 919 q 230 897 281 919 q 158 784 179 874 q 138 478 138 694 q 153 190 138 278 q 216 69 168 101 q 372 36 264 36 q 460 41 411 36 q 538 53 508 46 l 538 438 l 354 438 m 196 1042 l 196 1049 l 307 1233 l 371 1233 l 482 1049 l 482 1042 l 444 1042 l 339 1192 l 233 1042 l 196 1042 z "},"Ģ":{"ha":678,"x_min":88,"x_max":588,"o":"m 354 438 l 354 485 l 588 485 l 588 13 q 479 -5 539 1 q 374 -11 419 -11 q 192 24 250 -11 q 110 159 133 58 q 88 478 88 260 q 110 795 88 694 q 190 931 132 896 q 374 967 249 967 q 485 960 426 967 q 585 942 544 953 l 585 897 q 490 913 542 907 q 404 919 439 919 q 230 897 281 919 q 158 784 179 874 q 138 478 138 694 q 153 190 138 278 q 216 69 168 101 q 372 36 264 36 q 460 41 411 36 q 538 53 508 46 l 538 438 l 354 438 m 289 -287 q 332 -280 318 -287 q 349 -255 346 -272 q 353 -200 353 -237 l 353 -176 l 325 -176 l 325 -86 l 389 -86 l 389 -190 q 381 -268 389 -242 q 351 -306 372 -294 q 289 -317 331 -317 l 289 -287 z "},"Ġ":{"ha":678,"x_min":88,"x_max":588,"o":"m 354 438 l 354 485 l 588 485 l 588 13 q 479 -5 539 1 q 374 -11 419 -11 q 192 24 250 -11 q 110 159 133 58 q 88 478 88 260 q 110 795 88 694 q 190 931 132 896 q 374 967 249 967 q 485 960 426 967 q 585 942 544 953 l 585 897 q 490 913 542 907 q 404 919 439 919 q 230 897 281 919 q 158 784 179 874 q 138 478 138 694 q 153 190 138 278 q 216 69 168 101 q 372 36 264 36 q 460 41 411 36 q 538 53 508 46 l 538 438 l 354 438 m 310 1131 l 310 1215 l 367 1215 l 367 1131 l 310 1131 z "},"H":{"ha":742,"x_min":113,"x_max":628,"o":"m 578 0 l 578 460 l 163 460 l 163 0 l 113 0 l 113 956 l 163 956 l 163 507 l 578 507 l 578 956 l 628 956 l 628 0 l 578 0 z "},"Ħ":{"ha":742,"x_min":113,"x_max":628,"o":"m 578 956 l 628 956 l 628 0 l 578 0 l 578 432 l 163 432 l 163 0 l 113 0 l 113 956 l 163 956 l 163 736 l 578 736 l 578 956 m 163 479 l 578 479 l 578 686 l 163 686 l 163 479 z "},"Ĥ":{"ha":742,"x_min":113,"x_max":628,"o":"m 578 0 l 578 460 l 163 460 l 163 0 l 113 0 l 113 956 l 163 956 l 163 507 l 578 507 l 578 956 l 628 956 l 628 0 l 578 0 m 228 1042 l 228 1049 l 339 1233 l 403 1233 l 514 1049 l 514 1042 l 476 1042 l 371 1192 l 265 1042 l 228 1042 z "},"Ḥ":{"ha":742,"x_min":113,"x_max":628,"o":"m 578 0 l 578 460 l 163 460 l 163 0 l 113 0 l 113 956 l 163 956 l 163 507 l 578 507 l 578 956 l 628 956 l 628 0 l 578 0 m 339 -176 l 339 -86 l 403 -86 l 403 -176 l 339 -176 z "},"I":{"ha":286,"x_min":118,"x_max":168,"o":"m 118 0 l 118 956 l 168 956 l 168 0 l 118 0 z "},"Ĳ":{"ha":599,"x_min":118,"x_max":494,"o":"m 118 0 l 118 956 l 168 956 l 168 0 l 118 0 m 314 47 q 408 64 385 50 q 438 127 432 78 q 444 324 444 176 l 444 956 l 494 956 l 494 329 q 485 100 494 161 q 441 21 475 39 q 314 0 407 3 l 314 47 z "},"Í":{"ha":286,"x_min":115,"x_max":253,"o":"m 118 0 l 118 956 l 168 956 l 168 0 l 118 0 m 115 1042 l 115 1049 l 194 1233 l 253 1233 l 253 1226 l 149 1042 l 115 1042 z "},"Ĭ":{"ha":286,"x_min":-1,"x_max":286,"o":"m 118 0 l 118 956 l 168 956 l 168 0 l 118 0 m 286 1233 q 279 1123 286 1161 q 241 1061 272 1085 q 142 1038 210 1038 q 43 1061 74 1038 q 6 1123 13 1085 q -1 1233 -1 1161 l 43 1233 q 48 1140 43 1171 q 74 1093 53 1110 q 142 1076 94 1076 q 210 1093 189 1076 q 236 1140 231 1110 q 242 1233 242 1171 l 286 1233 z "},"Ǐ":{"ha":286,"x_min":0,"x_max":286,"o":"m 118 0 l 118 956 l 168 956 l 168 0 l 118 0 m 111 1042 l 0 1226 l 0 1233 l 38 1233 l 143 1083 l 249 1233 l 286 1233 l 286 1226 l 175 1042 l 111 1042 z "},"Î":{"ha":286,"x_min":0,"x_max":286,"o":"m 118 0 l 118 956 l 168 956 l 168 0 l 118 0 m 0 1042 l 0 1049 l 111 1233 l 175 1233 l 286 1049 l 286 1042 l 249 1042 l 143 1192 l 38 1042 l 0 1042 z "},"Ȉ":{"ha":286,"x_min":-61,"x_max":256,"o":"m 118 0 l 118 956 l 168 956 l 168 0 l 118 0 m 74 1047 l 40 1047 l -61 1214 l -61 1221 l -4 1221 l 74 1054 l 74 1047 m 256 1047 l 222 1047 l 119 1214 l 119 1221 l 178 1221 l 256 1054 l 256 1047 z "},"Ï":{"ha":286,"x_min":-7,"x_max":292,"o":"m 118 0 l 118 956 l 168 956 l 168 0 l 118 0 m -7 1068 l -7 1153 l 51 1153 l 51 1068 l -7 1068 m 233 1068 l 233 1153 l 292 1153 l 292 1068 l 233 1068 z "},"İ":{"ha":286,"x_min":114,"x_max":171,"o":"m 118 0 l 118 956 l 168 956 l 168 0 l 118 0 m 114 1131 l 114 1215 l 171 1215 l 171 1131 l 114 1131 z "},"Ị":{"ha":286,"x_min":111,"x_max":175,"o":"m 118 0 l 118 956 l 168 956 l 168 0 l 118 0 m 111 -176 l 111 -86 l 175 -86 l 175 -176 l 111 -176 z "},"Ì":{"ha":286,"x_min":35,"x_max":172,"o":"m 118 0 l 118 956 l 168 956 l 168 0 l 118 0 m 139 1042 l 35 1226 l 35 1233 l 93 1233 l 172 1049 l 172 1042 l 139 1042 z "},"Ỉ":{"ha":286,"x_min":13,"x_max":272,"o":"m 118 0 l 118 956 l 168 956 l 168 0 l 118 0 m 92 1038 q 103 1078 92 1067 q 143 1097 114 1089 l 165 1104 q 217 1126 204 1115 q 229 1167 229 1138 q 222 1203 229 1192 q 193 1218 214 1214 q 126 1222 172 1222 q 13 1215 86 1222 l 13 1251 q 135 1260 72 1260 q 244 1241 215 1260 q 272 1174 272 1222 q 262 1113 272 1132 q 210 1081 251 1093 l 188 1074 q 147 1060 158 1065 q 133 1047 136 1054 q 131 1025 131 1040 l 92 1025 l 92 1038 z "},"Ȋ":{"ha":286,"x_min":-3,"x_max":285,"o":"m 118 0 l 118 956 l 168 956 l 168 0 l 118 0 m -3 1046 q 4 1156 -3 1118 q 42 1218 11 1194 q 142 1242 74 1242 q 240 1218 210 1242 q 278 1156 271 1194 q 285 1046 285 1118 l 240 1046 q 235 1139 240 1108 q 210 1186 231 1169 q 142 1203 189 1203 q 74 1186 94 1203 q 47 1139 53 1169 q 42 1046 42 1108 l -3 1046 z "},"Ī":{"ha":286,"x_min":15,"x_max":271,"o":"m 118 0 l 118 956 l 168 956 l 168 0 l 118 0 m 15 1183 l 15 1233 l 271 1233 l 271 1183 l 15 1183 z "},"Į":{"ha":286,"x_min":33,"x_max":169,"o":"m 139 -272 q 59 -245 85 -272 q 33 -172 33 -218 q 57 -85 33 -132 q 119 0 81 -37 l 118 0 l 118 956 l 168 956 l 168 0 q 109 -76 138 -26 q 81 -164 81 -125 q 146 -228 81 -228 l 169 -226 l 169 -271 q 139 -272 157 -272 z "},"Ĩ":{"ha":286,"x_min":-42,"x_max":326,"o":"m 118 0 l 118 956 l 168 956 l 168 0 l 118 0 m 326 1233 q 311 1130 326 1158 q 253 1101 296 1101 q 201 1110 226 1101 q 133 1139 175 1119 q 74 1165 94 1157 q 31 1172 53 1172 q 2 1154 8 1172 q -4 1086 -4 1136 l -42 1086 q -27 1190 -42 1161 q 31 1218 -12 1218 q 85 1208 58 1218 q 154 1179 111 1199 q 208 1156 185 1164 q 253 1147 231 1147 q 282 1166 275 1147 q 289 1233 289 1185 l 326 1233 z "},"J":{"ha":313,"x_min":28,"x_max":208,"o":"m 28 47 q 122 64 99 50 q 152 127 146 78 q 158 324 158 176 l 158 956 l 208 956 l 208 329 q 199 100 208 161 q 155 21 189 39 q 28 0 121 3 l 28 47 z "},"Ĵ":{"ha":313,"x_min":28,"x_max":326,"o":"m 28 47 q 122 64 99 50 q 152 127 146 78 q 158 324 158 176 l 158 956 l 208 956 l 208 329 q 199 100 208 161 q 155 21 189 39 q 28 0 121 3 l 28 47 m 40 1042 l 40 1049 l 151 1233 l 215 1233 l 326 1049 l 326 1042 l 289 1042 l 183 1192 l 78 1042 l 40 1042 z "},"K":{"ha":664,"x_min":113,"x_max":631,"o":"m 575 0 l 321 461 l 163 461 l 163 0 l 113 0 l 113 956 l 163 956 l 163 508 l 321 508 l 574 956 l 628 956 l 363 485 l 631 0 l 575 0 z "},"Ķ":{"ha":664,"x_min":113,"x_max":631,"o":"m 575 0 l 321 461 l 163 461 l 163 0 l 113 0 l 113 956 l 163 956 l 163 508 l 321 508 l 574 956 l 628 956 l 363 485 l 631 0 l 575 0 m 282 -287 q 325 -280 311 -287 q 342 -255 339 -272 q 346 -200 346 -237 l 346 -176 l 318 -176 l 318 -86 l 382 -86 l 382 -190 q 374 -268 382 -242 q 344 -306 365 -294 q 282 -317 324 -317 l 282 -287 z "},"L":{"ha":526,"x_min":113,"x_max":506,"o":"m 113 0 l 113 956 l 164 956 l 164 47 l 506 47 l 506 0 l 113 0 z "},"Ǉ":{"ha":839,"x_min":113,"x_max":735,"o":"m 113 0 l 113 956 l 164 956 l 164 47 l 506 47 l 506 0 l 113 0 m 554 47 q 649 64 625 50 q 678 127 672 78 q 685 324 685 176 l 685 956 l 735 956 l 735 329 q 725 100 735 161 q 681 21 715 39 q 554 0 647 3 l 554 47 z "},"Ĺ":{"ha":526,"x_min":113,"x_max":506,"o":"m 113 0 l 113 956 l 164 956 l 164 47 l 506 47 l 506 0 l 113 0 m 117 1042 l 117 1049 l 196 1233 l 254 1233 l 254 1226 l 150 1042 l 117 1042 z "},"Ľ":{"ha":526,"x_min":113,"x_max":506,"o":"m 113 0 l 113 956 l 164 956 l 164 47 l 506 47 l 506 0 l 113 0 m 314 631 l 331 832 l 331 956 l 385 956 l 385 832 l 346 631 l 314 631 z "},"Ļ":{"ha":526,"x_min":113,"x_max":506,"o":"m 113 0 l 113 956 l 164 956 l 164 47 l 506 47 l 506 0 l 113 0 m 232 -287 q 275 -280 261 -287 q 292 -255 289 -272 q 296 -200 296 -237 l 296 -176 l 268 -176 l 268 -86 l 332 -86 l 332 -190 q 324 -268 332 -242 q 294 -306 315 -294 q 232 -317 274 -317 l 232 -287 z "},"Ŀ":{"ha":526,"x_min":113,"x_max":506,"o":"m 113 0 l 113 956 l 164 956 l 164 47 l 506 47 l 506 0 l 113 0 m 386 454 l 386 544 l 450 544 l 450 454 l 386 454 z "},"ǈ":{"ha":778,"x_min":113,"x_max":681,"o":"m 113 0 l 113 956 l 164 956 l 164 47 l 506 47 l 506 0 l 113 0 m 624 947 l 624 1032 l 681 1032 l 681 947 l 624 947 m 525 -226 q 594 -219 572 -226 q 622 -197 615 -212 q 628 -147 628 -182 l 628 708 l 676 708 l 676 -133 q 661 -224 676 -196 q 615 -260 646 -253 q 525 -268 585 -268 l 525 -226 z "},"Ł":{"ha":526,"x_min":40,"x_max":506,"o":"m 164 47 l 506 47 l 506 0 l 113 0 l 113 413 l 40 386 l 40 433 l 113 460 l 113 956 l 164 956 l 164 478 l 383 558 l 383 511 l 164 431 l 164 47 z "},"M":{"ha":922,"x_min":113,"x_max":808,"o":"m 758 0 l 758 838 l 753 838 l 486 0 l 432 0 l 167 838 l 161 838 l 161 0 l 113 0 l 113 956 l 182 956 l 457 92 l 464 92 l 740 956 l 808 956 l 808 0 l 758 0 z "},"N":{"ha":742,"x_min":113,"x_max":628,"o":"m 572 0 l 167 839 l 161 839 l 161 0 l 113 0 l 113 956 l 169 956 l 574 117 l 579 117 l 579 956 l 628 956 l 628 0 l 572 0 z "},"Ǌ":{"ha":1054,"x_min":113,"x_max":950,"o":"m 572 0 l 167 839 l 161 839 l 161 0 l 113 0 l 113 956 l 169 956 l 574 117 l 579 117 l 579 956 l 628 956 l 628 0 l 572 0 m 769 47 q 864 64 840 50 q 894 127 888 78 q 900 324 900 176 l 900 956 l 950 956 l 950 329 q 940 100 950 161 q 897 21 931 39 q 769 0 863 3 l 769 47 z "},"Ń":{"ha":742,"x_min":113,"x_max":628,"o":"m 572 0 l 167 839 l 161 839 l 161 0 l 113 0 l 113 956 l 169 956 l 574 117 l 579 117 l 579 956 l 628 956 l 628 0 l 572 0 m 349 1042 l 349 1049 l 428 1233 l 486 1233 l 486 1226 l 382 1042 l 349 1042 z "},"Ň":{"ha":742,"x_min":113,"x_max":628,"o":"m 572 0 l 167 839 l 161 839 l 161 0 l 113 0 l 113 956 l 169 956 l 574 117 l 579 117 l 579 956 l 628 956 l 628 0 l 572 0 m 339 1042 l 228 1226 l 228 1233 l 265 1233 l 371 1083 l 476 1233 l 514 1233 l 514 1226 l 403 1042 l 339 1042 z "},"Ņ":{"ha":742,"x_min":113,"x_max":628,"o":"m 572 0 l 167 839 l 161 839 l 161 0 l 113 0 l 113 956 l 169 956 l 574 117 l 579 117 l 579 956 l 628 956 l 628 0 l 572 0 m 321 -287 q 364 -280 350 -287 q 381 -255 378 -272 q 385 -200 385 -237 l 385 -176 l 357 -176 l 357 -86 l 421 -86 l 421 -190 q 413 -268 421 -242 q 383 -306 404 -294 q 321 -317 363 -317 l 321 -287 z "},"Ṅ":{"ha":742,"x_min":113,"x_max":628,"o":"m 572 0 l 167 839 l 161 839 l 161 0 l 113 0 l 113 956 l 169 956 l 574 117 l 579 117 l 579 956 l 628 956 l 628 0 l 572 0 m 342 1131 l 342 1215 l 399 1215 l 399 1131 l 342 1131 z "},"Ŋ":{"ha":742,"x_min":113,"x_max":628,"o":"m 628 956 l 628 -133 q 613 -224 628 -196 q 567 -260 597 -253 q 476 -268 536 -268 l 476 -226 q 545 -219 524 -226 q 573 -197 567 -212 q 579 -147 579 -182 l 579 0 l 167 839 l 161 839 l 161 0 l 113 0 l 113 956 l 169 956 l 574 125 l 579 125 l 579 956 l 628 956 z "},"Ɲ":{"ha":742,"x_min":10,"x_max":628,"o":"m 628 956 l 628 0 l 572 0 l 167 839 l 161 839 l 161 -133 q 146 -224 161 -196 q 100 -260 131 -253 q 10 -268 69 -268 l 10 -226 q 78 -219 57 -226 q 106 -197 100 -212 q 113 -147 113 -182 l 113 956 l 169 956 l 574 117 l 579 117 l 579 956 l 628 956 z "},"ǋ":{"ha":993,"x_min":113,"x_max":896,"o":"m 572 0 l 167 839 l 161 839 l 161 0 l 113 0 l 113 956 l 169 956 l 574 117 l 579 117 l 579 956 l 628 956 l 628 0 l 572 0 m 839 947 l 839 1032 l 896 1032 l 896 947 l 839 947 m 740 -226 q 809 -219 788 -226 q 837 -197 831 -212 q 843 -147 843 -182 l 843 708 l 892 708 l 892 -133 q 876 -224 892 -196 q 831 -260 861 -253 q 740 -268 800 -268 l 740 -226 z "},"Ñ":{"ha":742,"x_min":113,"x_max":628,"o":"m 572 0 l 167 839 l 161 839 l 161 0 l 113 0 l 113 956 l 169 956 l 574 117 l 579 117 l 579 956 l 628 956 l 628 0 l 572 0 m 558 1189 q 543 1085 558 1114 q 485 1057 528 1057 q 433 1066 458 1057 q 365 1094 407 1075 q 306 1120 326 1113 q 263 1128 285 1128 q 234 1110 240 1128 q 228 1042 228 1092 l 190 1042 q 205 1145 190 1117 q 263 1174 219 1174 q 317 1164 290 1174 q 386 1135 343 1154 q 440 1111 417 1119 q 485 1103 463 1103 q 514 1122 507 1103 q 521 1189 521 1140 l 558 1189 z "},"O":{"ha":731,"x_min":88,"x_max":643,"o":"m 365 -11 q 178 23 233 -11 q 105 153 122 57 q 88 478 88 249 q 105 803 88 707 q 178 933 122 899 q 365 967 233 967 q 553 933 497 967 q 626 802 608 899 q 643 478 643 706 q 626 153 643 250 q 553 23 608 57 q 365 -11 497 -11 m 365 36 q 519 60 476 36 q 578 170 563 83 q 593 478 593 257 q 578 785 593 699 q 519 896 563 872 q 365 919 476 919 q 211 897 254 919 q 153 786 168 874 q 138 478 138 699 q 153 169 138 257 q 211 59 168 82 q 365 36 254 36 z "},"Ó":{"ha":731,"x_min":88,"x_max":643,"o":"m 365 -11 q 178 23 233 -11 q 105 153 122 57 q 88 478 88 249 q 105 803 88 707 q 178 933 122 899 q 365 967 233 967 q 553 933 497 967 q 626 802 608 899 q 643 478 643 706 q 626 153 643 250 q 553 23 608 57 q 365 -11 497 -11 m 365 36 q 519 60 476 36 q 578 170 563 83 q 593 478 593 257 q 578 785 593 699 q 519 896 563 872 q 365 919 476 919 q 211 897 254 919 q 153 786 168 874 q 138 478 138 699 q 153 169 138 257 q 211 59 168 82 q 365 36 254 36 m 342 1042 l 342 1049 l 421 1233 l 479 1233 l 479 1226 l 375 1042 l 342 1042 z "},"Ŏ":{"ha":731,"x_min":88,"x_max":643,"o":"m 365 -11 q 178 23 233 -11 q 105 153 122 57 q 88 478 88 249 q 105 803 88 707 q 178 933 122 899 q 365 967 233 967 q 553 933 497 967 q 626 802 608 899 q 643 478 643 706 q 626 153 643 250 q 553 23 608 57 q 365 -11 497 -11 m 365 36 q 519 60 476 36 q 578 170 563 83 q 593 478 593 257 q 578 785 593 699 q 519 896 563 872 q 365 919 476 919 q 211 897 254 919 q 153 786 168 874 q 138 478 138 699 q 153 169 138 257 q 211 59 168 82 q 365 36 254 36 m 508 1233 q 501 1123 508 1161 q 463 1061 494 1085 q 364 1038 432 1038 q 265 1061 296 1038 q 228 1123 235 1085 q 221 1233 221 1161 l 265 1233 q 270 1140 265 1171 q 296 1093 275 1110 q 364 1076 317 1076 q 432 1093 411 1076 q 458 1140 453 1110 q 464 1233 464 1171 l 508 1233 z "},"Ǒ":{"ha":731,"x_min":88,"x_max":643,"o":"m 365 -11 q 178 23 233 -11 q 105 153 122 57 q 88 478 88 249 q 105 803 88 707 q 178 933 122 899 q 365 967 233 967 q 553 933 497 967 q 626 802 608 899 q 643 478 643 706 q 626 153 643 250 q 553 23 608 57 q 365 -11 497 -11 m 365 36 q 519 60 476 36 q 578 170 563 83 q 593 478 593 257 q 578 785 593 699 q 519 896 563 872 q 365 919 476 919 q 211 897 254 919 q 153 786 168 874 q 138 478 138 699 q 153 169 138 257 q 211 59 168 82 q 365 36 254 36 m 333 1042 l 222 1226 l 222 1233 l 260 1233 l 365 1083 l 471 1233 l 508 1233 l 508 1226 l 397 1042 l 333 1042 z "},"Ô":{"ha":731,"x_min":88,"x_max":643,"o":"m 365 -11 q 178 23 233 -11 q 105 153 122 57 q 88 478 88 249 q 105 803 88 707 q 178 933 122 899 q 365 967 233 967 q 553 933 497 967 q 626 802 608 899 q 643 478 643 706 q 626 153 643 250 q 553 23 608 57 q 365 -11 497 -11 m 365 36 q 519 60 476 36 q 578 170 563 83 q 593 478 593 257 q 578 785 593 699 q 519 896 563 872 q 365 919 476 919 q 211 897 254 919 q 153 786 168 874 q 138 478 138 699 q 153 169 138 257 q 211 59 168 82 q 365 36 254 36 m 222 1042 l 222 1049 l 333 1233 l 397 1233 l 508 1049 l 508 1042 l 471 1042 l 365 1192 l 260 1042 l 222 1042 z "},"Ố":{"ha":731,"x_min":88,"x_max":643,"o":"m 365 -11 q 178 23 233 -11 q 105 153 122 57 q 88 478 88 249 q 105 803 88 707 q 178 933 122 899 q 365 967 233 967 q 553 933 497 967 q 626 802 608 899 q 643 478 643 706 q 626 153 643 250 q 553 23 608 57 q 365 -11 497 -11 m 365 36 q 519 60 476 36 q 578 170 563 83 q 593 478 593 257 q 578 785 593 699 q 519 896 563 872 q 365 919 476 919 q 211 897 254 919 q 153 786 168 874 q 138 478 138 699 q 153 169 138 257 q 211 59 168 82 q 365 36 254 36 m 219 1035 l 219 1042 l 331 1226 l 394 1226 l 506 1042 l 506 1035 l 468 1035 l 363 1185 l 257 1035 l 219 1035 m 454 1226 l 454 1233 l 533 1418 l 592 1418 l 592 1411 l 488 1226 l 454 1226 z "},"Ộ":{"ha":731,"x_min":88,"x_max":643,"o":"m 365 -11 q 178 23 233 -11 q 105 153 122 57 q 88 478 88 249 q 105 803 88 707 q 178 933 122 899 q 365 967 233 967 q 553 933 497 967 q 626 802 608 899 q 643 478 643 706 q 626 153 643 250 q 553 23 608 57 q 365 -11 497 -11 m 365 36 q 519 60 476 36 q 578 170 563 83 q 593 478 593 257 q 578 785 593 699 q 519 896 563 872 q 365 919 476 919 q 211 897 254 919 q 153 786 168 874 q 138 478 138 699 q 153 169 138 257 q 211 59 168 82 q 365 36 254 36 m 333 -176 l 333 -86 l 397 -86 l 397 -176 l 333 -176 m 222 1042 l 222 1049 l 333 1233 l 397 1233 l 508 1049 l 508 1042 l 471 1042 l 365 1192 l 260 1042 l 222 1042 z "},"Ồ":{"ha":731,"x_min":88,"x_max":643,"o":"m 365 -11 q 178 23 233 -11 q 105 153 122 57 q 88 478 88 249 q 105 803 88 707 q 178 933 122 899 q 365 967 233 967 q 553 933 497 967 q 626 802 608 899 q 643 478 643 706 q 626 153 643 250 q 553 23 608 57 q 365 -11 497 -11 m 365 36 q 519 60 476 36 q 578 170 563 83 q 593 478 593 257 q 578 785 593 699 q 519 896 563 872 q 365 919 476 919 q 211 897 254 919 q 153 786 168 874 q 138 478 138 699 q 153 169 138 257 q 211 59 168 82 q 365 36 254 36 m 219 1035 l 219 1042 l 331 1226 l 394 1226 l 506 1042 l 506 1035 l 468 1035 l 363 1185 l 257 1035 l 219 1035 m 471 1226 l 367 1411 l 367 1418 l 425 1418 l 504 1233 l 504 1226 l 471 1226 z "},"Ổ":{"ha":731,"x_min":88,"x_max":643,"o":"m 365 -11 q 178 23 233 -11 q 105 153 122 57 q 88 478 88 249 q 105 803 88 707 q 178 933 122 899 q 365 967 233 967 q 553 933 497 967 q 626 802 608 899 q 643 478 643 706 q 626 153 643 250 q 553 23 608 57 q 365 -11 497 -11 m 365 36 q 519 60 476 36 q 578 170 563 83 q 593 478 593 257 q 578 785 593 699 q 519 896 563 872 q 365 919 476 919 q 211 897 254 919 q 153 786 168 874 q 138 478 138 699 q 153 169 138 257 q 211 59 168 82 q 365 36 254 36 m 222 1035 l 222 1042 l 333 1226 l 397 1226 l 508 1042 l 508 1035 l 471 1035 l 365 1185 l 260 1035 l 222 1035 m 422 1238 q 433 1278 422 1267 q 474 1299 444 1290 l 496 1304 q 547 1326 535 1315 q 560 1367 560 1338 q 552 1403 560 1392 q 524 1418 544 1414 q 457 1422 503 1422 q 343 1417 432 1422 l 343 1453 q 465 1461 424 1461 q 574 1442 546 1461 q 603 1374 603 1424 q 592 1314 603 1333 q 540 1281 582 1294 l 518 1275 q 478 1261 490 1267 q 464 1248 467 1256 q 461 1225 461 1240 l 422 1225 l 422 1238 z "},"Ỗ":{"ha":731,"x_min":88,"x_max":643,"o":"m 365 -11 q 178 23 233 -11 q 105 153 122 57 q 88 478 88 249 q 105 803 88 707 q 178 933 122 899 q 365 967 233 967 q 553 933 497 967 q 626 802 608 899 q 643 478 643 706 q 626 153 643 250 q 553 23 608 57 q 365 -11 497 -11 m 365 36 q 519 60 476 36 q 578 170 563 83 q 593 478 593 257 q 578 785 593 699 q 519 896 563 872 q 365 919 476 919 q 211 897 254 919 q 153 786 168 874 q 138 478 138 699 q 153 169 138 257 q 211 59 168 82 q 365 36 254 36 m 219 1035 l 219 1042 l 331 1226 l 394 1226 l 506 1042 l 506 1035 l 468 1035 l 363 1185 l 257 1035 l 219 1035 m 549 1467 q 533 1363 549 1392 q 475 1335 518 1335 q 423 1344 449 1335 q 356 1372 397 1353 q 296 1398 317 1390 q 253 1406 275 1406 q 224 1388 231 1406 q 218 1319 218 1369 l 181 1319 q 195 1423 181 1394 q 253 1451 210 1451 q 307 1442 281 1451 q 376 1413 333 1432 q 430 1389 407 1397 q 475 1381 453 1381 q 504 1399 497 1381 q 511 1467 511 1418 l 549 1467 z "},"Ȍ":{"ha":731,"x_min":88,"x_max":643,"o":"m 365 -11 q 178 23 233 -11 q 105 153 122 57 q 88 478 88 249 q 105 803 88 707 q 178 933 122 899 q 365 967 233 967 q 553 933 497 967 q 626 802 608 899 q 643 478 643 706 q 626 153 643 250 q 553 23 608 57 q 365 -11 497 -11 m 365 36 q 519 60 476 36 q 578 170 563 83 q 593 478 593 257 q 578 785 593 699 q 519 896 563 872 q 365 919 476 919 q 211 897 254 919 q 153 786 168 874 q 138 478 138 699 q 153 169 138 257 q 211 59 168 82 q 365 36 254 36 m 296 1047 l 263 1047 l 161 1214 l 161 1221 l 218 1221 l 296 1054 l 296 1047 m 478 1047 l 444 1047 l 342 1214 l 342 1221 l 400 1221 l 478 1054 l 478 1047 z "},"Ö":{"ha":731,"x_min":88,"x_max":643,"o":"m 365 -11 q 178 23 233 -11 q 105 153 122 57 q 88 478 88 249 q 105 803 88 707 q 178 933 122 899 q 365 967 233 967 q 553 933 497 967 q 626 802 608 899 q 643 478 643 706 q 626 153 643 250 q 553 23 608 57 q 365 -11 497 -11 m 365 36 q 519 60 476 36 q 578 170 563 83 q 593 478 593 257 q 578 785 593 699 q 519 896 563 872 q 365 919 476 919 q 211 897 254 919 q 153 786 168 874 q 138 478 138 699 q 153 169 138 257 q 211 59 168 82 q 365 36 254 36 m 215 1069 l 215 1154 l 274 1154 l 274 1069 l 215 1069 m 456 1069 l 456 1154 l 514 1154 l 514 1069 l 456 1069 z "},"Ọ":{"ha":731,"x_min":88,"x_max":643,"o":"m 365 -11 q 178 23 233 -11 q 105 153 122 57 q 88 478 88 249 q 105 803 88 707 q 178 933 122 899 q 365 967 233 967 q 553 933 497 967 q 626 802 608 899 q 643 478 643 706 q 626 153 643 250 q 553 23 608 57 q 365 -11 497 -11 m 365 36 q 519 60 476 36 q 578 170 563 83 q 593 478 593 257 q 578 785 593 699 q 519 896 563 872 q 365 919 476 919 q 211 897 254 919 q 153 786 168 874 q 138 478 138 699 q 153 169 138 257 q 211 59 168 82 q 365 36 254 36 m 333 -176 l 333 -86 l 397 -86 l 397 -176 l 333 -176 z "},"Ò":{"ha":731,"x_min":88,"x_max":643,"o":"m 365 -11 q 178 23 233 -11 q 105 153 122 57 q 88 478 88 249 q 105 803 88 707 q 178 933 122 899 q 365 967 233 967 q 553 933 497 967 q 626 802 608 899 q 643 478 643 706 q 626 153 643 250 q 553 23 608 57 q 365 -11 497 -11 m 365 36 q 519 60 476 36 q 578 170 563 83 q 593 478 593 257 q 578 785 593 699 q 519 896 563 872 q 365 919 476 919 q 211 897 254 919 q 153 786 168 874 q 138 478 138 699 q 153 169 138 257 q 211 59 168 82 q 365 36 254 36 m 354 1042 l 250 1226 l 250 1233 l 308 1233 l 388 1049 l 388 1042 l 354 1042 z "},"Ỏ":{"ha":731,"x_min":88,"x_max":643,"o":"m 365 -11 q 178 23 233 -11 q 105 153 122 57 q 88 478 88 249 q 105 803 88 707 q 178 933 122 899 q 365 967 233 967 q 553 933 497 967 q 626 802 608 899 q 643 478 643 706 q 626 153 643 250 q 553 23 608 57 q 365 -11 497 -11 m 365 36 q 519 60 476 36 q 578 170 563 83 q 593 478 593 257 q 578 785 593 699 q 519 896 563 872 q 365 919 476 919 q 211 897 254 919 q 153 786 168 874 q 138 478 138 699 q 153 169 138 257 q 211 59 168 82 q 365 36 254 36 m 314 1038 q 325 1078 314 1067 q 365 1097 336 1089 l 388 1104 q 439 1126 426 1115 q 451 1167 451 1138 q 444 1203 451 1192 q 415 1218 436 1214 q 349 1222 394 1222 q 235 1215 308 1222 l 235 1251 q 357 1260 294 1260 q 466 1241 438 1260 q 494 1174 494 1222 q 484 1113 494 1132 q 432 1081 474 1093 l 410 1074 q 369 1060 381 1065 q 356 1047 358 1054 q 353 1025 353 1040 l 314 1025 l 314 1038 z "},"Ơ":{"ha":731,"x_min":88,"x_max":664,"o":"m 664 1046 q 645 947 664 974 q 572 917 626 919 q 630 781 617 875 q 643 478 643 686 q 626 153 643 250 q 553 23 608 57 q 365 -11 497 -11 q 178 23 233 -11 q 105 153 122 57 q 88 478 88 249 q 105 803 88 707 q 178 933 122 899 q 365 967 233 967 q 496 956 450 967 l 556 956 q 608 972 597 956 q 619 1036 619 989 l 619 1092 l 664 1092 l 664 1046 m 593 478 q 578 785 593 699 q 519 896 563 872 q 365 919 476 919 q 211 897 254 919 q 153 786 168 874 q 138 478 138 699 q 153 169 138 257 q 211 59 168 82 q 365 36 254 36 q 519 60 476 36 q 578 170 563 83 q 593 478 593 257 z "},"Ớ":{"ha":731,"x_min":88,"x_max":664,"o":"m 664 1046 q 645 947 664 974 q 572 917 626 919 q 630 781 617 875 q 643 478 643 686 q 626 153 643 250 q 553 23 608 57 q 365 -11 497 -11 q 178 23 233 -11 q 105 153 122 57 q 88 478 88 249 q 105 803 88 707 q 178 933 122 899 q 365 967 233 967 q 496 956 450 967 l 556 956 q 608 972 597 956 q 619 1036 619 989 l 619 1092 l 664 1092 l 664 1046 m 593 478 q 578 785 593 699 q 519 896 563 872 q 365 919 476 919 q 211 897 254 919 q 153 786 168 874 q 138 478 138 699 q 153 169 138 257 q 211 59 168 82 q 365 36 254 36 q 519 60 476 36 q 578 170 563 83 q 593 478 593 257 m 343 1042 l 343 1049 l 422 1233 l 481 1233 l 481 1226 l 376 1042 l 343 1042 z "},"Ợ":{"ha":731,"x_min":88,"x_max":664,"o":"m 664 1046 q 645 947 664 974 q 572 917 626 919 q 630 781 617 875 q 643 478 643 686 q 626 153 643 250 q 553 23 608 57 q 365 -11 497 -11 q 178 23 233 -11 q 105 153 122 57 q 88 478 88 249 q 105 803 88 707 q 178 933 122 899 q 365 967 233 967 q 496 956 450 967 l 556 956 q 608 972 597 956 q 619 1036 619 989 l 619 1092 l 664 1092 l 664 1046 m 593 478 q 578 785 593 699 q 519 896 563 872 q 365 919 476 919 q 211 897 254 919 q 153 786 168 874 q 138 478 138 699 q 153 169 138 257 q 211 59 168 82 q 365 36 254 36 q 519 60 476 36 q 578 170 563 83 q 593 478 593 257 m 333 -176 l 333 -86 l 397 -86 l 397 -176 l 333 -176 z "},"Ờ":{"ha":731,"x_min":88,"x_max":664,"o":"m 664 1046 q 645 947 664 974 q 572 917 626 919 q 630 781 617 875 q 643 478 643 686 q 626 153 643 250 q 553 23 608 57 q 365 -11 497 -11 q 178 23 233 -11 q 105 153 122 57 q 88 478 88 249 q 105 803 88 707 q 178 933 122 899 q 365 967 233 967 q 496 956 450 967 l 556 956 q 608 972 597 956 q 619 1036 619 989 l 619 1092 l 664 1092 l 664 1046 m 593 478 q 578 785 593 699 q 519 896 563 872 q 365 919 476 919 q 211 897 254 919 q 153 786 168 874 q 138 478 138 699 q 153 169 138 257 q 211 59 168 82 q 365 36 254 36 q 519 60 476 36 q 578 170 563 83 q 593 478 593 257 m 357 1042 l 253 1226 l 253 1233 l 311 1233 l 390 1049 l 390 1042 l 357 1042 z "},"Ở":{"ha":731,"x_min":88,"x_max":664,"o":"m 664 1046 q 645 947 664 974 q 572 917 626 919 q 630 781 617 875 q 643 478 643 686 q 626 153 643 250 q 553 23 608 57 q 365 -11 497 -11 q 178 23 233 -11 q 105 153 122 57 q 88 478 88 249 q 105 803 88 707 q 178 933 122 899 q 365 967 233 967 q 496 956 450 967 l 556 956 q 608 972 597 956 q 619 1036 619 989 l 619 1092 l 664 1092 l 664 1046 m 593 478 q 578 785 593 699 q 519 896 563 872 q 365 919 476 919 q 211 897 254 919 q 153 786 168 874 q 138 478 138 699 q 153 169 138 257 q 211 59 168 82 q 365 36 254 36 q 519 60 476 36 q 578 170 563 83 q 593 478 593 257 m 314 1038 q 325 1078 314 1067 q 365 1097 336 1089 l 388 1104 q 439 1126 426 1115 q 451 1167 451 1138 q 444 1203 451 1192 q 415 1218 436 1214 q 349 1222 394 1222 q 235 1215 308 1222 l 235 1251 q 357 1260 294 1260 q 466 1241 438 1260 q 494 1174 494 1222 q 484 1113 494 1132 q 432 1081 474 1093 l 410 1074 q 369 1060 381 1065 q 356 1047 358 1054 q 353 1025 353 1040 l 314 1025 l 314 1038 z "},"Ỡ":{"ha":731,"x_min":88,"x_max":664,"o":"m 664 1046 q 645 947 664 974 q 572 917 626 919 q 630 781 617 875 q 643 478 643 686 q 626 153 643 250 q 553 23 608 57 q 365 -11 497 -11 q 178 23 233 -11 q 105 153 122 57 q 88 478 88 249 q 105 803 88 707 q 178 933 122 899 q 365 967 233 967 q 496 956 450 967 l 556 956 q 608 972 597 956 q 619 1036 619 989 l 619 1092 l 664 1092 l 664 1046 m 593 478 q 578 785 593 699 q 519 896 563 872 q 365 919 476 919 q 211 897 254 919 q 153 786 168 874 q 138 478 138 699 q 153 169 138 257 q 211 59 168 82 q 365 36 254 36 q 519 60 476 36 q 578 170 563 83 q 593 478 593 257 m 549 1233 q 533 1130 549 1158 q 475 1101 518 1101 q 423 1110 449 1101 q 356 1139 397 1119 q 296 1165 317 1157 q 253 1172 275 1172 q 224 1154 231 1172 q 218 1086 218 1136 l 181 1086 q 195 1190 181 1161 q 253 1218 210 1218 q 307 1208 281 1218 q 376 1179 333 1199 q 430 1156 407 1164 q 475 1147 453 1147 q 504 1166 497 1147 q 511 1233 511 1185 l 549 1233 z "},"Ő":{"ha":731,"x_min":88,"x_max":643,"o":"m 365 -11 q 178 23 233 -11 q 105 153 122 57 q 88 478 88 249 q 105 803 88 707 q 178 933 122 899 q 365 967 233 967 q 553 933 497 967 q 626 802 608 899 q 643 478 643 706 q 626 153 643 250 q 553 23 608 57 q 365 -11 497 -11 m 365 36 q 519 60 476 36 q 578 170 563 83 q 593 478 593 257 q 578 785 593 699 q 519 896 563 872 q 365 919 476 919 q 211 897 254 919 q 153 786 168 874 q 138 478 138 699 q 153 169 138 257 q 211 59 168 82 q 365 36 254 36 m 261 1047 l 261 1054 l 339 1221 l 397 1221 l 397 1214 l 294 1047 l 261 1047 m 443 1047 l 443 1054 l 521 1221 l 578 1221 l 578 1214 l 476 1047 l 443 1047 z "},"Ȏ":{"ha":731,"x_min":88,"x_max":643,"o":"m 365 -11 q 178 23 233 -11 q 105 153 122 57 q 88 478 88 249 q 105 803 88 707 q 178 933 122 899 q 365 967 233 967 q 553 933 497 967 q 626 802 608 899 q 643 478 643 706 q 626 153 643 250 q 553 23 608 57 q 365 -11 497 -11 m 365 36 q 519 60 476 36 q 578 170 563 83 q 593 478 593 257 q 578 785 593 699 q 519 896 563 872 q 365 919 476 919 q 211 897 254 919 q 153 786 168 874 q 138 478 138 699 q 153 169 138 257 q 211 59 168 82 q 365 36 254 36 m 219 1046 q 226 1156 219 1118 q 265 1218 233 1194 q 364 1242 296 1242 q 463 1218 432 1242 q 500 1156 493 1194 q 507 1046 507 1118 l 463 1046 q 458 1139 463 1108 q 432 1186 453 1169 q 364 1203 411 1203 q 296 1186 317 1203 q 269 1139 275 1169 q 264 1046 264 1108 l 219 1046 z "},"Ō":{"ha":731,"x_min":88,"x_max":643,"o":"m 365 -11 q 178 23 233 -11 q 105 153 122 57 q 88 478 88 249 q 105 803 88 707 q 178 933 122 899 q 365 967 233 967 q 553 933 497 967 q 626 802 608 899 q 643 478 643 706 q 626 153 643 250 q 553 23 608 57 q 365 -11 497 -11 m 365 36 q 519 60 476 36 q 578 170 563 83 q 593 478 593 257 q 578 785 593 699 q 519 896 563 872 q 365 919 476 919 q 211 897 254 919 q 153 786 168 874 q 138 478 138 699 q 153 169 138 257 q 211 59 168 82 q 365 36 254 36 m 238 1183 l 238 1233 l 493 1233 l 493 1183 l 238 1183 z "},"Ǫ":{"ha":731,"x_min":88,"x_max":643,"o":"m 499 -272 q 419 -245 444 -272 q 393 -175 393 -218 q 415 -89 393 -135 q 476 -4 438 -43 q 365 -11 439 -11 q 178 23 233 -11 q 105 153 122 57 q 88 478 88 249 q 105 803 88 707 q 178 933 122 899 q 365 967 233 967 q 553 933 497 967 q 626 802 608 899 q 643 478 643 706 q 637 238 643 324 q 612 99 631 151 q 554 22 593 47 q 475 -62 510 -6 q 440 -165 440 -118 q 506 -228 440 -228 l 529 -226 l 529 -271 q 499 -272 517 -272 m 365 36 q 519 60 476 36 q 578 170 563 83 q 593 478 593 257 q 578 785 593 699 q 519 896 563 872 q 365 919 476 919 q 211 897 254 919 q 153 786 168 874 q 138 478 138 699 q 153 169 138 257 q 211 59 168 82 q 365 36 254 36 z "},"Ø":{"ha":731,"x_min":88,"x_max":643,"o":"m 585 904 q 632 764 621 858 q 643 478 643 669 q 626 153 643 250 q 553 23 608 57 q 365 -11 497 -11 q 255 -4 299 -11 q 182 21 211 3 l 138 -76 l 88 -76 l 146 51 q 99 189 110 96 q 88 478 88 282 q 105 803 88 707 q 178 933 122 899 q 365 967 233 967 q 476 960 432 967 q 549 935 519 953 l 593 1032 l 643 1032 l 585 904 m 138 478 q 144 226 138 308 q 169 101 150 143 l 531 893 q 471 915 507 910 q 365 919 435 919 q 211 897 254 919 q 153 786 168 874 q 138 478 138 699 m 593 478 q 587 730 593 647 q 561 854 581 813 l 200 61 q 260 40 224 44 q 365 36 296 36 q 519 60 476 36 q 578 170 563 83 q 593 478 593 257 z "},"Ǿ":{"ha":731,"x_min":88,"x_max":643,"o":"m 585 904 q 632 764 621 858 q 643 478 643 669 q 626 153 643 250 q 553 23 608 57 q 365 -11 497 -11 q 255 -4 299 -11 q 182 21 211 3 l 138 -76 l 88 -76 l 146 51 q 99 189 110 96 q 88 478 88 282 q 105 803 88 707 q 178 933 122 899 q 365 967 233 967 q 476 960 432 967 q 549 935 519 953 l 593 1032 l 643 1032 l 585 904 m 138 478 q 144 226 138 308 q 169 101 150 143 l 531 893 q 471 915 507 910 q 365 919 435 919 q 211 897 254 919 q 153 786 168 874 q 138 478 138 699 m 593 478 q 587 730 593 647 q 561 854 581 813 l 200 61 q 260 40 224 44 q 365 36 296 36 q 519 60 476 36 q 578 170 563 83 q 593 478 593 257 m 343 1042 l 343 1049 l 422 1233 l 481 1233 l 481 1226 l 376 1042 l 343 1042 z "},"Õ":{"ha":731,"x_min":88,"x_max":643,"o":"m 365 -11 q 178 23 233 -11 q 105 153 122 57 q 88 478 88 249 q 105 803 88 707 q 178 933 122 899 q 365 967 233 967 q 553 933 497 967 q 626 802 608 899 q 643 478 643 706 q 626 153 643 250 q 553 23 608 57 q 365 -11 497 -11 m 365 36 q 519 60 476 36 q 578 170 563 83 q 593 478 593 257 q 578 785 593 699 q 519 896 563 872 q 365 919 476 919 q 211 897 254 919 q 153 786 168 874 q 138 478 138 699 q 153 169 138 257 q 211 59 168 82 q 365 36 254 36 m 549 1189 q 533 1085 549 1114 q 475 1057 518 1057 q 423 1066 449 1057 q 356 1094 397 1075 q 296 1120 317 1113 q 253 1128 275 1128 q 224 1110 231 1128 q 218 1042 218 1092 l 181 1042 q 195 1145 181 1117 q 253 1174 210 1174 q 307 1164 281 1174 q 376 1135 333 1154 q 430 1111 407 1119 q 475 1103 453 1103 q 504 1122 497 1103 q 511 1189 511 1140 l 549 1189 z "},"Œ":{"ha":1057,"x_min":88,"x_max":1003,"o":"m 365 0 q 178 33 233 0 q 105 160 122 67 q 88 478 88 254 q 105 795 88 701 q 178 922 122 889 q 365 956 233 956 l 1003 956 l 1003 908 l 643 908 q 560 914 596 908 q 625 787 608 878 q 643 507 642 696 l 956 507 l 956 460 l 643 460 q 626 171 642 264 q 560 42 610 78 q 643 47 593 47 l 1003 47 l 1003 0 l 365 0 m 365 47 q 519 70 476 47 q 578 178 563 93 q 593 478 593 263 q 578 778 593 693 q 519 885 563 863 q 365 908 476 908 q 211 885 254 908 q 153 778 168 863 q 138 478 138 693 q 153 178 138 263 q 211 70 168 93 q 365 47 254 47 z "},"P":{"ha":649,"x_min":113,"x_max":596,"o":"m 113 956 l 383 956 q 526 917 479 956 q 584 821 572 879 q 596 668 596 763 q 583 517 596 576 q 524 419 569 457 q 383 381 478 381 l 163 381 l 163 0 l 113 0 l 113 956 m 382 428 q 490 456 456 428 q 535 533 525 483 q 546 668 546 582 q 536 803 546 754 q 491 881 526 853 q 382 908 456 908 l 163 908 l 163 428 l 382 428 z "},"Þ":{"ha":649,"x_min":113,"x_max":596,"o":"m 113 956 l 163 956 l 163 774 l 383 774 q 526 735 479 774 q 584 639 572 697 q 596 486 596 581 q 583 335 596 394 q 524 237 569 275 q 383 199 478 199 l 163 199 l 163 0 l 113 0 l 113 956 m 382 246 q 490 274 456 246 q 535 351 525 301 q 546 486 546 400 q 536 622 546 572 q 491 699 526 671 q 382 726 456 726 l 163 726 l 163 246 l 382 246 z "},"Q":{"ha":731,"x_min":88,"x_max":656,"o":"m 656 -157 l 656 -160 l 601 -160 l 508 3 q 365 -11 464 -11 q 178 23 233 -11 q 105 153 122 57 q 88 478 88 249 q 105 803 88 707 q 178 933 122 899 q 365 967 233 967 q 553 933 497 967 q 626 802 608 899 q 643 478 643 706 q 637 239 643 325 q 611 101 631 153 q 553 24 592 49 l 656 -157 m 365 36 q 433 38 401 36 q 485 44 464 39 l 338 303 l 394 303 l 529 64 q 569 131 556 85 q 588 258 583 178 q 593 478 593 338 q 578 785 593 699 q 519 896 563 872 q 365 919 476 919 q 211 897 254 919 q 153 786 168 874 q 138 478 138 699 q 153 169 138 257 q 211 59 168 82 q 365 36 254 36 z "},"R":{"ha":690,"x_min":113,"x_max":617,"o":"m 563 0 l 432 410 q 389 408 417 408 l 163 408 l 163 0 l 113 0 l 113 956 l 396 956 q 535 919 490 956 q 592 826 581 882 q 604 682 604 771 q 597 563 604 611 q 562 476 589 514 q 481 421 535 438 l 617 0 l 563 0 m 388 456 q 497 483 461 456 q 544 556 533 510 q 554 682 554 603 q 544 808 554 763 q 500 881 535 854 q 394 908 465 908 l 163 908 l 163 456 l 388 456 z "},"Ŕ":{"ha":690,"x_min":113,"x_max":617,"o":"m 563 0 l 432 410 q 389 408 417 408 l 163 408 l 163 0 l 113 0 l 113 956 l 396 956 q 535 919 490 956 q 592 826 581 882 q 604 682 604 771 q 597 563 604 611 q 562 476 589 514 q 481 421 535 438 l 617 0 l 563 0 m 388 456 q 497 483 461 456 q 544 556 533 510 q 554 682 554 603 q 544 808 554 763 q 500 881 535 854 q 394 908 465 908 l 163 908 l 163 456 l 388 456 m 324 1042 l 324 1049 l 403 1233 l 461 1233 l 461 1226 l 357 1042 l 324 1042 z "},"Ř":{"ha":690,"x_min":113,"x_max":617,"o":"m 563 0 l 432 410 q 389 408 417 408 l 163 408 l 163 0 l 113 0 l 113 956 l 396 956 q 535 919 490 956 q 592 826 581 882 q 604 682 604 771 q 597 563 604 611 q 562 476 589 514 q 481 421 535 438 l 617 0 l 563 0 m 388 456 q 497 483 461 456 q 544 556 533 510 q 554 682 554 603 q 544 808 554 763 q 500 881 535 854 q 394 908 465 908 l 163 908 l 163 456 l 388 456 m 314 1042 l 203 1226 l 203 1233 l 240 1233 l 346 1083 l 451 1233 l 489 1233 l 489 1226 l 378 1042 l 314 1042 z "},"Ŗ":{"ha":690,"x_min":113,"x_max":617,"o":"m 563 0 l 432 410 q 389 408 417 408 l 163 408 l 163 0 l 113 0 l 113 956 l 396 956 q 535 919 490 956 q 592 826 581 882 q 604 682 604 771 q 597 563 604 611 q 562 476 589 514 q 481 421 535 438 l 617 0 l 563 0 m 388 456 q 497 483 461 456 q 544 556 533 510 q 554 682 554 603 q 544 808 554 763 q 500 881 535 854 q 394 908 465 908 l 163 908 l 163 456 l 388 456 m 296 -287 q 339 -280 325 -287 q 356 -255 353 -272 q 360 -200 360 -237 l 360 -176 l 332 -176 l 332 -86 l 396 -86 l 396 -190 q 388 -268 396 -242 q 358 -306 379 -294 q 296 -317 338 -317 l 296 -287 z "},"Ȑ":{"ha":690,"x_min":113,"x_max":617,"o":"m 563 0 l 432 410 q 389 408 417 408 l 163 408 l 163 0 l 113 0 l 113 956 l 396 956 q 535 919 490 956 q 592 826 581 882 q 604 682 604 771 q 597 563 604 611 q 562 476 589 514 q 481 421 535 438 l 617 0 l 563 0 m 388 456 q 497 483 461 456 q 544 556 533 510 q 554 682 554 603 q 544 808 554 763 q 500 881 535 854 q 394 908 465 908 l 163 908 l 163 456 l 388 456 m 276 1047 l 243 1047 l 142 1214 l 142 1221 l 199 1221 l 276 1054 l 276 1047 m 458 1047 l 425 1047 l 322 1214 l 322 1221 l 381 1221 l 458 1054 l 458 1047 z "},"Ṛ":{"ha":690,"x_min":113,"x_max":617,"o":"m 563 0 l 432 410 q 389 408 417 408 l 163 408 l 163 0 l 113 0 l 113 956 l 396 956 q 535 919 490 956 q 592 826 581 882 q 604 682 604 771 q 597 563 604 611 q 562 476 589 514 q 481 421 535 438 l 617 0 l 563 0 m 388 456 q 497 483 461 456 q 544 556 533 510 q 554 682 554 603 q 544 808 554 763 q 500 881 535 854 q 394 908 465 908 l 163 908 l 163 456 l 388 456 m 314 -176 l 314 -86 l 378 -86 l 378 -176 l 314 -176 z "},"Ȓ":{"ha":690,"x_min":113,"x_max":617,"o":"m 563 0 l 432 410 q 389 408 417 408 l 163 408 l 163 0 l 113 0 l 113 956 l 396 956 q 535 919 490 956 q 592 826 581 882 q 604 682 604 771 q 597 563 604 611 q 562 476 589 514 q 481 421 535 438 l 617 0 l 563 0 m 388 456 q 497 483 461 456 q 544 556 533 510 q 554 682 554 603 q 544 808 554 763 q 500 881 535 854 q 394 908 465 908 l 163 908 l 163 456 l 388 456 m 200 1046 q 207 1156 200 1118 q 245 1218 214 1194 q 344 1242 276 1242 q 443 1218 413 1242 q 481 1156 474 1194 q 488 1046 488 1118 l 443 1046 q 438 1139 443 1108 q 413 1186 433 1169 q 344 1203 392 1203 q 276 1186 297 1203 q 250 1139 256 1169 q 244 1046 244 1108 l 200 1046 z "},"S":{"ha":622,"x_min":69,"x_max":553,"o":"m 317 -11 q 200 -6 264 -11 q 89 6 136 -1 l 89 54 q 199 42 138 47 q 301 36 261 36 q 395 44 358 36 q 460 74 432 53 q 494 137 486 93 q 503 254 503 181 q 497 385 503 350 q 466 435 490 421 q 375 460 442 450 l 192 488 q 107 524 133 496 q 75 592 81 551 q 69 715 69 633 q 124 908 69 850 q 315 967 179 967 q 432 962 375 967 q 518 949 489 957 l 518 903 q 424 915 479 910 q 325 919 369 919 q 217 907 257 919 q 156 868 176 894 q 126 807 133 843 q 119 713 119 771 q 126 603 119 638 q 153 556 133 569 q 217 535 172 542 l 386 508 q 492 479 457 497 q 543 413 528 461 q 551 361 550 393 q 553 261 553 329 q 533 101 553 160 q 461 16 513 43 q 317 -11 410 -11 z "},"Ś":{"ha":622,"x_min":69,"x_max":553,"o":"m 317 -11 q 200 -6 264 -11 q 89 6 136 -1 l 89 54 q 199 42 138 47 q 301 36 261 36 q 395 44 358 36 q 460 74 432 53 q 494 137 486 93 q 503 254 503 181 q 497 385 503 350 q 466 435 490 421 q 375 460 442 450 l 192 488 q 107 524 133 496 q 75 592 81 551 q 69 715 69 633 q 124 908 69 850 q 315 967 179 967 q 432 962 375 967 q 518 949 489 957 l 518 903 q 424 915 479 910 q 325 919 369 919 q 217 907 257 919 q 156 868 176 894 q 126 807 133 843 q 119 713 119 771 q 126 603 119 638 q 153 556 133 569 q 217 535 172 542 l 386 508 q 492 479 457 497 q 543 413 528 461 q 551 361 550 393 q 553 261 553 329 q 533 101 553 160 q 461 16 513 43 q 317 -11 410 -11 m 289 1042 l 289 1049 l 368 1233 l 426 1233 l 426 1226 l 322 1042 l 289 1042 z "},"Ꞌ":{"ha":122,"x_min":33,"x_max":88,"o":"m 33 408 l 33 956 l 88 956 l 88 708 l 65 408 l 33 408 z "},"Š":{"ha":622,"x_min":69,"x_max":553,"o":"m 317 -11 q 200 -6 264 -11 q 89 6 136 -1 l 89 54 q 199 42 138 47 q 301 36 261 36 q 395 44 358 36 q 460 74 432 53 q 494 137 486 93 q 503 254 503 181 q 497 385 503 350 q 466 435 490 421 q 375 460 442 450 l 192 488 q 107 524 133 496 q 75 592 81 551 q 69 715 69 633 q 124 908 69 850 q 315 967 179 967 q 432 962 375 967 q 518 949 489 957 l 518 903 q 424 915 479 910 q 325 919 369 919 q 217 907 257 919 q 156 868 176 894 q 126 807 133 843 q 119 713 119 771 q 126 603 119 638 q 153 556 133 569 q 217 535 172 542 l 386 508 q 492 479 457 497 q 543 413 528 461 q 551 361 550 393 q 553 261 553 329 q 533 101 553 160 q 461 16 513 43 q 317 -11 410 -11 m 286 1042 l 175 1226 l 175 1233 l 213 1233 l 318 1083 l 424 1233 l 461 1233 l 461 1226 l 350 1042 l 286 1042 z "},"Ş":{"ha":622,"x_min":69,"x_max":553,"o":"m 553 261 q 533 103 553 161 q 465 18 514 46 q 328 -11 417 -10 l 269 -264 l 214 -264 l 214 -257 l 288 -11 q 89 6 183 -8 l 89 54 q 199 42 138 47 q 301 36 261 36 q 395 44 358 36 q 460 74 432 53 q 494 137 486 93 q 503 254 503 181 q 497 385 503 350 q 466 435 490 421 q 375 460 442 450 l 192 488 q 107 524 133 496 q 75 592 81 551 q 69 715 69 633 q 124 908 69 850 q 315 967 179 967 q 432 962 375 967 q 518 949 489 957 l 518 903 q 424 915 479 910 q 325 919 369 919 q 217 907 257 919 q 156 868 176 894 q 126 807 133 843 q 119 713 119 771 q 126 603 119 638 q 153 556 133 569 q 217 535 172 542 l 386 508 q 492 479 457 497 q 543 413 528 461 q 551 361 550 393 q 553 261 553 329 z "},"Ŝ":{"ha":622,"x_min":69,"x_max":553,"o":"m 317 -11 q 200 -6 264 -11 q 89 6 136 -1 l 89 54 q 199 42 138 47 q 301 36 261 36 q 395 44 358 36 q 460 74 432 53 q 494 137 486 93 q 503 254 503 181 q 497 385 503 350 q 466 435 490 421 q 375 460 442 450 l 192 488 q 107 524 133 496 q 75 592 81 551 q 69 715 69 633 q 124 908 69 850 q 315 967 179 967 q 432 962 375 967 q 518 949 489 957 l 518 903 q 424 915 479 910 q 325 919 369 919 q 217 907 257 919 q 156 868 176 894 q 126 807 133 843 q 119 713 119 771 q 126 603 119 638 q 153 556 133 569 q 217 535 172 542 l 386 508 q 492 479 457 497 q 543 413 528 461 q 551 361 550 393 q 553 261 553 329 q 533 101 553 160 q 461 16 513 43 q 317 -11 410 -11 m 168 1042 l 168 1049 l 279 1233 l 343 1233 l 454 1049 l 454 1042 l 417 1042 l 311 1192 l 206 1042 l 168 1042 z "},"Ș":{"ha":622,"x_min":69,"x_max":553,"o":"m 317 -11 q 200 -6 264 -11 q 89 6 136 -1 l 89 54 q 199 42 138 47 q 301 36 261 36 q 395 44 358 36 q 460 74 432 53 q 494 137 486 93 q 503 254 503 181 q 497 385 503 350 q 466 435 490 421 q 375 460 442 450 l 192 488 q 107 524 133 496 q 75 592 81 551 q 69 715 69 633 q 124 908 69 850 q 315 967 179 967 q 432 962 375 967 q 518 949 489 957 l 518 903 q 424 915 479 910 q 325 919 369 919 q 217 907 257 919 q 156 868 176 894 q 126 807 133 843 q 119 713 119 771 q 126 603 119 638 q 153 556 133 569 q 217 535 172 542 l 386 508 q 492 479 457 497 q 543 413 528 461 q 551 361 550 393 q 553 261 553 329 q 533 101 553 160 q 461 16 513 43 q 317 -11 410 -11 m 261 -287 q 304 -280 290 -287 q 322 -255 318 -272 q 325 -200 325 -237 l 325 -176 l 297 -176 l 297 -86 l 361 -86 l 361 -190 q 353 -268 361 -242 q 324 -306 344 -294 q 261 -317 303 -317 l 261 -287 z "},"Ṣ":{"ha":622,"x_min":69,"x_max":553,"o":"m 317 -11 q 200 -6 264 -11 q 89 6 136 -1 l 89 54 q 199 42 138 47 q 301 36 261 36 q 395 44 358 36 q 460 74 432 53 q 494 137 486 93 q 503 254 503 181 q 497 385 503 350 q 466 435 490 421 q 375 460 442 450 l 192 488 q 107 524 133 496 q 75 592 81 551 q 69 715 69 633 q 124 908 69 850 q 315 967 179 967 q 432 962 375 967 q 518 949 489 957 l 518 903 q 424 915 479 910 q 325 919 369 919 q 217 907 257 919 q 156 868 176 894 q 126 807 133 843 q 119 713 119 771 q 126 603 119 638 q 153 556 133 569 q 217 535 172 542 l 386 508 q 492 479 457 497 q 543 413 528 461 q 551 361 550 393 q 553 261 553 329 q 533 101 553 160 q 461 16 513 43 q 317 -11 410 -11 m 279 -176 l 279 -86 l 343 -86 l 343 -176 l 279 -176 z "},"ẞ":{"ha":763,"x_min":104,"x_max":682,"o":"m 482 507 q 633 444 585 507 q 682 254 682 382 q 661 106 682 164 q 588 19 640 49 q 442 -11 535 -11 q 352 -6 401 -11 q 265 8 303 0 l 265 53 q 444 36 369 36 q 551 53 511 36 q 612 117 592 71 q 632 247 632 163 q 599 411 632 361 q 488 461 565 461 l 364 461 l 364 497 l 581 879 q 347 919 474 919 q 218 893 257 919 q 167 788 179 867 q 154 525 154 710 l 154 0 l 104 0 l 104 525 q 122 805 104 714 q 188 931 139 896 q 339 967 236 967 q 501 951 426 967 q 631 910 576 935 l 631 871 l 422 507 l 482 507 z "},"Ə":{"ha":721,"x_min":88,"x_max":633,"o":"m 347 967 q 534 933 476 967 q 613 801 592 900 q 633 478 633 701 q 617 153 633 249 q 545 23 600 57 q 361 -11 490 -11 q 176 23 231 -11 q 104 153 121 57 q 88 478 88 249 l 88 507 l 583 507 q 565 785 582 703 q 499 893 549 867 q 329 919 449 919 q 246 914 293 919 q 163 900 199 908 l 163 946 q 347 967 251 967 m 361 36 q 510 58 468 36 q 567 165 551 81 q 583 460 582 249 l 138 460 q 154 165 139 249 q 212 58 169 81 q 361 36 254 36 z "},"T":{"ha":575,"x_min":32,"x_max":543,"o":"m 263 0 l 263 908 l 32 908 l 32 956 l 543 956 l 543 908 l 313 908 l 313 0 l 263 0 z "},"Ŧ":{"ha":575,"x_min":32,"x_max":543,"o":"m 543 908 l 313 908 l 313 510 l 500 510 l 500 465 l 313 465 l 313 0 l 263 0 l 263 465 l 75 465 l 75 510 l 263 510 l 263 908 l 32 908 l 32 956 l 543 956 l 543 908 z "},"Ť":{"ha":575,"x_min":32,"x_max":543,"o":"m 263 0 l 263 908 l 32 908 l 32 956 l 543 956 l 543 908 l 313 908 l 313 0 l 263 0 m 256 1042 l 144 1226 l 144 1233 l 182 1233 l 288 1083 l 393 1233 l 431 1233 l 431 1226 l 319 1042 l 256 1042 z "},"Ţ":{"ha":575,"x_min":32,"x_max":543,"o":"m 32 956 l 543 956 l 543 908 l 313 908 l 313 0 l 306 0 l 246 -264 l 190 -264 l 190 -257 l 268 0 l 263 0 l 263 908 l 32 908 l 32 956 z "},"Ț":{"ha":575,"x_min":32,"x_max":543,"o":"m 263 0 l 263 908 l 32 908 l 32 956 l 543 956 l 543 908 l 313 908 l 313 0 l 263 0 m 238 -287 q 281 -280 267 -287 q 298 -255 294 -272 q 301 -200 301 -237 l 301 -176 l 274 -176 l 274 -86 l 338 -86 l 338 -190 q 329 -268 338 -242 q 300 -306 321 -294 q 238 -317 279 -317 l 238 -287 z "},"Ṭ":{"ha":575,"x_min":32,"x_max":543,"o":"m 263 0 l 263 908 l 32 908 l 32 956 l 543 956 l 543 908 l 313 908 l 313 0 l 263 0 m 256 -176 l 256 -86 l 319 -86 l 319 -176 l 256 -176 z "},"U":{"ha":724,"x_min":104,"x_max":619,"o":"m 619 956 l 619 408 q 604 142 619 225 q 535 24 589 58 q 363 -11 482 -11 q 189 24 242 -11 q 120 142 136 58 q 104 408 104 225 l 104 956 l 154 956 l 154 367 q 166 155 154 219 q 221 63 178 90 q 363 36 264 36 q 503 63 461 36 q 558 155 546 90 q 569 367 569 219 l 569 956 l 619 956 z "},"Ú":{"ha":724,"x_min":104,"x_max":619,"o":"m 619 956 l 619 408 q 604 142 619 225 q 535 24 589 58 q 363 -11 482 -11 q 189 24 242 -11 q 120 142 136 58 q 104 408 104 225 l 104 956 l 154 956 l 154 367 q 166 155 154 219 q 221 63 178 90 q 363 36 264 36 q 503 63 461 36 q 558 155 546 90 q 569 367 569 219 l 569 956 l 619 956 m 339 1042 l 339 1049 l 418 1233 l 476 1233 l 476 1226 l 372 1042 l 339 1042 z "},"Ŭ":{"ha":724,"x_min":104,"x_max":619,"o":"m 619 956 l 619 408 q 604 142 619 225 q 535 24 589 58 q 363 -11 482 -11 q 189 24 242 -11 q 120 142 136 58 q 104 408 104 225 l 104 956 l 154 956 l 154 367 q 166 155 154 219 q 221 63 178 90 q 363 36 264 36 q 503 63 461 36 q 558 155 546 90 q 569 367 569 219 l 569 956 l 619 956 m 506 1233 q 499 1123 506 1161 q 460 1061 492 1085 q 361 1038 429 1038 q 263 1061 293 1038 q 225 1123 232 1085 q 218 1233 218 1161 l 263 1233 q 267 1140 263 1171 q 293 1093 272 1110 q 361 1076 314 1076 q 429 1093 408 1076 q 456 1140 450 1110 q 461 1233 461 1171 l 506 1233 z "},"Ǔ":{"ha":724,"x_min":104,"x_max":619,"o":"m 619 956 l 619 408 q 604 142 619 225 q 535 24 589 58 q 363 -11 482 -11 q 189 24 242 -11 q 120 142 136 58 q 104 408 104 225 l 104 956 l 154 956 l 154 367 q 166 155 154 219 q 221 63 178 90 q 363 36 264 36 q 503 63 461 36 q 558 155 546 90 q 569 367 569 219 l 569 956 l 619 956 m 331 1042 l 219 1226 l 219 1233 l 257 1233 l 363 1083 l 468 1233 l 506 1233 l 506 1226 l 394 1042 l 331 1042 z "},"Û":{"ha":724,"x_min":104,"x_max":619,"o":"m 619 956 l 619 408 q 604 142 619 225 q 535 24 589 58 q 363 -11 482 -11 q 189 24 242 -11 q 120 142 136 58 q 104 408 104 225 l 104 956 l 154 956 l 154 367 q 166 155 154 219 q 221 63 178 90 q 363 36 264 36 q 503 63 461 36 q 558 155 546 90 q 569 367 569 219 l 569 956 l 619 956 m 219 1042 l 219 1049 l 331 1233 l 394 1233 l 506 1049 l 506 1042 l 468 1042 l 363 1192 l 257 1042 l 219 1042 z "},"Ȕ":{"ha":724,"x_min":104,"x_max":619,"o":"m 619 956 l 619 408 q 604 142 619 225 q 535 24 589 58 q 363 -11 482 -11 q 189 24 242 -11 q 120 142 136 58 q 104 408 104 225 l 104 956 l 154 956 l 154 367 q 166 155 154 219 q 221 63 178 90 q 363 36 264 36 q 503 63 461 36 q 558 155 546 90 q 569 367 569 219 l 569 956 l 619 956 m 293 1047 l 260 1047 l 158 1214 l 158 1221 l 215 1221 l 293 1054 l 293 1047 m 475 1047 l 442 1047 l 339 1214 l 339 1221 l 397 1221 l 475 1054 l 475 1047 z "},"Ü":{"ha":724,"x_min":104,"x_max":619,"o":"m 619 956 l 619 408 q 604 142 619 225 q 535 24 589 58 q 363 -11 482 -11 q 189 24 242 -11 q 120 142 136 58 q 104 408 104 225 l 104 956 l 154 956 l 154 367 q 166 155 154 219 q 221 63 178 90 q 363 36 264 36 q 503 63 461 36 q 558 155 546 90 q 569 367 569 219 l 569 956 l 619 956 m 213 1069 l 213 1154 l 271 1154 l 271 1069 l 213 1069 m 453 1069 l 453 1154 l 511 1154 l 511 1069 l 453 1069 z "},"Ǘ":{"ha":724,"x_min":104,"x_max":619,"o":"m 619 956 l 619 408 q 604 142 619 225 q 535 24 589 58 q 363 -11 482 -11 q 189 24 242 -11 q 120 142 136 58 q 104 408 104 225 l 104 956 l 154 956 l 154 367 q 166 155 154 219 q 221 63 178 90 q 363 36 264 36 q 503 63 461 36 q 558 155 546 90 q 569 367 569 219 l 569 956 l 619 956 m 213 1131 l 213 1215 l 271 1215 l 271 1131 l 213 1131 m 453 1131 l 453 1215 l 511 1215 l 511 1131 l 453 1131 m 343 1218 l 343 1225 l 422 1410 l 481 1410 l 481 1403 l 376 1218 l 343 1218 z "},"Ǚ":{"ha":724,"x_min":104,"x_max":619,"o":"m 619 956 l 619 408 q 604 142 619 225 q 535 24 589 58 q 363 -11 482 -11 q 189 24 242 -11 q 120 142 136 58 q 104 408 104 225 l 104 956 l 154 956 l 154 367 q 166 155 154 219 q 221 63 178 90 q 363 36 264 36 q 503 63 461 36 q 558 155 546 90 q 569 367 569 219 l 569 956 l 619 956 m 213 1131 l 213 1215 l 271 1215 l 271 1131 l 213 1131 m 453 1131 l 453 1215 l 511 1215 l 511 1131 l 453 1131 m 333 1218 l 222 1403 l 222 1410 l 260 1410 l 365 1260 l 471 1410 l 508 1410 l 508 1403 l 397 1218 l 333 1218 z "},"Ǜ":{"ha":724,"x_min":104,"x_max":619,"o":"m 619 956 l 619 408 q 604 142 619 225 q 535 24 589 58 q 363 -11 482 -11 q 189 24 242 -11 q 120 142 136 58 q 104 408 104 225 l 104 956 l 154 956 l 154 367 q 166 155 154 219 q 221 63 178 90 q 363 36 264 36 q 503 63 461 36 q 558 155 546 90 q 569 367 569 219 l 569 956 l 619 956 m 213 1131 l 213 1215 l 271 1215 l 271 1131 l 213 1131 m 453 1131 l 453 1215 l 511 1215 l 511 1131 l 453 1131 m 357 1218 l 253 1403 l 253 1410 l 311 1410 l 390 1225 l 390 1218 l 357 1218 z "},"Ǖ":{"ha":724,"x_min":104,"x_max":619,"o":"m 619 956 l 619 408 q 604 142 619 225 q 535 24 589 58 q 363 -11 482 -11 q 189 24 242 -11 q 120 142 136 58 q 104 408 104 225 l 104 956 l 154 956 l 154 367 q 166 155 154 219 q 221 63 178 90 q 363 36 264 36 q 503 63 461 36 q 558 155 546 90 q 569 367 569 219 l 569 956 l 619 956 m 213 1131 l 213 1215 l 271 1215 l 271 1131 l 213 1131 m 453 1131 l 453 1215 l 511 1215 l 511 1131 l 453 1131 m 238 1360 l 238 1410 l 493 1410 l 493 1360 l 238 1360 z "},"Ụ":{"ha":724,"x_min":104,"x_max":619,"o":"m 619 956 l 619 408 q 604 142 619 225 q 535 24 589 58 q 363 -11 482 -11 q 189 24 242 -11 q 120 142 136 58 q 104 408 104 225 l 104 956 l 154 956 l 154 367 q 166 155 154 219 q 221 63 178 90 q 363 36 264 36 q 503 63 461 36 q 558 155 546 90 q 569 367 569 219 l 569 956 l 619 956 m 331 -176 l 331 -86 l 394 -86 l 394 -176 l 331 -176 z "},"Ù":{"ha":724,"x_min":104,"x_max":619,"o":"m 619 956 l 619 408 q 604 142 619 225 q 535 24 589 58 q 363 -11 482 -11 q 189 24 242 -11 q 120 142 136 58 q 104 408 104 225 l 104 956 l 154 956 l 154 367 q 166 155 154 219 q 221 63 178 90 q 363 36 264 36 q 503 63 461 36 q 558 155 546 90 q 569 367 569 219 l 569 956 l 619 956 m 368 1042 l 264 1226 l 264 1233 l 322 1233 l 401 1049 l 401 1042 l 368 1042 z "},"Ủ":{"ha":724,"x_min":104,"x_max":619,"o":"m 619 956 l 619 408 q 604 142 619 225 q 535 24 589 58 q 363 -11 482 -11 q 189 24 242 -11 q 120 142 136 58 q 104 408 104 225 l 104 956 l 154 956 l 154 367 q 166 155 154 219 q 221 63 178 90 q 363 36 264 36 q 503 63 461 36 q 558 155 546 90 q 569 367 569 219 l 569 956 l 619 956 m 311 1038 q 322 1078 311 1067 q 363 1097 333 1089 l 385 1104 q 436 1126 424 1115 q 449 1167 449 1138 q 441 1203 449 1192 q 413 1218 433 1214 q 346 1222 392 1222 q 232 1215 306 1222 l 232 1251 q 354 1260 292 1260 q 463 1241 435 1260 q 492 1174 492 1222 q 481 1113 492 1132 q 429 1081 471 1093 l 407 1074 q 367 1060 378 1065 q 353 1047 356 1054 q 350 1025 350 1040 l 311 1025 l 311 1038 z "},"Ư":{"ha":724,"x_min":104,"x_max":746,"o":"m 746 1092 l 746 1046 q 737 966 746 993 q 705 928 728 939 q 638 917 682 917 l 619 917 l 619 408 q 604 142 619 225 q 535 24 589 58 q 363 -11 482 -11 q 189 24 242 -11 q 120 142 136 58 q 104 408 104 225 l 104 956 l 154 956 l 154 367 q 166 155 154 219 q 221 63 178 90 q 363 36 264 36 q 503 63 461 36 q 558 155 546 90 q 569 367 569 219 l 569 956 l 638 956 q 690 972 679 956 q 701 1036 701 989 l 701 1092 l 746 1092 z "},"Ứ":{"ha":724,"x_min":104,"x_max":746,"o":"m 746 1092 l 746 1046 q 737 966 746 993 q 705 928 728 939 q 638 917 682 917 l 619 917 l 619 408 q 604 142 619 225 q 535 24 589 58 q 363 -11 482 -11 q 189 24 242 -11 q 120 142 136 58 q 104 408 104 225 l 104 956 l 154 956 l 154 367 q 166 155 154 219 q 221 63 178 90 q 363 36 264 36 q 503 63 461 36 q 558 155 546 90 q 569 367 569 219 l 569 956 l 638 956 q 690 972 679 956 q 701 1036 701 989 l 701 1092 l 746 1092 m 340 1042 l 340 1049 l 419 1233 l 478 1233 l 478 1226 l 374 1042 l 340 1042 z "},"Ự":{"ha":724,"x_min":104,"x_max":746,"o":"m 746 1092 l 746 1046 q 737 966 746 993 q 705 928 728 939 q 638 917 682 917 l 619 917 l 619 408 q 604 142 619 225 q 535 24 589 58 q 363 -11 482 -11 q 189 24 242 -11 q 120 142 136 58 q 104 408 104 225 l 104 956 l 154 956 l 154 367 q 166 155 154 219 q 221 63 178 90 q 363 36 264 36 q 503 63 461 36 q 558 155 546 90 q 569 367 569 219 l 569 956 l 638 956 q 690 972 679 956 q 701 1036 701 989 l 701 1092 l 746 1092 m 331 -176 l 331 -86 l 394 -86 l 394 -176 l 331 -176 z "},"Ừ":{"ha":724,"x_min":104,"x_max":746,"o":"m 746 1092 l 746 1046 q 737 966 746 993 q 705 928 728 939 q 638 917 682 917 l 619 917 l 619 408 q 604 142 619 225 q 535 24 589 58 q 363 -11 482 -11 q 189 24 242 -11 q 120 142 136 58 q 104 408 104 225 l 104 956 l 154 956 l 154 367 q 166 155 154 219 q 221 63 178 90 q 363 36 264 36 q 503 63 461 36 q 558 155 546 90 q 569 367 569 219 l 569 956 l 638 956 q 690 972 679 956 q 701 1036 701 989 l 701 1092 l 746 1092 m 354 1042 l 250 1226 l 250 1233 l 308 1233 l 388 1049 l 388 1042 l 354 1042 z "},"Ử":{"ha":724,"x_min":104,"x_max":746,"o":"m 746 1092 l 746 1046 q 737 966 746 993 q 705 928 728 939 q 638 917 682 917 l 619 917 l 619 408 q 604 142 619 225 q 535 24 589 58 q 363 -11 482 -11 q 189 24 242 -11 q 120 142 136 58 q 104 408 104 225 l 104 956 l 154 956 l 154 367 q 166 155 154 219 q 221 63 178 90 q 363 36 264 36 q 503 63 461 36 q 558 155 546 90 q 569 367 569 219 l 569 956 l 638 956 q 690 972 679 956 q 701 1036 701 989 l 701 1092 l 746 1092 m 311 1038 q 322 1078 311 1067 q 363 1097 333 1089 l 385 1104 q 436 1126 424 1115 q 449 1167 449 1138 q 441 1203 449 1192 q 413 1218 433 1214 q 346 1222 392 1222 q 232 1215 306 1222 l 232 1251 q 354 1260 292 1260 q 463 1241 435 1260 q 492 1174 492 1222 q 481 1113 492 1132 q 429 1081 471 1093 l 407 1074 q 367 1060 378 1065 q 353 1047 356 1054 q 350 1025 350 1040 l 311 1025 l 311 1038 z "},"Ữ":{"ha":724,"x_min":104,"x_max":746,"o":"m 746 1092 l 746 1046 q 737 966 746 993 q 705 928 728 939 q 638 917 682 917 l 619 917 l 619 408 q 604 142 619 225 q 535 24 589 58 q 363 -11 482 -11 q 189 24 242 -11 q 120 142 136 58 q 104 408 104 225 l 104 956 l 154 956 l 154 367 q 166 155 154 219 q 221 63 178 90 q 363 36 264 36 q 503 63 461 36 q 558 155 546 90 q 569 367 569 219 l 569 956 l 638 956 q 690 972 679 956 q 701 1036 701 989 l 701 1092 l 746 1092 m 546 1233 q 531 1130 546 1158 q 472 1101 515 1101 q 420 1110 446 1101 q 353 1139 394 1119 q 293 1165 314 1157 q 250 1172 272 1172 q 222 1154 228 1172 q 215 1086 215 1136 l 178 1086 q 192 1190 178 1161 q 250 1218 207 1218 q 304 1208 278 1218 q 374 1179 331 1199 q 427 1156 404 1164 q 472 1147 450 1147 q 501 1166 494 1147 q 508 1233 508 1185 l 546 1233 z "},"Ű":{"ha":724,"x_min":104,"x_max":619,"o":"m 619 956 l 619 408 q 604 142 619 225 q 535 24 589 58 q 363 -11 482 -11 q 189 24 242 -11 q 120 142 136 58 q 104 408 104 225 l 104 956 l 154 956 l 154 367 q 166 155 154 219 q 221 63 178 90 q 363 36 264 36 q 503 63 461 36 q 558 155 546 90 q 569 367 569 219 l 569 956 l 619 956 m 258 1047 l 258 1054 l 336 1221 l 394 1221 l 394 1214 l 292 1047 l 258 1047 m 440 1047 l 440 1054 l 518 1221 l 575 1221 l 575 1214 l 474 1047 l 440 1047 z "},"Ȗ":{"ha":724,"x_min":104,"x_max":619,"o":"m 619 956 l 619 408 q 604 142 619 225 q 535 24 589 58 q 363 -11 482 -11 q 189 24 242 -11 q 120 142 136 58 q 104 408 104 225 l 104 956 l 154 956 l 154 367 q 166 155 154 219 q 221 63 178 90 q 363 36 264 36 q 503 63 461 36 q 558 155 546 90 q 569 367 569 219 l 569 956 l 619 956 m 217 1046 q 224 1156 217 1118 q 262 1218 231 1194 q 361 1242 293 1242 q 460 1218 429 1242 q 497 1156 490 1194 q 504 1046 504 1118 l 460 1046 q 455 1139 460 1108 q 429 1186 450 1169 q 361 1203 408 1203 q 293 1186 314 1203 q 267 1139 272 1169 q 261 1046 261 1108 l 217 1046 z "},"Ū":{"ha":724,"x_min":104,"x_max":619,"o":"m 619 956 l 619 408 q 604 142 619 225 q 535 24 589 58 q 363 -11 482 -11 q 189 24 242 -11 q 120 142 136 58 q 104 408 104 225 l 104 956 l 154 956 l 154 367 q 166 155 154 219 q 221 63 178 90 q 363 36 264 36 q 503 63 461 36 q 558 155 546 90 q 569 367 569 219 l 569 956 l 619 956 m 235 1183 l 235 1233 l 490 1233 l 490 1183 l 235 1183 z "},"Ų":{"ha":724,"x_min":104,"x_max":619,"o":"m 619 956 l 619 408 q 614 212 619 285 q 590 92 608 139 q 535 22 571 46 q 456 -60 489 -7 q 422 -164 422 -114 q 488 -228 422 -228 l 511 -226 l 511 -271 q 481 -272 499 -272 q 401 -245 426 -272 q 375 -172 375 -218 q 397 -88 375 -133 q 458 -3 419 -43 q 363 -11 417 -11 q 189 24 242 -11 q 120 142 136 58 q 104 408 104 225 l 104 956 l 154 956 l 154 367 q 166 155 154 219 q 221 63 178 90 q 363 36 264 36 q 503 63 461 36 q 558 155 546 90 q 569 367 569 219 l 569 956 l 619 956 z "},"Ů":{"ha":724,"x_min":104,"x_max":619,"o":"m 619 956 l 619 408 q 604 142 619 225 q 535 24 589 58 q 363 -11 482 -11 q 189 24 242 -11 q 120 142 136 58 q 104 408 104 225 l 104 956 l 154 956 l 154 367 q 166 155 154 219 q 221 63 178 90 q 363 36 264 36 q 503 63 461 36 q 558 155 546 90 q 569 367 569 219 l 569 956 l 619 956 m 361 1017 q 278 1028 304 1017 q 244 1063 251 1039 q 236 1139 236 1088 q 244 1215 236 1190 q 278 1251 251 1239 q 361 1263 304 1263 q 446 1251 419 1263 q 481 1214 472 1239 q 489 1139 489 1189 q 481 1064 489 1089 q 446 1028 472 1039 q 361 1017 419 1017 m 361 1056 q 417 1063 400 1056 q 438 1086 433 1069 q 443 1139 443 1103 q 438 1192 443 1175 q 416 1216 433 1208 q 361 1224 399 1224 q 307 1216 324 1224 q 286 1192 290 1208 q 282 1139 282 1175 q 286 1086 282 1103 q 307 1063 290 1069 q 361 1056 324 1056 z "},"Ũ":{"ha":724,"x_min":104,"x_max":619,"o":"m 619 956 l 619 408 q 604 142 619 225 q 535 24 589 58 q 363 -11 482 -11 q 189 24 242 -11 q 120 142 136 58 q 104 408 104 225 l 104 956 l 154 956 l 154 367 q 166 155 154 219 q 221 63 178 90 q 363 36 264 36 q 503 63 461 36 q 558 155 546 90 q 569 367 569 219 l 569 956 l 619 956 m 546 1233 q 531 1130 546 1158 q 472 1101 515 1101 q 420 1110 446 1101 q 353 1139 394 1119 q 293 1165 314 1157 q 250 1172 272 1172 q 222 1154 228 1172 q 215 1086 215 1136 l 178 1086 q 192 1190 178 1161 q 250 1218 207 1218 q 304 1208 278 1218 q 374 1179 331 1199 q 427 1156 404 1164 q 472 1147 450 1147 q 501 1166 494 1147 q 508 1233 508 1185 l 546 1233 z "},"V":{"ha":638,"x_min":22,"x_max":614,"o":"m 292 0 l 22 956 l 76 956 l 317 92 l 324 92 l 564 956 l 614 956 l 346 0 l 292 0 z "},"W":{"ha":951,"x_min":29,"x_max":922,"o":"m 671 0 l 478 853 l 472 853 l 281 0 l 226 0 l 29 956 l 82 956 l 251 103 l 260 103 l 447 956 l 506 956 l 694 103 l 701 103 l 872 956 l 922 956 l 725 0 l 671 0 z "},"Ẃ":{"ha":951,"x_min":29,"x_max":922,"o":"m 671 0 l 478 853 l 472 853 l 281 0 l 226 0 l 29 956 l 82 956 l 251 103 l 260 103 l 447 956 l 506 956 l 694 103 l 701 103 l 872 956 l 922 956 l 725 0 l 671 0 m 454 1042 l 454 1049 l 533 1233 l 592 1233 l 592 1226 l 488 1042 l 454 1042 z "},"Ŵ":{"ha":951,"x_min":29,"x_max":922,"o":"m 671 0 l 478 853 l 472 853 l 281 0 l 226 0 l 29 956 l 82 956 l 251 103 l 260 103 l 447 956 l 506 956 l 694 103 l 701 103 l 872 956 l 922 956 l 725 0 l 671 0 m 333 1042 l 333 1049 l 444 1233 l 508 1233 l 619 1049 l 619 1042 l 582 1042 l 476 1192 l 371 1042 l 333 1042 z "},"Ẅ":{"ha":951,"x_min":29,"x_max":922,"o":"m 671 0 l 478 853 l 472 853 l 281 0 l 226 0 l 29 956 l 82 956 l 251 103 l 260 103 l 447 956 l 506 956 l 694 103 l 701 103 l 872 956 l 922 956 l 725 0 l 671 0 m 326 1131 l 326 1215 l 385 1215 l 385 1131 l 326 1131 m 567 1131 l 567 1215 l 625 1215 l 625 1131 l 567 1131 z "},"Ẁ":{"ha":951,"x_min":29,"x_max":922,"o":"m 671 0 l 478 853 l 472 853 l 281 0 l 226 0 l 29 956 l 82 956 l 251 103 l 260 103 l 447 956 l 506 956 l 694 103 l 701 103 l 872 956 l 922 956 l 725 0 l 671 0 m 468 1042 l 364 1226 l 364 1233 l 422 1233 l 501 1049 l 501 1042 l 468 1042 z "},"X":{"ha":668,"x_min":32,"x_max":635,"o":"m 578 0 l 336 429 l 329 429 l 88 0 l 32 0 l 303 481 l 36 956 l 93 956 l 332 531 l 339 531 l 576 956 l 632 956 l 365 482 l 635 0 l 578 0 z "},"Y":{"ha":586,"x_min":10,"x_max":576,"o":"m 267 0 l 267 390 l 10 956 l 64 956 l 290 457 l 297 457 l 524 956 l 576 956 l 317 390 l 317 0 l 267 0 z "},"Ý":{"ha":586,"x_min":10,"x_max":576,"o":"m 267 0 l 267 390 l 10 956 l 64 956 l 290 457 l 297 457 l 524 956 l 576 956 l 317 390 l 317 0 l 267 0 m 276 1042 l 276 1049 l 356 1233 l 414 1233 l 414 1226 l 310 1042 l 276 1042 z "},"Ŷ":{"ha":586,"x_min":10,"x_max":576,"o":"m 267 0 l 267 390 l 10 956 l 64 956 l 290 457 l 297 457 l 524 956 l 576 956 l 317 390 l 317 0 l 267 0 m 150 1042 l 150 1049 l 261 1233 l 325 1233 l 436 1049 l 436 1042 l 399 1042 l 293 1192 l 188 1042 l 150 1042 z "},"Ÿ":{"ha":586,"x_min":10,"x_max":576,"o":"m 267 0 l 267 390 l 10 956 l 64 956 l 290 457 l 297 457 l 524 956 l 576 956 l 317 390 l 317 0 l 267 0 m 146 1069 l 146 1154 l 204 1154 l 204 1069 l 146 1069 m 386 1069 l 386 1154 l 444 1154 l 444 1069 l 386 1069 z "},"Ỵ":{"ha":586,"x_min":10,"x_max":576,"o":"m 267 0 l 267 390 l 10 956 l 64 956 l 290 457 l 297 457 l 524 956 l 576 956 l 317 390 l 317 0 l 267 0 m 261 -176 l 261 -86 l 325 -86 l 325 -176 l 261 -176 z "},"Ỳ":{"ha":586,"x_min":10,"x_max":576,"o":"m 267 0 l 267 390 l 10 956 l 64 956 l 290 457 l 297 457 l 524 956 l 576 956 l 317 390 l 317 0 l 267 0 m 285 1042 l 181 1226 l 181 1233 l 239 1233 l 318 1049 l 318 1042 l 285 1042 z "},"Ỷ":{"ha":586,"x_min":10,"x_max":576,"o":"m 267 0 l 267 390 l 10 956 l 64 956 l 290 457 l 297 457 l 524 956 l 576 956 l 317 390 l 317 0 l 267 0 m 242 1038 q 253 1078 242 1067 q 293 1097 264 1089 l 315 1104 q 367 1126 354 1115 q 379 1167 379 1138 q 372 1203 379 1192 q 343 1218 364 1214 q 276 1222 322 1222 q 163 1215 236 1222 l 163 1251 q 285 1260 222 1260 q 394 1241 365 1260 q 422 1174 422 1222 q 412 1113 422 1132 q 360 1081 401 1093 l 338 1074 q 297 1060 308 1065 q 283 1047 286 1054 q 281 1025 281 1040 l 242 1025 l 242 1038 z "},"Ȳ":{"ha":586,"x_min":10,"x_max":576,"o":"m 267 0 l 267 390 l 10 956 l 64 956 l 290 457 l 297 457 l 524 956 l 576 956 l 317 390 l 317 0 l 267 0 m 165 1183 l 165 1233 l 421 1233 l 421 1183 l 165 1183 z "},"Ỹ":{"ha":586,"x_min":10,"x_max":576,"o":"m 267 0 l 267 390 l 10 956 l 64 956 l 290 457 l 297 457 l 524 956 l 576 956 l 317 390 l 317 0 l 267 0 m 476 1233 q 461 1130 476 1158 q 403 1101 446 1101 q 351 1110 376 1101 q 283 1139 325 1119 q 224 1165 244 1157 q 181 1172 203 1172 q 152 1154 158 1172 q 146 1086 146 1136 l 108 1086 q 123 1190 108 1161 q 181 1218 138 1218 q 235 1208 208 1218 q 304 1179 261 1199 q 358 1156 335 1164 q 403 1147 381 1147 q 432 1166 425 1147 q 439 1233 439 1185 l 476 1233 z "},"Z":{"ha":583,"x_min":46,"x_max":540,"o":"m 46 0 l 46 44 l 475 908 l 57 908 l 57 956 l 532 956 l 532 911 l 104 47 l 540 47 l 540 0 l 46 0 z "},"Ź":{"ha":583,"x_min":46,"x_max":540,"o":"m 46 0 l 46 44 l 475 908 l 57 908 l 57 956 l 532 956 l 532 911 l 104 47 l 540 47 l 540 0 l 46 0 m 269 1042 l 269 1049 l 349 1233 l 407 1233 l 407 1226 l 303 1042 l 269 1042 z "},"Ž":{"ha":583,"x_min":46,"x_max":540,"o":"m 46 0 l 46 44 l 475 908 l 57 908 l 57 956 l 532 956 l 532 911 l 104 47 l 540 47 l 540 0 l 46 0 m 268 1042 l 157 1226 l 157 1233 l 194 1233 l 300 1083 l 406 1233 l 443 1233 l 443 1226 l 332 1042 l 268 1042 z "},"Ż":{"ha":583,"x_min":46,"x_max":540,"o":"m 46 0 l 46 44 l 475 908 l 57 908 l 57 956 l 532 956 l 532 911 l 104 47 l 540 47 l 540 0 l 46 0 m 263 1131 l 263 1215 l 319 1215 l 319 1131 l 263 1131 z "},"Ẓ":{"ha":583,"x_min":46,"x_max":540,"o":"m 46 0 l 46 44 l 475 908 l 57 908 l 57 956 l 532 956 l 532 911 l 104 47 l 540 47 l 540 0 l 46 0 m 260 -176 l 260 -86 l 324 -86 l 324 -176 l 260 -176 z "},"a":{"ha":597,"x_min":57,"x_max":499,"o":"m 257 -11 q 141 5 183 -11 q 78 65 99 21 q 57 192 57 108 q 72 314 57 271 q 125 375 88 357 q 231 393 163 393 q 450 386 276 393 l 450 450 q 437 601 450 556 q 388 660 424 646 q 268 675 351 675 q 180 669 232 675 q 93 657 128 664 l 93 703 q 282 719 179 719 q 418 698 372 719 q 481 622 464 676 q 499 458 499 568 l 499 0 l 461 0 l 456 108 l 450 108 q 381 12 432 35 q 257 -11 329 -11 m 257 33 q 367 49 325 33 q 426 117 408 64 q 444 197 439 157 q 450 292 450 238 l 450 349 l 242 349 q 156 338 185 349 q 117 294 128 326 q 106 192 106 261 q 118 92 106 125 q 163 46 131 58 q 257 33 194 33 z "},"á":{"ha":597,"x_min":57,"x_max":499,"o":"m 257 -11 q 141 5 183 -11 q 78 65 99 21 q 57 192 57 108 q 72 314 57 271 q 125 375 88 357 q 231 393 163 393 q 450 386 276 393 l 450 450 q 437 601 450 556 q 388 660 424 646 q 268 675 351 675 q 180 669 232 675 q 93 657 128 664 l 93 703 q 282 719 179 719 q 418 698 372 719 q 481 622 464 676 q 499 458 499 568 l 499 0 l 461 0 l 456 108 l 450 108 q 381 12 432 35 q 257 -11 329 -11 m 257 33 q 367 49 325 33 q 426 117 408 64 q 444 197 439 157 q 450 292 450 238 l 450 349 l 242 349 q 156 338 185 349 q 117 294 128 326 q 106 192 106 261 q 118 92 106 125 q 163 46 131 58 q 257 33 194 33 m 268 840 l 268 847 l 347 1032 l 406 1032 l 406 1025 l 301 840 l 268 840 z "},"ă":{"ha":597,"x_min":57,"x_max":499,"o":"m 257 -11 q 141 5 183 -11 q 78 65 99 21 q 57 192 57 108 q 72 314 57 271 q 125 375 88 357 q 231 393 163 393 q 450 386 276 393 l 450 450 q 437 601 450 556 q 388 660 424 646 q 268 675 351 675 q 180 669 232 675 q 93 657 128 664 l 93 703 q 282 719 179 719 q 418 698 372 719 q 481 622 464 676 q 499 458 499 568 l 499 0 l 461 0 l 456 108 l 450 108 q 381 12 432 35 q 257 -11 329 -11 m 257 33 q 367 49 325 33 q 426 117 408 64 q 444 197 439 157 q 450 292 450 238 l 450 349 l 242 349 q 156 338 185 349 q 117 294 128 326 q 106 192 106 261 q 118 92 106 125 q 163 46 131 58 q 257 33 194 33 m 442 1032 q 435 922 442 960 q 397 860 428 883 q 297 836 365 836 q 199 860 229 836 q 161 922 168 883 q 154 1032 154 960 l 199 1032 q 203 939 199 969 q 229 892 208 908 q 297 875 250 875 q 365 892 344 875 q 392 939 386 908 q 397 1032 397 969 l 442 1032 z "},"ắ":{"ha":597,"x_min":57,"x_max":499,"o":"m 257 -11 q 141 5 183 -11 q 78 65 99 21 q 57 192 57 108 q 72 314 57 271 q 125 375 88 357 q 231 393 163 393 q 450 386 276 393 l 450 450 q 437 601 450 556 q 388 660 424 646 q 268 675 351 675 q 180 669 232 675 q 93 657 128 664 l 93 703 q 282 719 179 719 q 418 698 372 719 q 481 622 464 676 q 499 458 499 568 l 499 0 l 461 0 l 456 108 l 450 108 q 381 12 432 35 q 257 -11 329 -11 m 257 33 q 367 49 325 33 q 426 117 408 64 q 444 197 439 157 q 450 292 450 238 l 450 349 l 242 349 q 156 338 185 349 q 117 294 128 326 q 106 192 106 261 q 118 92 106 125 q 163 46 131 58 q 257 33 194 33 m 440 1032 q 433 922 440 960 q 395 860 426 883 q 296 836 364 836 q 197 860 228 836 q 160 922 167 883 q 153 1032 153 960 l 197 1032 q 202 939 197 969 q 228 892 207 908 q 296 875 249 875 q 364 892 343 875 q 390 939 385 908 q 396 1032 396 969 l 440 1032 m 279 1081 l 279 1088 l 358 1272 l 417 1272 l 417 1265 l 313 1081 l 279 1081 z "},"ặ":{"ha":597,"x_min":57,"x_max":499,"o":"m 257 -11 q 141 5 183 -11 q 78 65 99 21 q 57 192 57 108 q 72 314 57 271 q 125 375 88 357 q 231 393 163 393 q 450 386 276 393 l 450 450 q 437 601 450 556 q 388 660 424 646 q 268 675 351 675 q 180 669 232 675 q 93 657 128 664 l 93 703 q 282 719 179 719 q 418 698 372 719 q 481 622 464 676 q 499 458 499 568 l 499 0 l 461 0 l 456 108 l 450 108 q 381 12 432 35 q 257 -11 329 -11 m 257 33 q 367 49 325 33 q 426 117 408 64 q 444 197 439 157 q 450 292 450 238 l 450 349 l 242 349 q 156 338 185 349 q 117 294 128 326 q 106 192 106 261 q 118 92 106 125 q 163 46 131 58 q 257 33 194 33 m 267 -176 l 267 -86 l 331 -86 l 331 -176 l 267 -176 m 442 1032 q 435 922 442 960 q 397 860 428 883 q 297 836 365 836 q 199 860 229 836 q 161 922 168 883 q 154 1032 154 960 l 199 1032 q 203 939 199 969 q 229 892 208 908 q 297 875 250 875 q 365 892 344 875 q 392 939 386 908 q 397 1032 397 969 l 442 1032 z "},"ằ":{"ha":597,"x_min":57,"x_max":499,"o":"m 257 -11 q 141 5 183 -11 q 78 65 99 21 q 57 192 57 108 q 72 314 57 271 q 125 375 88 357 q 231 393 163 393 q 450 386 276 393 l 450 450 q 437 601 450 556 q 388 660 424 646 q 268 675 351 675 q 180 669 232 675 q 93 657 128 664 l 93 703 q 282 719 179 719 q 418 698 372 719 q 481 622 464 676 q 499 458 499 568 l 499 0 l 461 0 l 456 108 l 450 108 q 381 12 432 35 q 257 -11 329 -11 m 257 33 q 367 49 325 33 q 426 117 408 64 q 444 197 439 157 q 450 292 450 238 l 450 349 l 242 349 q 156 338 185 349 q 117 294 128 326 q 106 192 106 261 q 118 92 106 125 q 163 46 131 58 q 257 33 194 33 m 442 1032 q 435 922 442 960 q 397 860 428 883 q 297 836 365 836 q 199 860 229 836 q 161 922 168 883 q 154 1032 154 960 l 199 1032 q 203 939 199 969 q 229 892 208 908 q 297 875 250 875 q 365 892 344 875 q 392 939 386 908 q 397 1032 397 969 l 442 1032 m 290 1081 l 186 1265 l 186 1272 l 244 1272 l 324 1088 l 324 1081 l 290 1081 z "},"ẳ":{"ha":597,"x_min":57,"x_max":499,"o":"m 257 -11 q 141 5 183 -11 q 78 65 99 21 q 57 192 57 108 q 72 314 57 271 q 125 375 88 357 q 231 393 163 393 q 450 386 276 393 l 450 450 q 437 601 450 556 q 388 660 424 646 q 268 675 351 675 q 180 669 232 675 q 93 657 128 664 l 93 703 q 282 719 179 719 q 418 698 372 719 q 481 622 464 676 q 499 458 499 568 l 499 0 l 461 0 l 456 108 l 450 108 q 381 12 432 35 q 257 -11 329 -11 m 257 33 q 367 49 325 33 q 426 117 408 64 q 444 197 439 157 q 450 292 450 238 l 450 349 l 242 349 q 156 338 185 349 q 117 294 128 326 q 106 192 106 261 q 118 92 106 125 q 163 46 131 58 q 257 33 194 33 m 442 1032 q 435 922 442 960 q 397 860 428 883 q 297 836 365 836 q 199 860 229 836 q 161 922 168 883 q 154 1032 154 960 l 199 1032 q 203 939 199 969 q 229 892 208 908 q 297 875 250 875 q 365 892 344 875 q 392 939 386 908 q 397 1032 397 969 l 442 1032 m 250 1044 q 261 1085 250 1074 q 301 1106 272 1097 l 324 1111 q 375 1133 363 1122 q 388 1174 388 1144 q 380 1210 388 1199 q 351 1225 372 1221 q 285 1229 331 1229 q 171 1224 260 1229 l 171 1260 q 293 1268 251 1268 q 402 1249 374 1268 q 431 1181 431 1231 q 420 1121 431 1140 q 368 1088 410 1101 l 346 1082 q 306 1068 318 1074 q 292 1055 294 1063 q 289 1032 289 1047 l 250 1032 l 250 1044 z "},"ẵ":{"ha":597,"x_min":57,"x_max":499,"o":"m 257 -11 q 141 5 183 -11 q 78 65 99 21 q 57 192 57 108 q 72 314 57 271 q 125 375 88 357 q 231 393 163 393 q 450 386 276 393 l 450 450 q 437 601 450 556 q 388 660 424 646 q 268 675 351 675 q 180 669 232 675 q 93 657 128 664 l 93 703 q 282 719 179 719 q 418 698 372 719 q 481 622 464 676 q 499 458 499 568 l 499 0 l 461 0 l 456 108 l 450 108 q 381 12 432 35 q 257 -11 329 -11 m 257 33 q 367 49 325 33 q 426 117 408 64 q 444 197 439 157 q 450 292 450 238 l 450 349 l 242 349 q 156 338 185 349 q 117 294 128 326 q 106 192 106 261 q 118 92 106 125 q 163 46 131 58 q 257 33 194 33 m 439 1032 q 432 922 439 960 q 394 860 425 883 q 294 836 363 836 q 196 860 226 836 q 158 922 165 883 q 151 1032 151 960 l 196 1032 q 201 939 196 969 q 226 892 206 908 q 294 875 247 875 q 363 892 342 875 q 389 939 383 908 q 394 1032 394 969 l 439 1032 m 482 1272 q 467 1169 482 1197 q 408 1140 451 1140 q 356 1149 382 1140 q 289 1178 331 1158 q 229 1203 250 1196 q 186 1211 208 1211 q 158 1193 164 1211 q 151 1125 151 1175 l 114 1125 q 128 1228 114 1200 q 186 1257 143 1257 q 240 1247 214 1257 q 310 1218 267 1238 q 363 1194 340 1203 q 408 1186 386 1186 q 438 1205 431 1186 q 444 1272 444 1224 l 482 1272 z "},"ǎ":{"ha":597,"x_min":57,"x_max":499,"o":"m 257 -11 q 141 5 183 -11 q 78 65 99 21 q 57 192 57 108 q 72 314 57 271 q 125 375 88 357 q 231 393 163 393 q 450 386 276 393 l 450 450 q 437 601 450 556 q 388 660 424 646 q 268 675 351 675 q 180 669 232 675 q 93 657 128 664 l 93 703 q 282 719 179 719 q 418 698 372 719 q 481 622 464 676 q 499 458 499 568 l 499 0 l 461 0 l 456 108 l 450 108 q 381 12 432 35 q 257 -11 329 -11 m 257 33 q 367 49 325 33 q 426 117 408 64 q 444 197 439 157 q 450 292 450 238 l 450 349 l 242 349 q 156 338 185 349 q 117 294 128 326 q 106 192 106 261 q 118 92 106 125 q 163 46 131 58 q 257 33 194 33 m 267 840 l 156 1025 l 156 1032 l 193 1032 l 299 882 l 404 1032 l 442 1032 l 442 1025 l 331 840 l 267 840 z "},"â":{"ha":597,"x_min":57,"x_max":499,"o":"m 257 -11 q 141 5 183 -11 q 78 65 99 21 q 57 192 57 108 q 72 314 57 271 q 125 375 88 357 q 231 393 163 393 q 450 386 276 393 l 450 450 q 437 601 450 556 q 388 660 424 646 q 268 675 351 675 q 180 669 232 675 q 93 657 128 664 l 93 703 q 282 719 179 719 q 418 698 372 719 q 481 622 464 676 q 499 458 499 568 l 499 0 l 461 0 l 456 108 l 450 108 q 381 12 432 35 q 257 -11 329 -11 m 257 33 q 367 49 325 33 q 426 117 408 64 q 444 197 439 157 q 450 292 450 238 l 450 349 l 242 349 q 156 338 185 349 q 117 294 128 326 q 106 192 106 261 q 118 92 106 125 q 163 46 131 58 q 257 33 194 33 m 157 840 l 157 847 l 268 1032 l 332 1032 l 443 847 l 443 840 l 406 840 l 300 990 l 194 840 l 157 840 z "},"ấ":{"ha":597,"x_min":57,"x_max":525,"o":"m 257 -11 q 141 5 183 -11 q 78 65 99 21 q 57 192 57 108 q 72 314 57 271 q 125 375 88 357 q 231 393 163 393 q 450 386 276 393 l 450 450 q 437 601 450 556 q 388 660 424 646 q 268 675 351 675 q 180 669 232 675 q 93 657 128 664 l 93 703 q 282 719 179 719 q 418 698 372 719 q 481 622 464 676 q 499 458 499 568 l 499 0 l 461 0 l 456 108 l 450 108 q 381 12 432 35 q 257 -11 329 -11 m 257 33 q 367 49 325 33 q 426 117 408 64 q 444 197 439 157 q 450 292 450 238 l 450 349 l 242 349 q 156 338 185 349 q 117 294 128 326 q 106 192 106 261 q 118 92 106 125 q 163 46 131 58 q 257 33 194 33 m 153 840 l 153 847 l 264 1032 l 328 1032 l 439 847 l 439 840 l 401 840 l 296 990 l 190 840 l 153 840 m 388 1032 l 388 1039 l 467 1224 l 525 1224 l 525 1217 l 421 1032 l 388 1032 z "},"ậ":{"ha":597,"x_min":57,"x_max":499,"o":"m 257 -11 q 141 5 183 -11 q 78 65 99 21 q 57 192 57 108 q 72 314 57 271 q 125 375 88 357 q 231 393 163 393 q 450 386 276 393 l 450 450 q 437 601 450 556 q 388 660 424 646 q 268 675 351 675 q 180 669 232 675 q 93 657 128 664 l 93 703 q 282 719 179 719 q 418 698 372 719 q 481 622 464 676 q 499 458 499 568 l 499 0 l 461 0 l 456 108 l 450 108 q 381 12 432 35 q 257 -11 329 -11 m 257 33 q 367 49 325 33 q 426 117 408 64 q 444 197 439 157 q 450 292 450 238 l 450 349 l 242 349 q 156 338 185 349 q 117 294 128 326 q 106 192 106 261 q 118 92 106 125 q 163 46 131 58 q 257 33 194 33 m 267 -176 l 267 -86 l 331 -86 l 331 -176 l 267 -176 m 156 840 l 156 847 l 267 1032 l 331 1032 l 442 847 l 442 840 l 404 840 l 299 990 l 193 840 l 156 840 z "},"ầ":{"ha":597,"x_min":57,"x_max":499,"o":"m 257 -11 q 141 5 183 -11 q 78 65 99 21 q 57 192 57 108 q 72 314 57 271 q 125 375 88 357 q 231 393 163 393 q 450 386 276 393 l 450 450 q 437 601 450 556 q 388 660 424 646 q 268 675 351 675 q 180 669 232 675 q 93 657 128 664 l 93 703 q 282 719 179 719 q 418 698 372 719 q 481 622 464 676 q 499 458 499 568 l 499 0 l 461 0 l 456 108 l 450 108 q 381 12 432 35 q 257 -11 329 -11 m 257 33 q 367 49 325 33 q 426 117 408 64 q 444 197 439 157 q 450 292 450 238 l 450 349 l 242 349 q 156 338 185 349 q 117 294 128 326 q 106 192 106 261 q 118 92 106 125 q 163 46 131 58 q 257 33 194 33 m 153 840 l 153 847 l 264 1032 l 328 1032 l 439 847 l 439 840 l 401 840 l 296 990 l 190 840 l 153 840 m 404 1032 l 300 1217 l 300 1224 l 358 1224 l 438 1039 l 438 1032 l 404 1032 z "},"ẩ":{"ha":597,"x_min":57,"x_max":536,"o":"m 257 -11 q 141 5 183 -11 q 78 65 99 21 q 57 192 57 108 q 72 314 57 271 q 125 375 88 357 q 231 393 163 393 q 450 386 276 393 l 450 450 q 437 601 450 556 q 388 660 424 646 q 268 675 351 675 q 180 669 232 675 q 93 657 128 664 l 93 703 q 282 719 179 719 q 418 698 372 719 q 481 622 464 676 q 499 458 499 568 l 499 0 l 461 0 l 456 108 l 450 108 q 381 12 432 35 q 257 -11 329 -11 m 257 33 q 367 49 325 33 q 426 117 408 64 q 444 197 439 157 q 450 292 450 238 l 450 349 l 242 349 q 156 338 185 349 q 117 294 128 326 q 106 192 106 261 q 118 92 106 125 q 163 46 131 58 q 257 33 194 33 m 156 840 l 156 847 l 267 1032 l 331 1032 l 442 847 l 442 840 l 404 840 l 299 990 l 193 840 l 156 840 m 356 1044 q 367 1085 356 1074 q 407 1106 378 1097 l 429 1111 q 481 1133 468 1122 q 493 1174 493 1144 q 485 1210 493 1199 q 457 1225 478 1221 q 390 1229 436 1229 q 276 1224 365 1229 l 276 1260 q 399 1268 357 1268 q 508 1249 479 1268 q 536 1181 536 1231 q 526 1121 536 1140 q 474 1088 515 1101 l 451 1082 q 412 1068 424 1074 q 397 1055 400 1063 q 394 1032 394 1047 l 356 1032 l 356 1044 z "},"ẫ":{"ha":597,"x_min":57,"x_max":499,"o":"m 257 -11 q 141 5 183 -11 q 78 65 99 21 q 57 192 57 108 q 72 314 57 271 q 125 375 88 357 q 231 393 163 393 q 450 386 276 393 l 450 450 q 437 601 450 556 q 388 660 424 646 q 268 675 351 675 q 180 669 232 675 q 93 657 128 664 l 93 703 q 282 719 179 719 q 418 698 372 719 q 481 622 464 676 q 499 458 499 568 l 499 0 l 461 0 l 456 108 l 450 108 q 381 12 432 35 q 257 -11 329 -11 m 257 33 q 367 49 325 33 q 426 117 408 64 q 444 197 439 157 q 450 292 450 238 l 450 349 l 242 349 q 156 338 185 349 q 117 294 128 326 q 106 192 106 261 q 118 92 106 125 q 163 46 131 58 q 257 33 194 33 m 153 840 l 153 847 l 264 1032 l 328 1032 l 439 847 l 439 840 l 401 840 l 296 990 l 190 840 l 153 840 m 482 1272 q 467 1169 482 1197 q 408 1140 451 1140 q 356 1149 382 1140 q 289 1178 331 1158 q 229 1203 250 1196 q 186 1211 208 1211 q 158 1193 164 1211 q 151 1125 151 1175 l 114 1125 q 128 1228 114 1200 q 186 1257 143 1257 q 240 1247 214 1257 q 310 1218 267 1238 q 363 1194 340 1203 q 408 1186 386 1186 q 438 1205 431 1186 q 444 1272 444 1224 l 482 1272 z "},"ȁ":{"ha":597,"x_min":57,"x_max":499,"o":"m 257 -11 q 141 5 183 -11 q 78 65 99 21 q 57 192 57 108 q 72 314 57 271 q 125 375 88 357 q 231 393 163 393 q 450 386 276 393 l 450 450 q 437 601 450 556 q 388 660 424 646 q 268 675 351 675 q 180 669 232 675 q 93 657 128 664 l 93 703 q 282 719 179 719 q 418 698 372 719 q 481 622 464 676 q 499 458 499 568 l 499 0 l 461 0 l 456 108 l 450 108 q 381 12 432 35 q 257 -11 329 -11 m 257 33 q 367 49 325 33 q 426 117 408 64 q 444 197 439 157 q 450 292 450 238 l 450 349 l 242 349 q 156 338 185 349 q 117 294 128 326 q 106 192 106 261 q 118 92 106 125 q 163 46 131 58 q 257 33 194 33 m 229 846 l 196 846 l 94 1013 l 94 1019 l 151 1019 l 229 853 l 229 846 m 411 846 l 378 846 l 275 1013 l 275 1019 l 333 1019 l 411 853 l 411 846 z "},"ä":{"ha":597,"x_min":57,"x_max":499,"o":"m 257 -11 q 141 5 183 -11 q 78 65 99 21 q 57 192 57 108 q 72 314 57 271 q 125 375 88 357 q 231 393 163 393 q 450 386 276 393 l 450 450 q 437 601 450 556 q 388 660 424 646 q 268 675 351 675 q 180 669 232 675 q 93 657 128 664 l 93 703 q 282 719 179 719 q 418 698 372 719 q 481 622 464 676 q 499 458 499 568 l 499 0 l 461 0 l 456 108 l 450 108 q 381 12 432 35 q 257 -11 329 -11 m 257 33 q 367 49 325 33 q 426 117 408 64 q 444 197 439 157 q 450 292 450 238 l 450 349 l 242 349 q 156 338 185 349 q 117 294 128 326 q 106 192 106 261 q 118 92 106 125 q 163 46 131 58 q 257 33 194 33 m 151 929 l 151 1014 l 210 1014 l 210 929 l 151 929 m 392 929 l 392 1014 l 450 1014 l 450 929 l 392 929 z "},"ạ":{"ha":597,"x_min":57,"x_max":499,"o":"m 257 -11 q 141 5 183 -11 q 78 65 99 21 q 57 192 57 108 q 72 314 57 271 q 125 375 88 357 q 231 393 163 393 q 450 386 276 393 l 450 450 q 437 601 450 556 q 388 660 424 646 q 268 675 351 675 q 180 669 232 675 q 93 657 128 664 l 93 703 q 282 719 179 719 q 418 698 372 719 q 481 622 464 676 q 499 458 499 568 l 499 0 l 461 0 l 456 108 l 450 108 q 381 12 432 35 q 257 -11 329 -11 m 257 33 q 367 49 325 33 q 426 117 408 64 q 444 197 439 157 q 450 292 450 238 l 450 349 l 242 349 q 156 338 185 349 q 117 294 128 326 q 106 192 106 261 q 118 92 106 125 q 163 46 131 58 q 257 33 194 33 m 267 -176 l 267 -86 l 331 -86 l 331 -176 l 267 -176 z "},"à":{"ha":597,"x_min":57,"x_max":499,"o":"m 257 -11 q 141 5 183 -11 q 78 65 99 21 q 57 192 57 108 q 72 314 57 271 q 125 375 88 357 q 231 393 163 393 q 450 386 276 393 l 450 450 q 437 601 450 556 q 388 660 424 646 q 268 675 351 675 q 180 669 232 675 q 93 657 128 664 l 93 703 q 282 719 179 719 q 418 698 372 719 q 481 622 464 676 q 499 458 499 568 l 499 0 l 461 0 l 456 108 l 450 108 q 381 12 432 35 q 257 -11 329 -11 m 257 33 q 367 49 325 33 q 426 117 408 64 q 444 197 439 157 q 450 292 450 238 l 450 349 l 242 349 q 156 338 185 349 q 117 294 128 326 q 106 192 106 261 q 118 92 106 125 q 163 46 131 58 q 257 33 194 33 m 297 840 l 193 1025 l 193 1032 l 251 1032 l 331 847 l 331 840 l 297 840 z "},"ả":{"ha":597,"x_min":57,"x_max":499,"o":"m 257 -11 q 141 5 183 -11 q 78 65 99 21 q 57 192 57 108 q 72 314 57 271 q 125 375 88 357 q 231 393 163 393 q 450 386 276 393 l 450 450 q 437 601 450 556 q 388 660 424 646 q 268 675 351 675 q 180 669 232 675 q 93 657 128 664 l 93 703 q 282 719 179 719 q 418 698 372 719 q 481 622 464 676 q 499 458 499 568 l 499 0 l 461 0 l 456 108 l 450 108 q 381 12 432 35 q 257 -11 329 -11 m 257 33 q 367 49 325 33 q 426 117 408 64 q 444 197 439 157 q 450 292 450 238 l 450 349 l 242 349 q 156 338 185 349 q 117 294 128 326 q 106 192 106 261 q 118 92 106 125 q 163 46 131 58 q 257 33 194 33 m 247 858 q 258 899 247 888 q 299 919 269 911 l 321 925 q 372 947 360 936 q 385 988 385 958 q 377 1024 385 1013 q 349 1039 369 1035 q 282 1043 328 1043 q 168 1038 257 1043 l 168 1074 q 290 1082 249 1082 q 399 1063 371 1082 q 428 994 428 1044 q 417 935 428 954 q 365 901 407 915 l 343 896 q 303 882 315 888 q 289 869 292 876 q 286 846 286 861 l 247 846 l 247 858 z "},"ȃ":{"ha":597,"x_min":57,"x_max":499,"o":"m 257 -11 q 141 5 183 -11 q 78 65 99 21 q 57 192 57 108 q 72 314 57 271 q 125 375 88 357 q 231 393 163 393 q 450 386 276 393 l 450 450 q 437 601 450 556 q 388 660 424 646 q 268 675 351 675 q 180 669 232 675 q 93 657 128 664 l 93 703 q 282 719 179 719 q 418 698 372 719 q 481 622 464 676 q 499 458 499 568 l 499 0 l 461 0 l 456 108 l 450 108 q 381 12 432 35 q 257 -11 329 -11 m 257 33 q 367 49 325 33 q 426 117 408 64 q 444 197 439 157 q 450 292 450 238 l 450 349 l 242 349 q 156 338 185 349 q 117 294 128 326 q 106 192 106 261 q 118 92 106 125 q 163 46 131 58 q 257 33 194 33 m 153 844 q 160 955 153 917 q 198 1017 167 993 q 297 1040 229 1040 q 396 1017 365 1040 q 433 955 426 993 q 440 844 440 917 l 396 844 q 391 938 396 907 q 365 985 386 968 q 297 1001 344 1001 q 229 985 250 1001 q 203 938 208 968 q 197 844 197 907 l 153 844 z "},"ā":{"ha":597,"x_min":57,"x_max":499,"o":"m 257 -11 q 141 5 183 -11 q 78 65 99 21 q 57 192 57 108 q 72 314 57 271 q 125 375 88 357 q 231 393 163 393 q 450 386 276 393 l 450 450 q 437 601 450 556 q 388 660 424 646 q 268 675 351 675 q 180 669 232 675 q 93 657 128 664 l 93 703 q 282 719 179 719 q 418 698 372 719 q 481 622 464 676 q 499 458 499 568 l 499 0 l 461 0 l 456 108 l 450 108 q 381 12 432 35 q 257 -11 329 -11 m 257 33 q 367 49 325 33 q 426 117 408 64 q 444 197 439 157 q 450 292 450 238 l 450 349 l 242 349 q 156 338 185 349 q 117 294 128 326 q 106 192 106 261 q 118 92 106 125 q 163 46 131 58 q 257 33 194 33 m 171 982 l 171 1032 l 426 1032 l 426 982 l 171 982 z "},"ą":{"ha":597,"x_min":57,"x_max":504,"o":"m 504 -226 l 504 -271 q 474 -272 492 -272 q 394 -245 419 -272 q 368 -174 368 -218 q 394 -81 368 -129 q 461 8 419 -32 l 456 108 l 450 108 q 381 12 432 35 q 257 -11 329 -11 q 141 5 183 -11 q 78 65 99 21 q 57 192 57 108 q 72 314 57 271 q 125 375 88 357 q 231 393 163 393 q 450 386 276 393 l 450 450 q 437 601 450 556 q 388 660 424 646 q 268 675 351 675 q 180 669 232 675 q 93 657 128 664 l 93 703 q 282 719 179 719 q 418 698 372 719 q 481 622 464 676 q 499 458 499 568 l 499 0 q 442 -74 469 -25 q 415 -165 415 -124 q 481 -228 415 -228 l 504 -226 m 450 349 l 242 349 q 156 338 185 349 q 117 294 128 326 q 106 192 106 261 q 118 92 106 125 q 163 46 131 58 q 257 33 194 33 q 367 49 325 33 q 426 117 408 64 q 444 197 439 157 q 450 292 450 238 l 450 349 z "},"å":{"ha":597,"x_min":57,"x_max":499,"o":"m 257 -11 q 141 5 183 -11 q 78 65 99 21 q 57 192 57 108 q 72 314 57 271 q 125 375 88 357 q 231 393 163 393 q 450 386 276 393 l 450 450 q 437 601 450 556 q 388 660 424 646 q 268 675 351 675 q 180 669 232 675 q 93 657 128 664 l 93 703 q 282 719 179 719 q 418 698 372 719 q 481 622 464 676 q 499 458 499 568 l 499 0 l 461 0 l 456 108 l 450 108 q 381 12 432 35 q 257 -11 329 -11 m 257 33 q 367 49 325 33 q 426 117 408 64 q 444 197 439 157 q 450 292 450 238 l 450 349 l 242 349 q 156 338 185 349 q 117 294 128 326 q 106 192 106 261 q 118 92 106 125 q 163 46 131 58 q 257 33 194 33 m 297 857 q 214 868 240 857 q 180 903 188 879 q 172 979 172 928 q 180 1055 172 1031 q 214 1091 188 1079 q 297 1103 240 1103 q 382 1091 356 1103 q 417 1054 408 1079 q 425 979 425 1029 q 417 904 425 929 q 382 868 408 879 q 297 857 356 857 m 297 896 q 353 903 336 896 q 374 926 369 910 q 379 979 379 943 q 374 1032 379 1015 q 352 1056 369 1049 q 297 1064 335 1064 q 243 1056 260 1064 q 222 1032 226 1049 q 218 979 218 1015 q 222 926 218 943 q 243 903 226 910 q 297 896 260 896 z "},"ǻ":{"ha":597,"x_min":57,"x_max":499,"o":"m 257 -11 q 141 5 183 -11 q 78 65 99 21 q 57 192 57 108 q 72 314 57 271 q 125 375 88 357 q 231 393 163 393 q 450 386 276 393 l 450 450 q 437 601 450 556 q 388 660 424 646 q 268 675 351 675 q 180 669 232 675 q 93 657 128 664 l 93 703 q 282 719 179 719 q 418 698 372 719 q 481 622 464 676 q 499 458 499 568 l 499 0 l 461 0 l 456 108 l 450 108 q 381 12 432 35 q 257 -11 329 -11 m 257 33 q 367 49 325 33 q 426 117 408 64 q 444 197 439 157 q 450 292 450 238 l 450 349 l 242 349 q 156 338 185 349 q 117 294 128 326 q 106 192 106 261 q 118 92 106 125 q 163 46 131 58 q 257 33 194 33 m 297 857 q 214 868 240 857 q 180 903 188 879 q 172 979 172 928 q 180 1055 172 1031 q 214 1091 188 1079 q 297 1103 240 1103 q 382 1091 356 1103 q 417 1054 408 1079 q 425 979 425 1029 q 417 904 425 929 q 382 868 408 879 q 297 857 356 857 m 297 896 q 353 903 336 896 q 374 926 369 910 q 379 979 379 943 q 374 1032 379 1015 q 352 1056 369 1049 q 297 1064 335 1064 q 243 1056 260 1064 q 222 1032 226 1049 q 218 979 218 1015 q 222 926 218 943 q 243 903 226 910 q 297 896 260 896 m 281 1151 l 281 1158 l 360 1343 l 418 1343 l 418 1336 l 314 1151 l 281 1151 z "},"ã":{"ha":597,"x_min":57,"x_max":499,"o":"m 257 -11 q 141 5 183 -11 q 78 65 99 21 q 57 192 57 108 q 72 314 57 271 q 125 375 88 357 q 231 393 163 393 q 450 386 276 393 l 450 450 q 437 601 450 556 q 388 660 424 646 q 268 675 351 675 q 180 669 232 675 q 93 657 128 664 l 93 703 q 282 719 179 719 q 418 698 372 719 q 481 622 464 676 q 499 458 499 568 l 499 0 l 461 0 l 456 108 l 450 108 q 381 12 432 35 q 257 -11 329 -11 m 257 33 q 367 49 325 33 q 426 117 408 64 q 444 197 439 157 q 450 292 450 238 l 450 349 l 242 349 q 156 338 185 349 q 117 294 128 326 q 106 192 106 261 q 118 92 106 125 q 163 46 131 58 q 257 33 194 33 m 483 1032 q 468 928 483 957 q 410 900 453 900 q 358 909 383 900 q 290 938 332 918 q 231 963 251 956 q 188 971 210 971 q 159 953 165 971 q 153 885 153 935 l 115 885 q 130 988 115 960 q 188 1017 144 1017 q 242 1007 215 1017 q 311 978 268 997 q 365 954 342 963 q 410 946 388 946 q 439 965 432 946 q 446 1032 446 983 l 483 1032 z "},"æ":{"ha":972,"x_min":57,"x_max":896,"o":"m 896 343 l 499 343 q 511 145 499 207 q 563 58 524 83 q 692 33 603 33 q 787 39 735 33 q 875 53 839 44 l 875 7 q 791 -6 844 0 q 686 -11 738 -11 q 538 17 588 -11 q 469 119 489 46 q 391 14 446 39 q 257 -11 336 -11 q 141 5 183 -11 q 78 65 99 21 q 57 192 57 108 q 72 310 57 268 q 125 369 88 351 q 231 388 163 388 l 450 388 l 450 450 q 437 601 450 556 q 388 660 424 646 q 268 675 351 675 q 180 669 232 675 q 93 657 128 664 l 93 703 q 282 719 179 719 q 414 699 369 719 q 478 625 458 679 q 548 698 500 676 q 686 719 596 719 q 828 689 785 719 q 884 588 872 658 q 896 361 896 517 l 896 343 m 683 675 q 559 655 596 675 q 510 578 522 635 q 499 388 499 521 l 847 388 l 847 411 q 833 585 847 531 q 786 658 819 640 q 683 675 753 675 m 450 343 l 242 343 q 156 333 183 343 q 117 290 128 322 q 106 192 106 258 q 118 92 106 125 q 163 46 131 58 q 257 33 194 33 q 367 49 325 33 q 428 121 410 65 q 450 292 450 189 l 450 343 z "},"ǽ":{"ha":972,"x_min":57,"x_max":896,"o":"m 896 343 l 499 343 q 511 145 499 207 q 563 58 524 83 q 692 33 603 33 q 787 39 735 33 q 875 53 839 44 l 875 7 q 791 -6 844 0 q 686 -11 738 -11 q 538 17 588 -11 q 469 119 489 46 q 391 14 446 39 q 257 -11 336 -11 q 141 5 183 -11 q 78 65 99 21 q 57 192 57 108 q 72 310 57 268 q 125 369 88 351 q 231 388 163 388 l 450 388 l 450 450 q 437 601 450 556 q 388 660 424 646 q 268 675 351 675 q 180 669 232 675 q 93 657 128 664 l 93 703 q 282 719 179 719 q 414 699 369 719 q 478 625 458 679 q 548 698 500 676 q 686 719 596 719 q 828 689 785 719 q 884 588 872 658 q 896 361 896 517 l 896 343 m 683 675 q 559 655 596 675 q 510 578 522 635 q 499 388 499 521 l 847 388 l 847 411 q 833 585 847 531 q 786 658 819 640 q 683 675 753 675 m 450 343 l 242 343 q 156 333 183 343 q 117 290 128 322 q 106 192 106 258 q 118 92 106 125 q 163 46 131 58 q 257 33 194 33 q 367 49 325 33 q 428 121 410 65 q 450 292 450 189 l 450 343 m 465 840 l 465 847 l 544 1032 l 603 1032 l 603 1025 l 499 840 l 465 840 z "},"b":{"ha":632,"x_min":101,"x_max":556,"o":"m 338 -11 q 217 13 264 -11 q 150 108 169 36 l 144 108 l 139 0 l 101 0 l 101 1032 l 150 1032 l 150 613 l 156 613 q 217 694 172 669 q 338 719 261 719 q 477 690 432 719 q 539 585 522 660 q 556 354 556 510 q 539 124 556 200 q 476 19 522 49 q 338 -11 431 -11 m 328 33 q 446 56 410 33 q 494 142 482 78 q 507 354 507 207 q 494 566 507 501 q 446 653 482 631 q 328 675 410 675 q 221 649 260 675 q 168 568 182 624 q 153 475 157 524 q 150 354 150 426 q 153 233 150 281 q 167 143 156 186 q 220 60 181 86 q 328 33 260 33 z "},"c":{"ha":490,"x_min":76,"x_max":439,"o":"m 439 6 q 374 -6 414 -1 q 297 -11 333 -11 q 151 24 197 -11 q 90 132 104 58 q 76 353 76 206 q 94 582 76 506 q 157 689 111 658 q 293 719 203 719 q 367 715 326 719 q 433 704 408 711 l 433 658 q 368 670 406 665 q 300 675 331 675 q 186 649 222 675 q 138 558 150 624 q 125 356 125 493 q 138 147 125 213 q 187 58 150 82 q 303 33 224 33 q 376 38 338 33 q 439 51 414 43 l 439 6 z "},"ć":{"ha":490,"x_min":76,"x_max":439,"o":"m 439 6 q 374 -6 414 -1 q 297 -11 333 -11 q 151 24 197 -11 q 90 132 104 58 q 76 353 76 206 q 94 582 76 506 q 157 689 111 658 q 293 719 203 719 q 367 715 326 719 q 433 704 408 711 l 433 658 q 368 670 406 665 q 300 675 331 675 q 186 649 222 675 q 138 558 150 624 q 125 356 125 493 q 138 147 125 213 q 187 58 150 82 q 303 33 224 33 q 376 38 338 33 q 439 51 414 43 l 439 6 m 225 840 l 225 847 l 304 1032 l 363 1032 l 363 1025 l 258 840 l 225 840 z "},"č":{"ha":490,"x_min":76,"x_max":439,"o":"m 439 6 q 374 -6 414 -1 q 297 -11 333 -11 q 151 24 197 -11 q 90 132 104 58 q 76 353 76 206 q 94 582 76 506 q 157 689 111 658 q 293 719 203 719 q 367 715 326 719 q 433 704 408 711 l 433 658 q 368 670 406 665 q 300 675 331 675 q 186 649 222 675 q 138 558 150 624 q 125 356 125 493 q 138 147 125 213 q 187 58 150 82 q 303 33 224 33 q 376 38 338 33 q 439 51 414 43 l 439 6 m 214 840 l 103 1025 l 103 1032 l 140 1032 l 246 882 l 351 1032 l 389 1032 l 389 1025 l 278 840 l 214 840 z "},"ç":{"ha":490,"x_min":76,"x_max":439,"o":"m 303 33 q 376 38 338 33 q 439 51 414 43 l 439 6 q 374 -6 414 -1 q 297 -11 333 -11 q 263 -10 274 -11 l 204 -264 l 149 -264 l 149 -257 l 224 -6 q 127 47 158 7 q 86 156 96 86 q 76 353 76 225 q 94 582 76 506 q 157 689 111 658 q 293 719 203 719 q 367 715 326 719 q 433 704 408 711 l 433 658 q 368 670 406 665 q 300 675 331 675 q 186 649 222 675 q 138 558 150 624 q 125 356 125 493 q 138 147 125 213 q 187 58 150 82 q 303 33 224 33 z "},"ĉ":{"ha":490,"x_min":76,"x_max":439,"o":"m 439 6 q 374 -6 414 -1 q 297 -11 333 -11 q 151 24 197 -11 q 90 132 104 58 q 76 353 76 206 q 94 582 76 506 q 157 689 111 658 q 293 719 203 719 q 367 715 326 719 q 433 704 408 711 l 433 658 q 368 670 406 665 q 300 675 331 675 q 186 649 222 675 q 138 558 150 624 q 125 356 125 493 q 138 147 125 213 q 187 58 150 82 q 303 33 224 33 q 376 38 338 33 q 439 51 414 43 l 439 6 m 103 840 l 103 847 l 214 1032 l 278 1032 l 389 847 l 389 840 l 351 840 l 246 990 l 140 840 l 103 840 z "},"ċ":{"ha":490,"x_min":76,"x_max":439,"o":"m 439 6 q 374 -6 414 -1 q 297 -11 333 -11 q 151 24 197 -11 q 90 132 104 58 q 76 353 76 206 q 94 582 76 506 q 157 689 111 658 q 293 719 203 719 q 367 715 326 719 q 433 704 408 711 l 433 658 q 368 670 406 665 q 300 675 331 675 q 186 649 222 675 q 138 558 150 624 q 125 356 125 493 q 138 147 125 213 q 187 58 150 82 q 303 33 224 33 q 376 38 338 33 q 439 51 414 43 l 439 6 m 217 929 l 217 1014 l 274 1014 l 274 929 l 217 929 z "},"d":{"ha":632,"x_min":76,"x_max":531,"o":"m 294 -11 q 155 19 200 -11 q 93 124 110 49 q 76 354 76 199 q 93 585 76 510 q 155 690 110 660 q 294 719 200 719 q 415 694 371 719 q 476 613 460 669 l 482 613 l 482 1032 l 531 1032 l 531 0 l 492 0 l 488 108 l 482 108 q 415 13 463 36 q 294 -11 368 -11 m 304 33 q 412 59 372 33 q 465 139 451 85 q 479 235 476 185 q 482 374 482 286 q 468 556 482 493 q 411 647 451 619 q 299 675 371 675 q 185 653 219 675 q 138 566 150 631 q 125 354 125 501 q 138 142 125 207 q 186 56 150 78 q 304 33 222 33 z "},"ð":{"ha":615,"x_min":76,"x_max":539,"o":"m 307 -11 q 150 18 197 -11 q 90 118 103 47 q 76 353 76 189 q 90 591 76 519 q 149 691 103 663 q 307 719 196 719 q 458 669 411 719 l 465 672 q 381 899 433 803 l 236 875 l 236 919 l 356 938 q 286 1026 328 978 l 286 1032 l 343 1032 q 408 947 388 979 l 518 965 l 518 921 l 432 907 q 496 742 469 835 q 531 564 522 650 q 539 388 539 479 q 527 128 539 203 q 468 21 515 53 q 307 -11 421 -11 m 307 33 q 436 58 399 33 q 482 142 474 83 q 490 353 490 201 q 481 546 490 485 q 434 641 472 607 q 307 675 396 675 q 178 651 215 675 q 133 568 142 628 q 125 353 125 508 q 133 142 125 201 q 178 58 142 83 q 307 33 215 33 z "},"ď":{"ha":632,"x_min":76,"x_max":654,"o":"m 294 -11 q 155 19 200 -11 q 93 124 110 49 q 76 354 76 199 q 93 585 76 510 q 155 690 110 660 q 294 719 200 719 q 415 694 371 719 q 476 613 460 669 l 482 613 l 482 1032 l 531 1032 l 531 0 l 492 0 l 488 108 l 482 108 q 415 13 463 36 q 294 -11 368 -11 m 304 33 q 412 59 372 33 q 465 139 451 85 q 479 235 476 185 q 482 374 482 286 q 468 556 482 493 q 411 647 451 619 q 299 675 371 675 q 185 653 219 675 q 138 566 150 631 q 125 354 125 501 q 138 142 125 207 q 186 56 150 78 q 304 33 222 33 m 583 631 l 600 832 l 600 956 l 654 956 l 654 832 l 615 631 l 583 631 z "},"đ":{"ha":632,"x_min":76,"x_max":613,"o":"m 613 911 l 531 911 l 531 0 l 492 0 l 488 108 l 482 108 q 415 13 463 36 q 294 -11 368 -11 q 155 19 200 -11 q 93 124 110 49 q 76 354 76 199 q 93 585 76 510 q 155 690 110 660 q 294 719 200 719 q 415 694 371 719 q 476 613 460 669 l 482 613 l 482 911 l 304 911 l 304 956 l 482 956 l 482 1032 l 531 1032 l 531 956 l 613 956 l 613 911 m 465 139 q 479 235 476 185 q 482 374 482 286 q 468 556 482 493 q 411 647 451 619 q 299 675 371 675 q 185 653 219 675 q 138 566 150 631 q 125 354 125 501 q 138 142 125 207 q 186 56 150 78 q 304 33 222 33 q 412 59 372 33 q 465 139 451 85 z "},"ḍ":{"ha":632,"x_min":76,"x_max":531,"o":"m 294 -11 q 155 19 200 -11 q 93 124 110 49 q 76 354 76 199 q 93 585 76 510 q 155 690 110 660 q 294 719 200 719 q 415 694 371 719 q 476 613 460 669 l 482 613 l 482 1032 l 531 1032 l 531 0 l 492 0 l 488 108 l 482 108 q 415 13 463 36 q 294 -11 368 -11 m 304 33 q 412 59 372 33 q 465 139 451 85 q 479 235 476 185 q 482 374 482 286 q 468 556 482 493 q 411 647 451 619 q 299 675 371 675 q 185 653 219 675 q 138 566 150 631 q 125 354 125 501 q 138 142 125 207 q 186 56 150 78 q 304 33 222 33 m 283 -176 l 283 -86 l 347 -86 l 347 -176 l 283 -176 z "},"ǳ":{"ha":1136,"x_min":76,"x_max":1086,"o":"m 294 -11 q 155 19 200 -11 q 93 124 110 49 q 76 354 76 199 q 93 585 76 510 q 155 690 110 660 q 294 719 200 719 q 415 694 371 719 q 476 613 460 669 l 482 613 l 482 1032 l 531 1032 l 531 0 l 492 0 l 488 108 l 482 108 q 415 13 463 36 q 294 -11 368 -11 m 304 33 q 412 59 372 33 q 465 139 451 85 q 479 235 476 185 q 482 374 482 286 q 468 556 482 493 q 411 647 451 619 q 299 675 371 675 q 185 653 219 675 q 138 566 150 631 q 125 354 125 501 q 138 142 125 207 q 186 56 150 78 q 304 33 222 33 m 682 0 l 682 39 l 1026 664 l 693 664 l 693 708 l 1085 708 l 1085 669 l 740 44 l 1086 44 l 1086 0 l 682 0 z "},"ǆ":{"ha":1136,"x_min":76,"x_max":1086,"o":"m 294 -11 q 155 19 200 -11 q 93 124 110 49 q 76 354 76 199 q 93 585 76 510 q 155 690 110 660 q 294 719 200 719 q 415 694 371 719 q 476 613 460 669 l 482 613 l 482 1032 l 531 1032 l 531 0 l 492 0 l 488 108 l 482 108 q 415 13 463 36 q 294 -11 368 -11 m 304 33 q 412 59 372 33 q 465 139 451 85 q 479 235 476 185 q 482 374 482 286 q 468 556 482 493 q 411 647 451 619 q 299 675 371 675 q 185 653 219 675 q 138 566 150 631 q 125 354 125 501 q 138 142 125 207 q 186 56 150 78 q 304 33 222 33 m 682 0 l 682 39 l 1026 664 l 693 664 l 693 708 l 1085 708 l 1085 669 l 740 44 l 1086 44 l 1086 0 l 682 0 m 849 840 l 738 1025 l 738 1032 l 775 1032 l 881 882 l 986 1032 l 1024 1032 l 1024 1025 l 913 840 l 849 840 z "},"e":{"ha":597,"x_min":76,"x_max":522,"o":"m 522 338 l 125 338 q 138 144 125 204 q 190 58 150 83 q 318 33 229 33 q 413 39 361 33 q 501 53 465 44 l 501 7 q 416 -6 469 0 q 313 -11 363 -11 q 159 19 208 -11 q 93 123 110 49 q 76 353 76 197 q 89 582 76 511 q 151 686 101 653 q 313 719 200 719 q 455 688 411 719 q 510 585 499 657 q 522 356 522 514 l 522 338 m 308 675 q 185 654 222 675 q 137 576 149 633 q 125 382 125 518 l 474 382 l 474 411 q 459 585 474 531 q 411 658 444 640 q 308 675 378 675 z "},"é":{"ha":597,"x_min":76,"x_max":522,"o":"m 522 338 l 125 338 q 138 144 125 204 q 190 58 150 83 q 318 33 229 33 q 413 39 361 33 q 501 53 465 44 l 501 7 q 416 -6 469 0 q 313 -11 363 -11 q 159 19 208 -11 q 93 123 110 49 q 76 353 76 197 q 89 582 76 511 q 151 686 101 653 q 313 719 200 719 q 455 688 411 719 q 510 585 499 657 q 522 356 522 514 l 522 338 m 308 675 q 185 654 222 675 q 137 576 149 633 q 125 382 125 518 l 474 382 l 474 411 q 459 585 474 531 q 411 658 444 640 q 308 675 378 675 m 285 840 l 285 847 l 364 1032 l 422 1032 l 422 1025 l 318 840 l 285 840 z "},"ĕ":{"ha":597,"x_min":76,"x_max":522,"o":"m 522 338 l 125 338 q 138 144 125 204 q 190 58 150 83 q 318 33 229 33 q 413 39 361 33 q 501 53 465 44 l 501 7 q 416 -6 469 0 q 313 -11 363 -11 q 159 19 208 -11 q 93 123 110 49 q 76 353 76 197 q 89 582 76 511 q 151 686 101 653 q 313 719 200 719 q 455 688 411 719 q 510 585 499 657 q 522 356 522 514 l 522 338 m 308 675 q 185 654 222 675 q 137 576 149 633 q 125 382 125 518 l 474 382 l 474 411 q 459 585 474 531 q 411 658 444 640 q 308 675 378 675 m 442 1032 q 435 922 442 960 q 397 860 428 883 q 297 836 365 836 q 199 860 229 836 q 161 922 168 883 q 154 1032 154 960 l 199 1032 q 203 939 199 969 q 229 892 208 908 q 297 875 250 875 q 365 892 344 875 q 392 939 386 908 q 397 1032 397 969 l 442 1032 z "},"ě":{"ha":597,"x_min":76,"x_max":522,"o":"m 522 338 l 125 338 q 138 144 125 204 q 190 58 150 83 q 318 33 229 33 q 413 39 361 33 q 501 53 465 44 l 501 7 q 416 -6 469 0 q 313 -11 363 -11 q 159 19 208 -11 q 93 123 110 49 q 76 353 76 197 q 89 582 76 511 q 151 686 101 653 q 313 719 200 719 q 455 688 411 719 q 510 585 499 657 q 522 356 522 514 l 522 338 m 308 675 q 185 654 222 675 q 137 576 149 633 q 125 382 125 518 l 474 382 l 474 411 q 459 585 474 531 q 411 658 444 640 q 308 675 378 675 m 267 840 l 156 1025 l 156 1032 l 193 1032 l 299 882 l 404 1032 l 442 1032 l 442 1025 l 331 840 l 267 840 z "},"ê":{"ha":597,"x_min":76,"x_max":522,"o":"m 522 338 l 125 338 q 138 144 125 204 q 190 58 150 83 q 318 33 229 33 q 413 39 361 33 q 501 53 465 44 l 501 7 q 416 -6 469 0 q 313 -11 363 -11 q 159 19 208 -11 q 93 123 110 49 q 76 353 76 197 q 89 582 76 511 q 151 686 101 653 q 313 719 200 719 q 455 688 411 719 q 510 585 499 657 q 522 356 522 514 l 522 338 m 308 675 q 185 654 222 675 q 137 576 149 633 q 125 382 125 518 l 474 382 l 474 411 q 459 585 474 531 q 411 658 444 640 q 308 675 378 675 m 158 840 l 158 847 l 269 1032 l 333 1032 l 444 847 l 444 840 l 407 840 l 301 990 l 196 840 l 158 840 z "},"ế":{"ha":597,"x_min":76,"x_max":525,"o":"m 522 338 l 125 338 q 138 144 125 204 q 190 58 150 83 q 318 33 229 33 q 413 39 361 33 q 501 53 465 44 l 501 7 q 416 -6 469 0 q 313 -11 363 -11 q 159 19 208 -11 q 93 123 110 49 q 76 353 76 197 q 89 582 76 511 q 151 686 101 653 q 313 719 200 719 q 455 688 411 719 q 510 585 499 657 q 522 356 522 514 l 522 338 m 308 675 q 185 654 222 675 q 137 576 149 633 q 125 382 125 518 l 474 382 l 474 411 q 459 585 474 531 q 411 658 444 640 q 308 675 378 675 m 153 840 l 153 847 l 264 1032 l 328 1032 l 439 847 l 439 840 l 401 840 l 296 990 l 190 840 l 153 840 m 388 1032 l 388 1039 l 467 1224 l 525 1224 l 525 1217 l 421 1032 l 388 1032 z "},"ệ":{"ha":597,"x_min":76,"x_max":522,"o":"m 522 338 l 125 338 q 138 144 125 204 q 190 58 150 83 q 318 33 229 33 q 413 39 361 33 q 501 53 465 44 l 501 7 q 416 -6 469 0 q 313 -11 363 -11 q 159 19 208 -11 q 93 123 110 49 q 76 353 76 197 q 89 582 76 511 q 151 686 101 653 q 313 719 200 719 q 455 688 411 719 q 510 585 499 657 q 522 356 522 514 l 522 338 m 308 675 q 185 654 222 675 q 137 576 149 633 q 125 382 125 518 l 474 382 l 474 411 q 459 585 474 531 q 411 658 444 640 q 308 675 378 675 m 267 -176 l 267 -86 l 331 -86 l 331 -176 l 267 -176 m 156 840 l 156 847 l 267 1032 l 331 1032 l 442 847 l 442 840 l 404 840 l 299 990 l 193 840 l 156 840 z "},"ề":{"ha":597,"x_min":76,"x_max":522,"o":"m 522 338 l 125 338 q 138 144 125 204 q 190 58 150 83 q 318 33 229 33 q 413 39 361 33 q 501 53 465 44 l 501 7 q 416 -6 469 0 q 313 -11 363 -11 q 159 19 208 -11 q 93 123 110 49 q 76 353 76 197 q 89 582 76 511 q 151 686 101 653 q 313 719 200 719 q 455 688 411 719 q 510 585 499 657 q 522 356 522 514 l 522 338 m 308 675 q 185 654 222 675 q 137 576 149 633 q 125 382 125 518 l 474 382 l 474 411 q 459 585 474 531 q 411 658 444 640 q 308 675 378 675 m 153 840 l 153 847 l 264 1032 l 328 1032 l 439 847 l 439 840 l 401 840 l 296 990 l 190 840 l 153 840 m 404 1032 l 300 1217 l 300 1224 l 358 1224 l 438 1039 l 438 1032 l 404 1032 z "},"ể":{"ha":597,"x_min":76,"x_max":536,"o":"m 522 338 l 125 338 q 138 144 125 204 q 190 58 150 83 q 318 33 229 33 q 413 39 361 33 q 501 53 465 44 l 501 7 q 416 -6 469 0 q 313 -11 363 -11 q 159 19 208 -11 q 93 123 110 49 q 76 353 76 197 q 89 582 76 511 q 151 686 101 653 q 313 719 200 719 q 455 688 411 719 q 510 585 499 657 q 522 356 522 514 l 522 338 m 308 675 q 185 654 222 675 q 137 576 149 633 q 125 382 125 518 l 474 382 l 474 411 q 459 585 474 531 q 411 658 444 640 q 308 675 378 675 m 156 840 l 156 847 l 267 1032 l 331 1032 l 442 847 l 442 840 l 404 840 l 299 990 l 193 840 l 156 840 m 356 1044 q 367 1085 356 1074 q 407 1106 378 1097 l 429 1111 q 481 1133 468 1122 q 493 1174 493 1144 q 485 1210 493 1199 q 457 1225 478 1221 q 390 1229 436 1229 q 276 1224 365 1229 l 276 1260 q 399 1268 357 1268 q 508 1249 479 1268 q 536 1181 536 1231 q 526 1121 536 1140 q 474 1088 515 1101 l 451 1082 q 412 1068 424 1074 q 397 1055 400 1063 q 394 1032 394 1047 l 356 1032 l 356 1044 z "},"ễ":{"ha":597,"x_min":76,"x_max":522,"o":"m 522 338 l 125 338 q 138 144 125 204 q 190 58 150 83 q 318 33 229 33 q 413 39 361 33 q 501 53 465 44 l 501 7 q 416 -6 469 0 q 313 -11 363 -11 q 159 19 208 -11 q 93 123 110 49 q 76 353 76 197 q 89 582 76 511 q 151 686 101 653 q 313 719 200 719 q 455 688 411 719 q 510 585 499 657 q 522 356 522 514 l 522 338 m 308 675 q 185 654 222 675 q 137 576 149 633 q 125 382 125 518 l 474 382 l 474 411 q 459 585 474 531 q 411 658 444 640 q 308 675 378 675 m 153 840 l 153 847 l 264 1032 l 328 1032 l 439 847 l 439 840 l 401 840 l 296 990 l 190 840 l 153 840 m 482 1272 q 467 1169 482 1197 q 408 1140 451 1140 q 356 1149 382 1140 q 289 1178 331 1158 q 229 1203 250 1196 q 186 1211 208 1211 q 158 1193 164 1211 q 151 1125 151 1175 l 114 1125 q 128 1228 114 1200 q 186 1257 143 1257 q 240 1247 214 1257 q 310 1218 267 1238 q 363 1194 340 1203 q 408 1186 386 1186 q 438 1205 431 1186 q 444 1272 444 1224 l 482 1272 z "},"ȅ":{"ha":597,"x_min":76,"x_max":522,"o":"m 522 338 l 125 338 q 138 144 125 204 q 190 58 150 83 q 318 33 229 33 q 413 39 361 33 q 501 53 465 44 l 501 7 q 416 -6 469 0 q 313 -11 363 -11 q 159 19 208 -11 q 93 123 110 49 q 76 353 76 197 q 89 582 76 511 q 151 686 101 653 q 313 719 200 719 q 455 688 411 719 q 510 585 499 657 q 522 356 522 514 l 522 338 m 308 675 q 185 654 222 675 q 137 576 149 633 q 125 382 125 518 l 474 382 l 474 411 q 459 585 474 531 q 411 658 444 640 q 308 675 378 675 m 229 846 l 196 846 l 94 1013 l 94 1019 l 151 1019 l 229 853 l 229 846 m 411 846 l 378 846 l 275 1013 l 275 1019 l 333 1019 l 411 853 l 411 846 z "},"ë":{"ha":597,"x_min":76,"x_max":522,"o":"m 522 338 l 125 338 q 138 144 125 204 q 190 58 150 83 q 318 33 229 33 q 413 39 361 33 q 501 53 465 44 l 501 7 q 416 -6 469 0 q 313 -11 363 -11 q 159 19 208 -11 q 93 123 110 49 q 76 353 76 197 q 89 582 76 511 q 151 686 101 653 q 313 719 200 719 q 455 688 411 719 q 510 585 499 657 q 522 356 522 514 l 522 338 m 308 675 q 185 654 222 675 q 137 576 149 633 q 125 382 125 518 l 474 382 l 474 411 q 459 585 474 531 q 411 658 444 640 q 308 675 378 675 m 154 929 l 154 1014 l 213 1014 l 213 929 l 154 929 m 394 929 l 394 1014 l 453 1014 l 453 929 l 394 929 z "},"ė":{"ha":597,"x_min":76,"x_max":522,"o":"m 522 338 l 125 338 q 138 144 125 204 q 190 58 150 83 q 318 33 229 33 q 413 39 361 33 q 501 53 465 44 l 501 7 q 416 -6 469 0 q 313 -11 363 -11 q 159 19 208 -11 q 93 123 110 49 q 76 353 76 197 q 89 582 76 511 q 151 686 101 653 q 313 719 200 719 q 455 688 411 719 q 510 585 499 657 q 522 356 522 514 l 522 338 m 308 675 q 185 654 222 675 q 137 576 149 633 q 125 382 125 518 l 474 382 l 474 411 q 459 585 474 531 q 411 658 444 640 q 308 675 378 675 m 269 929 l 269 1014 l 326 1014 l 326 929 l 269 929 z "},"ẹ":{"ha":597,"x_min":76,"x_max":522,"o":"m 522 338 l 125 338 q 138 144 125 204 q 190 58 150 83 q 318 33 229 33 q 413 39 361 33 q 501 53 465 44 l 501 7 q 416 -6 469 0 q 313 -11 363 -11 q 159 19 208 -11 q 93 123 110 49 q 76 353 76 197 q 89 582 76 511 q 151 686 101 653 q 313 719 200 719 q 455 688 411 719 q 510 585 499 657 q 522 356 522 514 l 522 338 m 308 675 q 185 654 222 675 q 137 576 149 633 q 125 382 125 518 l 474 382 l 474 411 q 459 585 474 531 q 411 658 444 640 q 308 675 378 675 m 267 -176 l 267 -86 l 331 -86 l 331 -176 l 267 -176 z "},"è":{"ha":597,"x_min":76,"x_max":522,"o":"m 522 338 l 125 338 q 138 144 125 204 q 190 58 150 83 q 318 33 229 33 q 413 39 361 33 q 501 53 465 44 l 501 7 q 416 -6 469 0 q 313 -11 363 -11 q 159 19 208 -11 q 93 123 110 49 q 76 353 76 197 q 89 582 76 511 q 151 686 101 653 q 313 719 200 719 q 455 688 411 719 q 510 585 499 657 q 522 356 522 514 l 522 338 m 308 675 q 185 654 222 675 q 137 576 149 633 q 125 382 125 518 l 474 382 l 474 411 q 459 585 474 531 q 411 658 444 640 q 308 675 378 675 m 300 840 l 196 1025 l 196 1032 l 254 1032 l 333 847 l 333 840 l 300 840 z "},"ẻ":{"ha":597,"x_min":76,"x_max":522,"o":"m 522 338 l 125 338 q 138 144 125 204 q 190 58 150 83 q 318 33 229 33 q 413 39 361 33 q 501 53 465 44 l 501 7 q 416 -6 469 0 q 313 -11 363 -11 q 159 19 208 -11 q 93 123 110 49 q 76 353 76 197 q 89 582 76 511 q 151 686 101 653 q 313 719 200 719 q 455 688 411 719 q 510 585 499 657 q 522 356 522 514 l 522 338 m 308 675 q 185 654 222 675 q 137 576 149 633 q 125 382 125 518 l 474 382 l 474 411 q 459 585 474 531 q 411 658 444 640 q 308 675 378 675 m 247 858 q 258 899 247 888 q 299 919 269 911 l 321 925 q 372 947 360 936 q 385 988 385 958 q 377 1024 385 1013 q 349 1039 369 1035 q 282 1043 328 1043 q 168 1038 257 1043 l 168 1074 q 290 1082 249 1082 q 399 1063 371 1082 q 428 994 428 1044 q 417 935 428 954 q 365 901 407 915 l 343 896 q 303 882 315 888 q 289 869 292 876 q 286 846 286 861 l 247 846 l 247 858 z "},"ȇ":{"ha":597,"x_min":76,"x_max":522,"o":"m 522 338 l 125 338 q 138 144 125 204 q 190 58 150 83 q 318 33 229 33 q 413 39 361 33 q 501 53 465 44 l 501 7 q 416 -6 469 0 q 313 -11 363 -11 q 159 19 208 -11 q 93 123 110 49 q 76 353 76 197 q 89 582 76 511 q 151 686 101 653 q 313 719 200 719 q 455 688 411 719 q 510 585 499 657 q 522 356 522 514 l 522 338 m 308 675 q 185 654 222 675 q 137 576 149 633 q 125 382 125 518 l 474 382 l 474 411 q 459 585 474 531 q 411 658 444 640 q 308 675 378 675 m 153 844 q 160 955 153 917 q 198 1017 167 993 q 297 1040 229 1040 q 396 1017 365 1040 q 433 955 426 993 q 440 844 440 917 l 396 844 q 391 938 396 907 q 365 985 386 968 q 297 1001 344 1001 q 229 985 250 1001 q 203 938 208 968 q 197 844 197 907 l 153 844 z "},"ē":{"ha":597,"x_min":76,"x_max":522,"o":"m 522 338 l 125 338 q 138 144 125 204 q 190 58 150 83 q 318 33 229 33 q 413 39 361 33 q 501 53 465 44 l 501 7 q 416 -6 469 0 q 313 -11 363 -11 q 159 19 208 -11 q 93 123 110 49 q 76 353 76 197 q 89 582 76 511 q 151 686 101 653 q 313 719 200 719 q 455 688 411 719 q 510 585 499 657 q 522 356 522 514 l 522 338 m 308 675 q 185 654 222 675 q 137 576 149 633 q 125 382 125 518 l 474 382 l 474 411 q 459 585 474 531 q 411 658 444 640 q 308 675 378 675 m 171 982 l 171 1032 l 426 1032 l 426 982 l 171 982 z "},"ę":{"ha":597,"x_min":76,"x_max":522,"o":"m 522 338 l 125 338 q 138 144 125 204 q 190 58 150 83 q 318 33 229 33 q 413 39 361 33 q 501 53 465 44 l 501 7 q 435 -72 467 -21 q 404 -165 404 -124 q 419 -210 404 -193 q 469 -228 435 -228 l 493 -226 l 493 -271 q 463 -272 481 -272 q 383 -245 408 -272 q 357 -175 357 -218 q 380 -87 357 -133 q 442 -3 403 -42 q 313 -11 383 -11 q 159 19 208 -11 q 93 123 110 49 q 76 353 76 197 q 89 582 76 511 q 151 686 101 653 q 313 719 200 719 q 455 688 411 719 q 510 585 499 657 q 522 356 522 514 l 522 338 m 308 675 q 185 654 222 675 q 137 576 149 633 q 125 382 125 518 l 474 382 l 474 411 q 459 585 474 531 q 411 658 444 640 q 308 675 378 675 z "},"ẽ":{"ha":597,"x_min":76,"x_max":522,"o":"m 522 338 l 125 338 q 138 144 125 204 q 190 58 150 83 q 318 33 229 33 q 413 39 361 33 q 501 53 465 44 l 501 7 q 416 -6 469 0 q 313 -11 363 -11 q 159 19 208 -11 q 93 123 110 49 q 76 353 76 197 q 89 582 76 511 q 151 686 101 653 q 313 719 200 719 q 455 688 411 719 q 510 585 499 657 q 522 356 522 514 l 522 338 m 308 675 q 185 654 222 675 q 137 576 149 633 q 125 382 125 518 l 474 382 l 474 411 q 459 585 474 531 q 411 658 444 640 q 308 675 378 675 m 482 1032 q 467 928 482 957 q 408 900 451 900 q 356 909 382 900 q 289 938 331 918 q 229 963 250 956 q 186 971 208 971 q 158 953 164 971 q 151 885 151 935 l 114 885 q 128 988 114 960 q 186 1017 143 1017 q 240 1007 214 1017 q 310 978 267 997 q 363 954 340 963 q 408 946 386 946 q 438 965 431 946 q 444 1032 444 983 l 482 1032 z "},"ə":{"ha":597,"x_min":75,"x_max":521,"o":"m 285 719 q 438 690 389 719 q 504 585 488 660 q 521 356 521 511 q 508 126 521 197 q 447 22 496 56 q 285 -11 397 -11 q 142 20 186 -11 q 87 123 99 51 q 75 353 75 194 l 75 371 l 472 371 q 460 565 472 504 q 408 650 447 625 q 279 675 368 675 q 184 669 236 675 q 96 656 132 664 l 96 701 q 181 714 128 708 q 285 719 235 719 m 289 33 q 412 54 375 33 q 460 133 449 75 q 472 326 472 190 l 124 326 l 124 297 q 138 123 124 178 q 186 51 153 68 q 289 33 219 33 z "},"f":{"ha":363,"x_min":32,"x_max":328,"o":"m 142 664 l 32 664 l 32 708 l 142 708 l 142 868 q 163 974 142 939 q 222 1021 183 1010 q 328 1032 260 1032 l 328 990 q 243 981 272 990 q 202 948 214 972 q 190 876 190 924 l 190 708 l 328 708 l 328 664 l 190 664 l 190 0 l 142 0 l 142 664 z "},"g":{"ha":632,"x_min":76,"x_max":531,"o":"m 281 -276 q 90 -271 167 -276 l 90 -225 q 275 -232 176 -232 q 411 -205 368 -232 q 468 -114 454 -178 q 482 85 482 -50 l 482 96 l 476 96 q 415 14 460 39 q 294 -11 371 -11 q 155 19 200 -11 q 93 124 110 49 q 76 354 76 199 q 93 585 76 510 q 155 690 110 660 q 294 719 200 719 q 415 696 368 719 q 482 600 463 672 l 488 600 l 492 708 l 531 708 l 531 110 q 513 -126 531 -47 q 442 -241 494 -206 q 281 -276 389 -276 m 304 33 q 412 60 372 33 q 465 146 451 88 q 478 235 475 186 q 482 354 482 283 q 480 472 482 426 q 469 553 478 518 q 413 647 453 618 q 304 675 374 675 q 186 653 222 675 q 138 566 150 631 q 125 354 125 501 q 138 142 125 207 q 186 56 150 78 q 304 33 222 33 z "},"ǵ":{"ha":632,"x_min":76,"x_max":531,"o":"m 281 -276 q 90 -271 167 -276 l 90 -225 q 275 -232 176 -232 q 411 -205 368 -232 q 468 -114 454 -178 q 482 85 482 -50 l 482 96 l 476 96 q 415 14 460 39 q 294 -11 371 -11 q 155 19 200 -11 q 93 124 110 49 q 76 354 76 199 q 93 585 76 510 q 155 690 110 660 q 294 719 200 719 q 415 696 368 719 q 482 600 463 672 l 488 600 l 492 708 l 531 708 l 531 110 q 513 -126 531 -47 q 442 -241 494 -206 q 281 -276 389 -276 m 304 33 q 412 60 372 33 q 465 146 451 88 q 478 235 475 186 q 482 354 482 283 q 480 472 482 426 q 469 553 478 518 q 413 647 453 618 q 304 675 374 675 q 186 653 222 675 q 138 566 150 631 q 125 354 125 501 q 138 142 125 207 q 186 56 150 78 q 304 33 222 33 m 294 840 l 294 847 l 374 1032 l 432 1032 l 432 1025 l 328 840 l 294 840 z "},"ğ":{"ha":632,"x_min":76,"x_max":531,"o":"m 281 -276 q 90 -271 167 -276 l 90 -225 q 275 -232 176 -232 q 411 -205 368 -232 q 468 -114 454 -178 q 482 85 482 -50 l 482 96 l 476 96 q 415 14 460 39 q 294 -11 371 -11 q 155 19 200 -11 q 93 124 110 49 q 76 354 76 199 q 93 585 76 510 q 155 690 110 660 q 294 719 200 719 q 415 696 368 719 q 482 600 463 672 l 488 600 l 492 708 l 531 708 l 531 110 q 513 -126 531 -47 q 442 -241 494 -206 q 281 -276 389 -276 m 304 33 q 412 60 372 33 q 465 146 451 88 q 478 235 475 186 q 482 354 482 283 q 480 472 482 426 q 469 553 478 518 q 413 647 453 618 q 304 675 374 675 q 186 653 222 675 q 138 566 150 631 q 125 354 125 501 q 138 142 125 207 q 186 56 150 78 q 304 33 222 33 m 458 1032 q 451 922 458 960 q 413 860 444 883 q 314 836 382 836 q 215 860 246 836 q 178 922 185 883 q 171 1032 171 960 l 215 1032 q 220 939 215 969 q 246 892 225 908 q 314 875 267 875 q 382 892 361 875 q 408 939 403 908 q 414 1032 414 969 l 458 1032 z "},"ǧ":{"ha":632,"x_min":76,"x_max":531,"o":"m 281 -276 q 90 -271 167 -276 l 90 -225 q 275 -232 176 -232 q 411 -205 368 -232 q 468 -114 454 -178 q 482 85 482 -50 l 482 96 l 476 96 q 415 14 460 39 q 294 -11 371 -11 q 155 19 200 -11 q 93 124 110 49 q 76 354 76 199 q 93 585 76 510 q 155 690 110 660 q 294 719 200 719 q 415 696 368 719 q 482 600 463 672 l 488 600 l 492 708 l 531 708 l 531 110 q 513 -126 531 -47 q 442 -241 494 -206 q 281 -276 389 -276 m 304 33 q 412 60 372 33 q 465 146 451 88 q 478 235 475 186 q 482 354 482 283 q 480 472 482 426 q 469 553 478 518 q 413 647 453 618 q 304 675 374 675 q 186 653 222 675 q 138 566 150 631 q 125 354 125 501 q 138 142 125 207 q 186 56 150 78 q 304 33 222 33 m 283 840 l 172 1025 l 172 1032 l 210 1032 l 315 882 l 421 1032 l 458 1032 l 458 1025 l 347 840 l 283 840 z "},"ĝ":{"ha":632,"x_min":76,"x_max":531,"o":"m 281 -276 q 90 -271 167 -276 l 90 -225 q 275 -232 176 -232 q 411 -205 368 -232 q 468 -114 454 -178 q 482 85 482 -50 l 482 96 l 476 96 q 415 14 460 39 q 294 -11 371 -11 q 155 19 200 -11 q 93 124 110 49 q 76 354 76 199 q 93 585 76 510 q 155 690 110 660 q 294 719 200 719 q 415 696 368 719 q 482 600 463 672 l 488 600 l 492 708 l 531 708 l 531 110 q 513 -126 531 -47 q 442 -241 494 -206 q 281 -276 389 -276 m 304 33 q 412 60 372 33 q 465 146 451 88 q 478 235 475 186 q 482 354 482 283 q 480 472 482 426 q 469 553 478 518 q 413 647 453 618 q 304 675 374 675 q 186 653 222 675 q 138 566 150 631 q 125 354 125 501 q 138 142 125 207 q 186 56 150 78 q 304 33 222 33 m 172 840 l 172 847 l 283 1032 l 347 1032 l 458 847 l 458 840 l 421 840 l 315 990 l 210 840 l 172 840 z "},"ģ":{"ha":632,"x_min":76,"x_max":531,"o":"m 281 -276 q 90 -271 167 -276 l 90 -225 q 275 -232 176 -232 q 411 -205 368 -232 q 468 -114 454 -178 q 482 85 482 -50 l 482 96 l 476 96 q 415 14 460 39 q 294 -11 371 -11 q 155 19 200 -11 q 93 124 110 49 q 76 354 76 199 q 93 585 76 510 q 155 690 110 660 q 294 719 200 719 q 415 696 368 719 q 482 600 463 672 l 488 600 l 492 708 l 531 708 l 531 110 q 513 -126 531 -47 q 442 -241 494 -206 q 281 -276 389 -276 m 304 33 q 412 60 372 33 q 465 146 451 88 q 478 235 475 186 q 482 354 482 283 q 480 472 482 426 q 469 553 478 518 q 413 647 453 618 q 304 675 374 675 q 186 653 222 675 q 138 566 150 631 q 125 354 125 501 q 138 142 125 207 q 186 56 150 78 q 304 33 222 33 m 383 1043 q 340 1035 354 1043 q 323 1010 326 1028 q 319 956 319 993 l 319 932 l 347 932 l 347 842 l 283 842 l 283 946 q 292 1024 283 997 q 321 1061 300 1050 q 383 1072 342 1072 l 383 1043 z "},"ġ":{"ha":632,"x_min":76,"x_max":531,"o":"m 281 -276 q 90 -271 167 -276 l 90 -225 q 275 -232 176 -232 q 411 -205 368 -232 q 468 -114 454 -178 q 482 85 482 -50 l 482 96 l 476 96 q 415 14 460 39 q 294 -11 371 -11 q 155 19 200 -11 q 93 124 110 49 q 76 354 76 199 q 93 585 76 510 q 155 690 110 660 q 294 719 200 719 q 415 696 368 719 q 482 600 463 672 l 488 600 l 492 708 l 531 708 l 531 110 q 513 -126 531 -47 q 442 -241 494 -206 q 281 -276 389 -276 m 304 33 q 412 60 372 33 q 465 146 451 88 q 478 235 475 186 q 482 354 482 283 q 480 472 482 426 q 469 553 478 518 q 413 647 453 618 q 304 675 374 675 q 186 653 222 675 q 138 566 150 631 q 125 354 125 501 q 138 142 125 207 q 186 56 150 78 q 304 33 222 33 m 286 929 l 286 1014 l 343 1014 l 343 929 l 286 929 z "},"h":{"ha":636,"x_min":101,"x_max":538,"o":"m 489 438 q 477 593 489 544 q 433 658 465 642 q 328 675 400 675 q 206 636 244 675 q 158 537 167 597 q 150 367 150 476 l 150 0 l 101 0 l 101 1032 l 150 1032 l 150 617 l 156 617 q 339 719 189 719 q 467 693 425 719 q 523 610 508 667 q 538 444 538 553 l 538 0 l 489 0 l 489 438 z "},"ħ":{"ha":636,"x_min":19,"x_max":538,"o":"m 339 719 q 467 693 425 719 q 523 610 508 667 q 538 444 538 553 l 538 0 l 489 0 l 489 438 q 477 593 489 544 q 433 658 465 642 q 328 675 400 675 q 206 636 244 675 q 158 537 167 597 q 150 367 150 476 l 150 0 l 101 0 l 101 911 l 19 911 l 19 956 l 101 956 l 101 1032 l 150 1032 l 150 956 l 328 956 l 328 911 l 150 911 l 150 617 l 156 617 q 339 719 189 719 z "},"ĥ":{"ha":636,"x_min":-17,"x_max":538,"o":"m 489 438 q 477 593 489 544 q 433 658 465 642 q 328 675 400 675 q 206 636 244 675 q 158 537 167 597 q 150 367 150 476 l 150 0 l 101 0 l 101 1032 l 150 1032 l 150 617 l 156 617 q 339 719 189 719 q 467 693 425 719 q 523 610 508 667 q 538 444 538 553 l 538 0 l 489 0 l 489 438 m -17 1088 l -17 1094 l 94 1279 l 158 1279 l 269 1094 l 269 1088 l 232 1088 l 126 1238 l 21 1088 l -17 1088 z "},"ḥ":{"ha":636,"x_min":101,"x_max":538,"o":"m 489 438 q 477 593 489 544 q 433 658 465 642 q 328 675 400 675 q 206 636 244 675 q 158 537 167 597 q 150 367 150 476 l 150 0 l 101 0 l 101 1032 l 150 1032 l 150 617 l 156 617 q 339 719 189 719 q 467 693 425 719 q 523 610 508 667 q 538 444 538 553 l 538 0 l 489 0 l 489 438 m 286 -176 l 286 -86 l 350 -86 l 350 -176 l 286 -176 z "},"i":{"ha":251,"x_min":97,"x_max":154,"o":"m 97 947 l 97 1032 l 154 1032 l 154 947 l 97 947 m 101 0 l 101 708 l 150 708 l 150 0 l 101 0 z "},"ı":{"ha":251,"x_min":101,"x_max":150,"o":"m 101 0 l 101 708 l 150 708 l 150 0 l 101 0 z "},"í":{"ha":251,"x_min":100,"x_max":238,"o":"m 101 0 l 101 708 l 150 708 l 150 0 l 101 0 m 100 840 l 100 847 l 179 1032 l 238 1032 l 238 1025 l 133 840 l 100 840 z "},"ĭ":{"ha":251,"x_min":-18,"x_max":269,"o":"m 101 0 l 101 708 l 150 708 l 150 0 l 101 0 m 269 1032 q 263 922 269 960 q 224 860 256 883 q 125 836 193 836 q 26 860 57 836 q -11 922 -4 883 q -18 1032 -18 960 l 26 1032 q 31 939 26 969 q 57 892 36 908 q 125 875 78 875 q 193 892 172 875 q 219 939 214 908 q 225 1032 225 969 l 269 1032 z "},"ǐ":{"ha":251,"x_min":-17,"x_max":269,"o":"m 101 0 l 101 708 l 150 708 l 150 0 l 101 0 m 94 840 l -17 1025 l -17 1032 l 21 1032 l 126 882 l 232 1032 l 269 1032 l 269 1025 l 158 840 l 94 840 z "},"î":{"ha":251,"x_min":-17,"x_max":269,"o":"m 101 0 l 101 708 l 150 708 l 150 0 l 101 0 m -17 840 l -17 847 l 94 1032 l 158 1032 l 269 847 l 269 840 l 232 840 l 126 990 l 21 840 l -17 840 z "},"ȉ":{"ha":251,"x_min":-78,"x_max":239,"o":"m 101 0 l 101 708 l 150 708 l 150 0 l 101 0 m 57 846 l 24 846 l -78 1013 l -78 1019 l -21 1019 l 57 853 l 57 846 m 239 846 l 206 846 l 103 1013 l 103 1019 l 161 1019 l 239 853 l 239 846 z "},"ï":{"ha":251,"x_min":-24,"x_max":275,"o":"m 101 0 l 101 708 l 150 708 l 150 0 l 101 0 m -24 929 l -24 1014 l 35 1014 l 35 929 l -24 929 m 217 929 l 217 1014 l 275 1014 l 275 929 l 217 929 z "},"ị":{"ha":251,"x_min":79,"x_max":154,"o":"m 97 947 l 97 1032 l 154 1032 l 154 947 l 97 947 m 101 0 l 101 708 l 150 708 l 150 0 l 101 0 m 79 -176 l 79 -86 l 143 -86 l 143 -176 l 79 -176 z "},"ì":{"ha":251,"x_min":15,"x_max":153,"o":"m 101 0 l 101 708 l 150 708 l 150 0 l 101 0 m 119 840 l 15 1025 l 15 1032 l 74 1032 l 153 847 l 153 840 l 119 840 z "},"ỉ":{"ha":251,"x_min":-4,"x_max":256,"o":"m 101 0 l 101 708 l 150 708 l 150 0 l 101 0 m 75 858 q 86 899 75 888 q 126 919 97 911 l 149 925 q 200 947 188 936 q 213 988 213 958 q 205 1024 213 1013 q 176 1039 197 1035 q 110 1043 156 1043 q -4 1038 85 1043 l -4 1074 q 118 1082 76 1082 q 227 1063 199 1082 q 256 994 256 1044 q 245 935 256 954 q 193 901 235 915 l 171 896 q 131 882 143 888 q 117 869 119 876 q 114 846 114 861 l 75 846 l 75 858 z "},"ȋ":{"ha":251,"x_min":-19,"x_max":268,"o":"m 101 0 l 101 708 l 150 708 l 150 0 l 101 0 m -19 844 q -12 955 -19 917 q 26 1017 -6 993 q 125 1040 57 1040 q 224 1017 193 1040 q 261 955 254 993 q 268 844 268 917 l 224 844 q 219 938 224 907 q 193 985 214 968 q 125 1001 172 1001 q 57 985 78 1001 q 31 938 36 968 q 25 844 25 907 l -19 844 z "},"ĳ":{"ha":503,"x_min":97,"x_max":406,"o":"m 97 947 l 97 1032 l 154 1032 l 154 947 l 97 947 m 101 0 l 101 708 l 150 708 l 150 0 l 101 0 m 349 947 l 349 1032 l 406 1032 l 406 947 l 349 947 m 250 -226 q 319 -219 297 -226 q 347 -197 340 -212 q 353 -147 353 -182 l 353 708 l 401 708 l 401 -133 q 386 -224 401 -196 q 340 -260 371 -253 q 250 -268 310 -268 l 250 -226 z "},"ī":{"ha":251,"x_min":-1,"x_max":254,"o":"m 101 0 l 101 708 l 150 708 l 150 0 l 101 0 m -1 982 l -1 1032 l 254 1032 l 254 982 l -1 982 z "},"į":{"ha":251,"x_min":15,"x_max":154,"o":"m 97 1014 l 154 1014 l 154 929 l 97 929 l 97 1014 m 63 -164 q 128 -228 63 -228 l 151 -226 l 151 -271 q 121 -272 139 -272 q 41 -245 67 -272 q 15 -172 15 -218 q 39 -85 15 -132 q 101 0 63 -37 l 101 708 l 150 708 l 150 0 q 91 -76 119 -26 q 63 -164 63 -125 z "},"ĩ":{"ha":251,"x_min":-58,"x_max":310,"o":"m 101 0 l 101 708 l 150 708 l 150 0 l 101 0 m 310 1032 q 294 928 310 957 q 236 900 279 900 q 184 909 210 900 q 117 938 158 918 q 57 963 78 956 q 14 971 36 971 q -15 953 -8 971 q -21 885 -21 935 l -58 885 q -44 988 -58 960 q 14 1017 -29 1017 q 68 1007 42 1017 q 138 978 94 997 q 191 954 168 963 q 236 946 214 946 q 265 965 258 946 q 272 1032 272 983 l 310 1032 z "},"j":{"ha":251,"x_min":-1,"x_max":154,"o":"m 97 947 l 97 1032 l 154 1032 l 154 947 l 97 947 m -1 -226 q 67 -219 46 -226 q 95 -197 89 -212 q 101 -147 101 -182 l 101 708 l 150 708 l 150 -133 q 135 -224 150 -196 q 89 -260 119 -253 q -1 -268 58 -268 l -1 -226 z "},"ȷ":{"ha":251,"x_min":-1,"x_max":150,"o":"m -1 -226 q 67 -219 46 -226 q 95 -197 89 -212 q 101 -147 101 -182 l 101 708 l 150 708 l 150 -133 q 135 -224 150 -196 q 89 -260 119 -253 q -1 -268 58 -268 l -1 -226 z "},"ĵ":{"ha":251,"x_min":-17,"x_max":269,"o":"m -1 -226 q 67 -219 46 -226 q 95 -197 89 -212 q 101 -147 101 -182 l 101 708 l 150 708 l 150 -133 q 135 -224 150 -196 q 89 -260 119 -253 q -1 -268 58 -268 l -1 -226 m -17 840 l -17 847 l 94 1032 l 158 1032 l 269 847 l 269 840 l 232 840 l 126 990 l 21 840 l -17 840 z "},"k":{"ha":549,"x_min":101,"x_max":514,"o":"m 456 0 l 246 338 l 150 338 l 150 0 l 101 0 l 101 1032 l 150 1032 l 150 385 l 246 385 l 451 708 l 508 708 l 286 364 l 514 0 l 456 0 z "},"ķ":{"ha":549,"x_min":101,"x_max":514,"o":"m 456 0 l 246 338 l 150 338 l 150 0 l 101 0 l 101 1032 l 150 1032 l 150 385 l 246 385 l 451 708 l 508 708 l 286 364 l 514 0 l 456 0 m 225 -287 q 268 -280 254 -287 q 285 -255 282 -272 q 289 -200 289 -237 l 289 -176 l 261 -176 l 261 -86 l 325 -86 l 325 -190 q 317 -268 325 -242 q 288 -306 308 -294 q 225 -317 267 -317 l 225 -287 z "},"ĸ":{"ha":549,"x_min":101,"x_max":514,"o":"m 456 0 l 246 338 l 150 338 l 150 0 l 101 0 l 101 708 l 150 708 l 150 385 l 246 385 l 451 708 l 508 708 l 286 364 l 514 0 l 456 0 z "},"l":{"ha":251,"x_min":101,"x_max":150,"o":"m 101 0 l 101 1032 l 150 1032 l 150 0 l 101 0 z "},"ĺ":{"ha":251,"x_min":101,"x_max":243,"o":"m 101 0 l 101 1032 l 150 1032 l 150 0 l 101 0 m 106 1088 l 106 1094 l 185 1279 l 243 1279 l 243 1272 l 139 1088 l 106 1088 z "},"ľ":{"ha":251,"x_min":101,"x_max":275,"o":"m 101 0 l 101 1032 l 150 1032 l 150 0 l 101 0 m 204 631 l 221 832 l 221 956 l 275 956 l 275 832 l 236 631 l 204 631 z "},"ļ":{"ha":251,"x_min":76,"x_max":176,"o":"m 101 0 l 101 1032 l 150 1032 l 150 0 l 101 0 m 76 -287 q 119 -280 106 -287 q 137 -255 133 -272 q 140 -200 140 -237 l 140 -176 l 113 -176 l 113 -86 l 176 -86 l 176 -190 q 168 -268 176 -242 q 139 -306 160 -294 q 76 -317 118 -317 l 76 -287 z "},"ŀ":{"ha":288,"x_min":101,"x_max":299,"o":"m 101 0 l 101 1032 l 150 1032 l 150 0 l 101 0 m 235 371 l 235 461 l 299 461 l 299 371 l 235 371 z "},"ǉ":{"ha":503,"x_min":101,"x_max":406,"o":"m 101 0 l 101 1032 l 150 1032 l 150 0 l 101 0 m 349 947 l 349 1032 l 406 1032 l 406 947 l 349 947 m 250 -226 q 319 -219 297 -226 q 347 -197 340 -212 q 353 -147 353 -182 l 353 708 l 401 708 l 401 -133 q 386 -224 401 -196 q 340 -260 371 -253 q 250 -268 310 -268 l 250 -226 z "},"ł":{"ha":257,"x_min":26,"x_max":231,"o":"m 101 0 l 101 463 l 26 436 l 26 485 l 101 511 l 101 1032 l 150 1032 l 150 529 l 231 558 l 231 510 l 150 481 l 150 0 l 101 0 z "},"m":{"ha":974,"x_min":101,"x_max":875,"o":"m 826 438 q 816 593 826 544 q 776 658 806 642 q 682 675 747 675 q 565 639 601 675 q 521 543 529 603 q 513 367 513 483 l 513 0 l 464 0 l 464 438 q 453 593 464 544 q 414 658 443 642 q 319 675 385 675 q 203 636 240 675 q 158 537 167 597 q 150 367 150 476 l 150 0 l 101 0 l 101 708 l 139 708 l 144 600 l 151 600 q 203 687 164 654 q 326 719 242 719 q 449 692 411 719 q 503 600 488 665 l 510 600 q 689 719 538 719 q 809 693 769 719 q 862 610 849 667 q 875 444 875 553 l 875 0 l 826 0 l 826 438 z "},"n":{"ha":636,"x_min":101,"x_max":538,"o":"m 489 438 q 477 593 489 544 q 433 658 465 642 q 328 675 400 675 q 206 636 244 675 q 158 537 167 597 q 150 367 150 476 l 150 0 l 101 0 l 101 708 l 139 708 l 144 600 l 150 600 q 206 687 165 654 q 339 719 247 719 q 467 693 425 719 q 523 610 508 667 q 538 444 538 553 l 538 0 l 489 0 l 489 438 z "},"ń":{"ha":636,"x_min":101,"x_max":538,"o":"m 489 438 q 477 593 489 544 q 433 658 465 642 q 328 675 400 675 q 206 636 244 675 q 158 537 167 597 q 150 367 150 476 l 150 0 l 101 0 l 101 708 l 139 708 l 144 600 l 150 600 q 206 687 165 654 q 339 719 247 719 q 467 693 425 719 q 523 610 508 667 q 538 444 538 553 l 538 0 l 489 0 l 489 438 m 297 840 l 297 847 l 376 1032 l 435 1032 l 435 1025 l 331 840 l 297 840 z "},"ŉ":{"ha":636,"x_min":4,"x_max":538,"o":"m 4 831 q 47 838 33 831 q 65 863 61 846 q 68 918 68 881 l 68 942 l 40 942 l 40 1032 l 106 1032 l 106 928 q 97 850 106 876 q 67 813 89 824 q 4 801 46 801 l 4 831 m 489 438 q 477 593 489 544 q 433 658 465 642 q 328 675 400 675 q 206 636 244 675 q 158 537 167 597 q 150 367 150 476 l 150 0 l 101 0 l 101 708 l 139 708 l 144 600 l 150 600 q 206 687 165 654 q 339 719 247 719 q 467 693 425 719 q 523 610 508 667 q 538 444 538 553 l 538 0 l 489 0 l 489 438 z "},"ň":{"ha":636,"x_min":101,"x_max":538,"o":"m 489 438 q 477 593 489 544 q 433 658 465 642 q 328 675 400 675 q 206 636 244 675 q 158 537 167 597 q 150 367 150 476 l 150 0 l 101 0 l 101 708 l 139 708 l 144 600 l 150 600 q 206 687 165 654 q 339 719 247 719 q 467 693 425 719 q 523 610 508 667 q 538 444 538 553 l 538 0 l 489 0 l 489 438 m 286 840 l 175 1025 l 175 1032 l 213 1032 l 318 882 l 424 1032 l 461 1032 l 461 1025 l 350 840 l 286 840 z "},"ņ":{"ha":636,"x_min":101,"x_max":538,"o":"m 489 438 q 477 593 489 544 q 433 658 465 642 q 328 675 400 675 q 206 636 244 675 q 158 537 167 597 q 150 367 150 476 l 150 0 l 101 0 l 101 708 l 139 708 l 144 600 l 150 600 q 206 687 165 654 q 339 719 247 719 q 467 693 425 719 q 523 610 508 667 q 538 444 538 553 l 538 0 l 489 0 l 489 438 m 268 -287 q 311 -280 297 -287 q 328 -255 325 -272 q 332 -200 332 -237 l 332 -176 l 304 -176 l 304 -86 l 368 -86 l 368 -190 q 360 -268 368 -242 q 331 -306 351 -294 q 268 -317 310 -317 l 268 -287 z "},"ṅ":{"ha":636,"x_min":101,"x_max":538,"o":"m 489 438 q 477 593 489 544 q 433 658 465 642 q 328 675 400 675 q 206 636 244 675 q 158 537 167 597 q 150 367 150 476 l 150 0 l 101 0 l 101 708 l 139 708 l 144 600 l 150 600 q 206 687 165 654 q 339 719 247 719 q 467 693 425 719 q 523 610 508 667 q 538 444 538 553 l 538 0 l 489 0 l 489 438 m 289 929 l 289 1014 l 346 1014 l 346 929 l 289 929 z "},"ŋ":{"ha":636,"x_min":101,"x_max":538,"o":"m 339 719 q 467 693 425 719 q 523 610 508 667 q 538 444 538 553 l 538 -133 q 522 -224 538 -196 q 476 -260 507 -253 q 386 -268 446 -268 l 386 -226 q 455 -219 433 -226 q 483 -197 476 -212 q 489 -147 489 -182 l 489 438 q 477 593 489 544 q 433 658 465 642 q 328 675 400 675 q 206 636 244 675 q 158 537 167 597 q 150 367 150 476 l 150 0 l 101 0 l 101 708 l 139 708 l 144 600 l 150 600 q 206 687 165 654 q 339 719 247 719 z "},"ɲ":{"ha":636,"x_min":-1,"x_max":538,"o":"m -1 -226 q 67 -219 46 -226 q 95 -197 89 -212 q 101 -147 101 -182 l 101 708 l 139 708 l 144 600 l 150 600 q 206 687 165 654 q 339 719 247 719 q 467 693 425 719 q 523 610 508 667 q 538 444 538 553 l 538 0 l 489 0 l 489 438 q 477 593 489 544 q 433 658 465 642 q 328 675 400 675 q 206 636 244 675 q 158 538 167 597 q 150 368 150 478 l 150 -133 q 135 -224 150 -196 q 89 -260 119 -253 q -1 -268 58 -268 l -1 -226 z "},"ǌ":{"ha":888,"x_min":101,"x_max":790,"o":"m 489 438 q 477 593 489 544 q 433 658 465 642 q 328 675 400 675 q 206 636 244 675 q 158 537 167 597 q 150 367 150 476 l 150 0 l 101 0 l 101 708 l 139 708 l 144 600 l 150 600 q 206 687 165 654 q 339 719 247 719 q 467 693 425 719 q 523 610 508 667 q 538 444 538 553 l 538 0 l 489 0 l 489 438 m 733 947 l 733 1032 l 790 1032 l 790 947 l 733 947 m 635 -226 q 703 -219 682 -226 q 731 -197 725 -212 q 738 -147 738 -182 l 738 708 l 786 708 l 786 -133 q 771 -224 786 -196 q 725 -260 756 -253 q 635 -268 694 -268 l 635 -226 z "},"ñ":{"ha":636,"x_min":101,"x_max":538,"o":"m 489 438 q 477 593 489 544 q 433 658 465 642 q 328 675 400 675 q 206 636 244 675 q 158 537 167 597 q 150 367 150 476 l 150 0 l 101 0 l 101 708 l 139 708 l 144 600 l 150 600 q 206 687 165 654 q 339 719 247 719 q 467 693 425 719 q 523 610 508 667 q 538 444 538 553 l 538 0 l 489 0 l 489 438 m 507 1032 q 492 928 507 957 q 433 900 476 900 q 381 909 407 900 q 314 938 356 918 q 254 963 275 956 q 211 971 233 971 q 183 953 189 971 q 176 885 176 935 l 139 885 q 153 988 139 960 q 211 1017 168 1017 q 265 1007 239 1017 q 335 978 292 997 q 388 954 365 963 q 433 946 411 946 q 463 965 456 946 q 469 1032 469 983 l 507 1032 z "},"o":{"ha":615,"x_min":76,"x_max":539,"o":"m 307 -11 q 151 17 199 -11 q 90 117 104 44 q 76 353 76 189 q 90 590 76 517 q 151 691 104 663 q 307 719 199 719 q 463 691 415 719 q 525 590 511 663 q 539 353 539 517 q 525 117 539 189 q 464 17 511 44 q 307 -11 417 -11 m 307 33 q 434 57 397 33 q 481 141 471 81 q 490 353 490 201 q 481 566 490 506 q 434 651 471 626 q 307 675 397 675 q 181 651 217 675 q 135 566 144 626 q 125 353 125 506 q 135 141 125 201 q 181 57 144 81 q 307 33 217 33 z "},"ó":{"ha":615,"x_min":76,"x_max":539,"o":"m 307 -11 q 151 17 199 -11 q 90 117 104 44 q 76 353 76 189 q 90 590 76 517 q 151 691 104 663 q 307 719 199 719 q 463 691 415 719 q 525 590 511 663 q 539 353 539 517 q 525 117 539 189 q 464 17 511 44 q 307 -11 417 -11 m 307 33 q 434 57 397 33 q 481 141 471 81 q 490 353 490 201 q 481 566 490 506 q 434 651 471 626 q 307 675 397 675 q 181 651 217 675 q 135 566 144 626 q 125 353 125 506 q 135 141 125 201 q 181 57 144 81 q 307 33 217 33 m 275 840 l 275 847 l 354 1032 l 413 1032 l 413 1025 l 308 840 l 275 840 z "},"ŏ":{"ha":615,"x_min":76,"x_max":539,"o":"m 307 -11 q 151 17 199 -11 q 90 117 104 44 q 76 353 76 189 q 90 590 76 517 q 151 691 104 663 q 307 719 199 719 q 463 691 415 719 q 525 590 511 663 q 539 353 539 517 q 525 117 539 189 q 464 17 511 44 q 307 -11 417 -11 m 307 33 q 434 57 397 33 q 481 141 471 81 q 490 353 490 201 q 481 566 490 506 q 434 651 471 626 q 307 675 397 675 q 181 651 217 675 q 135 566 144 626 q 125 353 125 506 q 135 141 125 201 q 181 57 144 81 q 307 33 217 33 m 450 1032 q 443 922 450 960 q 405 860 436 883 q 306 836 374 836 q 207 860 238 836 q 169 922 176 883 q 163 1032 163 960 l 207 1032 q 212 939 207 969 q 238 892 217 908 q 306 875 258 875 q 374 892 353 875 q 400 939 394 908 q 406 1032 406 969 l 450 1032 z "},"ǒ":{"ha":615,"x_min":76,"x_max":539,"o":"m 307 -11 q 151 17 199 -11 q 90 117 104 44 q 76 353 76 189 q 90 590 76 517 q 151 691 104 663 q 307 719 199 719 q 463 691 415 719 q 525 590 511 663 q 539 353 539 517 q 525 117 539 189 q 464 17 511 44 q 307 -11 417 -11 m 307 33 q 434 57 397 33 q 481 141 471 81 q 490 353 490 201 q 481 566 490 506 q 434 651 471 626 q 307 675 397 675 q 181 651 217 675 q 135 566 144 626 q 125 353 125 506 q 135 141 125 201 q 181 57 144 81 q 307 33 217 33 m 275 840 l 164 1025 l 164 1032 l 201 1032 l 307 882 l 413 1032 l 450 1032 l 450 1025 l 339 840 l 275 840 z "},"ô":{"ha":615,"x_min":76,"x_max":539,"o":"m 307 -11 q 151 17 199 -11 q 90 117 104 44 q 76 353 76 189 q 90 590 76 517 q 151 691 104 663 q 307 719 199 719 q 463 691 415 719 q 525 590 511 663 q 539 353 539 517 q 525 117 539 189 q 464 17 511 44 q 307 -11 417 -11 m 307 33 q 434 57 397 33 q 481 141 471 81 q 490 353 490 201 q 481 566 490 506 q 434 651 471 626 q 307 675 397 675 q 181 651 217 675 q 135 566 144 626 q 125 353 125 506 q 135 141 125 201 q 181 57 144 81 q 307 33 217 33 m 167 840 l 167 847 l 278 1032 l 342 1032 l 453 847 l 453 840 l 415 840 l 310 990 l 204 840 l 167 840 z "},"ố":{"ha":615,"x_min":76,"x_max":539,"o":"m 307 -11 q 151 17 199 -11 q 90 117 104 44 q 76 353 76 189 q 90 590 76 517 q 151 691 104 663 q 307 719 199 719 q 463 691 415 719 q 525 590 511 663 q 539 353 539 517 q 525 117 539 189 q 464 17 511 44 q 307 -11 417 -11 m 307 33 q 434 57 397 33 q 481 141 471 81 q 490 353 490 201 q 481 566 490 506 q 434 651 471 626 q 307 675 397 675 q 181 651 217 675 q 135 566 144 626 q 125 353 125 506 q 135 141 125 201 q 181 57 144 81 q 307 33 217 33 m 161 840 l 161 847 l 272 1032 l 336 1032 l 447 847 l 447 840 l 410 840 l 304 990 l 199 840 l 161 840 m 396 1032 l 396 1039 l 475 1224 l 533 1224 l 533 1217 l 429 1032 l 396 1032 z "},"ộ":{"ha":615,"x_min":76,"x_max":539,"o":"m 307 -11 q 151 17 199 -11 q 90 117 104 44 q 76 353 76 189 q 90 590 76 517 q 151 691 104 663 q 307 719 199 719 q 463 691 415 719 q 525 590 511 663 q 539 353 539 517 q 525 117 539 189 q 464 17 511 44 q 307 -11 417 -11 m 307 33 q 434 57 397 33 q 481 141 471 81 q 490 353 490 201 q 481 566 490 506 q 434 651 471 626 q 307 675 397 675 q 181 651 217 675 q 135 566 144 626 q 125 353 125 506 q 135 141 125 201 q 181 57 144 81 q 307 33 217 33 m 275 -176 l 275 -86 l 339 -86 l 339 -176 l 275 -176 m 164 840 l 164 847 l 275 1032 l 339 1032 l 450 847 l 450 840 l 413 840 l 307 990 l 201 840 l 164 840 z "},"ồ":{"ha":615,"x_min":76,"x_max":539,"o":"m 307 -11 q 151 17 199 -11 q 90 117 104 44 q 76 353 76 189 q 90 590 76 517 q 151 691 104 663 q 307 719 199 719 q 463 691 415 719 q 525 590 511 663 q 539 353 539 517 q 525 117 539 189 q 464 17 511 44 q 307 -11 417 -11 m 307 33 q 434 57 397 33 q 481 141 471 81 q 490 353 490 201 q 481 566 490 506 q 434 651 471 626 q 307 675 397 675 q 181 651 217 675 q 135 566 144 626 q 125 353 125 506 q 135 141 125 201 q 181 57 144 81 q 307 33 217 33 m 161 840 l 161 847 l 272 1032 l 336 1032 l 447 847 l 447 840 l 410 840 l 304 990 l 199 840 l 161 840 m 413 1032 l 308 1217 l 308 1224 l 367 1224 l 446 1039 l 446 1032 l 413 1032 z "},"ổ":{"ha":615,"x_min":76,"x_max":544,"o":"m 307 -11 q 151 17 199 -11 q 90 117 104 44 q 76 353 76 189 q 90 590 76 517 q 151 691 104 663 q 307 719 199 719 q 463 691 415 719 q 525 590 511 663 q 539 353 539 517 q 525 117 539 189 q 464 17 511 44 q 307 -11 417 -11 m 307 33 q 434 57 397 33 q 481 141 471 81 q 490 353 490 201 q 481 566 490 506 q 434 651 471 626 q 307 675 397 675 q 181 651 217 675 q 135 566 144 626 q 125 353 125 506 q 135 141 125 201 q 181 57 144 81 q 307 33 217 33 m 164 840 l 164 847 l 275 1032 l 339 1032 l 450 847 l 450 840 l 413 840 l 307 990 l 201 840 l 164 840 m 364 1044 q 375 1085 364 1074 q 415 1106 386 1097 l 438 1111 q 489 1133 476 1122 q 501 1174 501 1144 q 494 1210 501 1199 q 465 1225 486 1221 q 399 1229 444 1229 q 285 1224 374 1229 l 285 1260 q 407 1268 365 1268 q 516 1249 488 1268 q 544 1181 544 1231 q 534 1121 544 1140 q 482 1088 524 1101 l 460 1082 q 420 1068 432 1074 q 406 1055 408 1063 q 403 1032 403 1047 l 364 1032 l 364 1044 z "},"ỗ":{"ha":615,"x_min":76,"x_max":539,"o":"m 307 -11 q 151 17 199 -11 q 90 117 104 44 q 76 353 76 189 q 90 590 76 517 q 151 691 104 663 q 307 719 199 719 q 463 691 415 719 q 525 590 511 663 q 539 353 539 517 q 525 117 539 189 q 464 17 511 44 q 307 -11 417 -11 m 307 33 q 434 57 397 33 q 481 141 471 81 q 490 353 490 201 q 481 566 490 506 q 434 651 471 626 q 307 675 397 675 q 181 651 217 675 q 135 566 144 626 q 125 353 125 506 q 135 141 125 201 q 181 57 144 81 q 307 33 217 33 m 161 840 l 161 847 l 272 1032 l 336 1032 l 447 847 l 447 840 l 410 840 l 304 990 l 199 840 l 161 840 m 490 1272 q 475 1169 490 1197 q 417 1140 460 1140 q 365 1149 390 1140 q 297 1178 339 1158 q 238 1203 258 1196 q 194 1211 217 1211 q 166 1193 172 1211 q 160 1125 160 1175 l 122 1125 q 137 1228 122 1200 q 194 1257 151 1257 q 249 1247 222 1257 q 318 1218 275 1238 q 372 1194 349 1203 q 417 1186 394 1186 q 446 1205 439 1186 q 453 1272 453 1224 l 490 1272 z "},"ȍ":{"ha":615,"x_min":76,"x_max":539,"o":"m 307 -11 q 151 17 199 -11 q 90 117 104 44 q 76 353 76 189 q 90 590 76 517 q 151 691 104 663 q 307 719 199 719 q 463 691 415 719 q 525 590 511 663 q 539 353 539 517 q 525 117 539 189 q 464 17 511 44 q 307 -11 417 -11 m 307 33 q 434 57 397 33 q 481 141 471 81 q 490 353 490 201 q 481 566 490 506 q 434 651 471 626 q 307 675 397 675 q 181 651 217 675 q 135 566 144 626 q 125 353 125 506 q 135 141 125 201 q 181 57 144 81 q 307 33 217 33 m 238 846 l 204 846 l 103 1013 l 103 1019 l 160 1019 l 238 853 l 238 846 m 419 846 l 386 846 l 283 1013 l 283 1019 l 342 1019 l 419 853 l 419 846 z "},"ö":{"ha":615,"x_min":76,"x_max":539,"o":"m 307 -11 q 151 17 199 -11 q 90 117 104 44 q 76 353 76 189 q 90 590 76 517 q 151 691 104 663 q 307 719 199 719 q 463 691 415 719 q 525 590 511 663 q 539 353 539 517 q 525 117 539 189 q 464 17 511 44 q 307 -11 417 -11 m 307 33 q 434 57 397 33 q 481 141 471 81 q 490 353 490 201 q 481 566 490 506 q 434 651 471 626 q 307 675 397 675 q 181 651 217 675 q 135 566 144 626 q 125 353 125 506 q 135 141 125 201 q 181 57 144 81 q 307 33 217 33 m 161 929 l 161 1014 l 219 1014 l 219 929 l 161 929 m 401 929 l 401 1014 l 460 1014 l 460 929 l 401 929 z "},"ọ":{"ha":615,"x_min":76,"x_max":539,"o":"m 307 -11 q 151 17 199 -11 q 90 117 104 44 q 76 353 76 189 q 90 590 76 517 q 151 691 104 663 q 307 719 199 719 q 463 691 415 719 q 525 590 511 663 q 539 353 539 517 q 525 117 539 189 q 464 17 511 44 q 307 -11 417 -11 m 307 33 q 434 57 397 33 q 481 141 471 81 q 490 353 490 201 q 481 566 490 506 q 434 651 471 626 q 307 675 397 675 q 181 651 217 675 q 135 566 144 626 q 125 353 125 506 q 135 141 125 201 q 181 57 144 81 q 307 33 217 33 m 275 -176 l 275 -86 l 339 -86 l 339 -176 l 275 -176 z "},"ò":{"ha":615,"x_min":76,"x_max":539,"o":"m 307 -11 q 151 17 199 -11 q 90 117 104 44 q 76 353 76 189 q 90 590 76 517 q 151 691 104 663 q 307 719 199 719 q 463 691 415 719 q 525 590 511 663 q 539 353 539 517 q 525 117 539 189 q 464 17 511 44 q 307 -11 417 -11 m 307 33 q 434 57 397 33 q 481 141 471 81 q 490 353 490 201 q 481 566 490 506 q 434 651 471 626 q 307 675 397 675 q 181 651 217 675 q 135 566 144 626 q 125 353 125 506 q 135 141 125 201 q 181 57 144 81 q 307 33 217 33 m 306 840 l 201 1025 l 201 1032 l 260 1032 l 339 847 l 339 840 l 306 840 z "},"ỏ":{"ha":615,"x_min":76,"x_max":539,"o":"m 307 -11 q 151 17 199 -11 q 90 117 104 44 q 76 353 76 189 q 90 590 76 517 q 151 691 104 663 q 307 719 199 719 q 463 691 415 719 q 525 590 511 663 q 539 353 539 517 q 525 117 539 189 q 464 17 511 44 q 307 -11 417 -11 m 307 33 q 434 57 397 33 q 481 141 471 81 q 490 353 490 201 q 481 566 490 506 q 434 651 471 626 q 307 675 397 675 q 181 651 217 675 q 135 566 144 626 q 125 353 125 506 q 135 141 125 201 q 181 57 144 81 q 307 33 217 33 m 256 858 q 267 899 256 888 q 307 919 278 911 l 329 925 q 381 947 368 936 q 393 988 393 958 q 385 1024 393 1013 q 357 1039 378 1035 q 290 1043 336 1043 q 176 1038 265 1043 l 176 1074 q 299 1082 257 1082 q 408 1063 379 1082 q 436 994 436 1044 q 426 935 436 954 q 374 901 415 915 l 351 896 q 312 882 324 888 q 297 869 300 876 q 294 846 294 861 l 256 846 l 256 858 z "},"ơ":{"ha":615,"x_min":76,"x_max":594,"o":"m 594 844 l 594 799 q 585 719 594 746 q 554 681 576 692 q 489 669 532 669 q 529 565 519 635 q 539 353 539 496 q 525 117 539 189 q 464 17 511 44 q 307 -11 417 -11 q 151 17 199 -11 q 90 117 104 44 q 76 353 76 189 q 90 590 76 517 q 151 691 104 663 q 307 719 199 719 q 421 708 382 719 l 486 708 q 539 725 528 708 q 550 789 550 742 l 550 844 l 594 844 m 307 33 q 434 57 397 33 q 481 141 471 81 q 490 353 490 201 q 481 566 490 506 q 434 651 471 626 q 307 675 397 675 q 181 651 217 675 q 135 566 144 626 q 125 353 125 506 q 135 141 125 201 q 181 57 144 81 q 307 33 217 33 z "},"ớ":{"ha":615,"x_min":76,"x_max":594,"o":"m 594 844 l 594 799 q 585 719 594 746 q 554 681 576 692 q 489 669 532 669 q 529 565 519 635 q 539 353 539 496 q 525 117 539 189 q 464 17 511 44 q 307 -11 417 -11 q 151 17 199 -11 q 90 117 104 44 q 76 353 76 189 q 90 590 76 517 q 151 691 104 663 q 307 719 199 719 q 421 708 382 719 l 486 708 q 539 725 528 708 q 550 789 550 742 l 550 844 l 594 844 m 307 33 q 434 57 397 33 q 481 141 471 81 q 490 353 490 201 q 481 566 490 506 q 434 651 471 626 q 307 675 397 675 q 181 651 217 675 q 135 566 144 626 q 125 353 125 506 q 135 141 125 201 q 181 57 144 81 q 307 33 217 33 m 286 840 l 286 847 l 365 1032 l 424 1032 l 424 1025 l 319 840 l 286 840 z "},"ợ":{"ha":615,"x_min":76,"x_max":594,"o":"m 594 844 l 594 799 q 585 719 594 746 q 554 681 576 692 q 489 669 532 669 q 529 565 519 635 q 539 353 539 496 q 525 117 539 189 q 464 17 511 44 q 307 -11 417 -11 q 151 17 199 -11 q 90 117 104 44 q 76 353 76 189 q 90 590 76 517 q 151 691 104 663 q 307 719 199 719 q 421 708 382 719 l 486 708 q 539 725 528 708 q 550 789 550 742 l 550 844 l 594 844 m 307 33 q 434 57 397 33 q 481 141 471 81 q 490 353 490 201 q 481 566 490 506 q 434 651 471 626 q 307 675 397 675 q 181 651 217 675 q 135 566 144 626 q 125 353 125 506 q 135 141 125 201 q 181 57 144 81 q 307 33 217 33 m 275 -176 l 275 -86 l 339 -86 l 339 -176 l 275 -176 z "},"ờ":{"ha":615,"x_min":76,"x_max":594,"o":"m 594 844 l 594 799 q 585 719 594 746 q 554 681 576 692 q 489 669 532 669 q 529 565 519 635 q 539 353 539 496 q 525 117 539 189 q 464 17 511 44 q 307 -11 417 -11 q 151 17 199 -11 q 90 117 104 44 q 76 353 76 189 q 90 590 76 517 q 151 691 104 663 q 307 719 199 719 q 421 708 382 719 l 486 708 q 539 725 528 708 q 550 789 550 742 l 550 844 l 594 844 m 307 33 q 434 57 397 33 q 481 141 471 81 q 490 353 490 201 q 481 566 490 506 q 434 651 471 626 q 307 675 397 675 q 181 651 217 675 q 135 566 144 626 q 125 353 125 506 q 135 141 125 201 q 181 57 144 81 q 307 33 217 33 m 296 840 l 192 1025 l 192 1032 l 250 1032 l 329 847 l 329 840 l 296 840 z "},"ở":{"ha":615,"x_min":76,"x_max":594,"o":"m 594 844 l 594 799 q 585 719 594 746 q 554 681 576 692 q 489 669 532 669 q 529 565 519 635 q 539 353 539 496 q 525 117 539 189 q 464 17 511 44 q 307 -11 417 -11 q 151 17 199 -11 q 90 117 104 44 q 76 353 76 189 q 90 590 76 517 q 151 691 104 663 q 307 719 199 719 q 421 708 382 719 l 486 708 q 539 725 528 708 q 550 789 550 742 l 550 844 l 594 844 m 307 33 q 434 57 397 33 q 481 141 471 81 q 490 353 490 201 q 481 566 490 506 q 434 651 471 626 q 307 675 397 675 q 181 651 217 675 q 135 566 144 626 q 125 353 125 506 q 135 141 125 201 q 181 57 144 81 q 307 33 217 33 m 256 858 q 267 899 256 888 q 307 919 278 911 l 329 925 q 381 947 368 936 q 393 988 393 958 q 385 1024 393 1013 q 357 1039 378 1035 q 290 1043 336 1043 q 176 1038 265 1043 l 176 1074 q 299 1082 257 1082 q 408 1063 379 1082 q 436 994 436 1044 q 426 935 436 954 q 374 901 415 915 l 351 896 q 312 882 324 888 q 297 869 300 876 q 294 846 294 861 l 256 846 l 256 858 z "},"ỡ":{"ha":615,"x_min":76,"x_max":594,"o":"m 594 844 l 594 799 q 585 719 594 746 q 554 681 576 692 q 489 669 532 669 q 529 565 519 635 q 539 353 539 496 q 525 117 539 189 q 464 17 511 44 q 307 -11 417 -11 q 151 17 199 -11 q 90 117 104 44 q 76 353 76 189 q 90 590 76 517 q 151 691 104 663 q 307 719 199 719 q 421 708 382 719 l 486 708 q 539 725 528 708 q 550 789 550 742 l 550 844 l 594 844 m 307 33 q 434 57 397 33 q 481 141 471 81 q 490 353 490 201 q 481 566 490 506 q 434 651 471 626 q 307 675 397 675 q 181 651 217 675 q 135 566 144 626 q 125 353 125 506 q 135 141 125 201 q 181 57 144 81 q 307 33 217 33 m 490 1032 q 475 928 490 957 q 417 900 460 900 q 365 909 390 900 q 297 938 339 918 q 238 963 258 956 q 194 971 217 971 q 166 953 172 971 q 160 885 160 935 l 122 885 q 137 988 122 960 q 194 1017 151 1017 q 249 1007 222 1017 q 318 978 275 997 q 372 954 349 963 q 417 946 394 946 q 446 965 439 946 q 453 1032 453 983 l 490 1032 z "},"ő":{"ha":615,"x_min":76,"x_max":539,"o":"m 307 -11 q 151 17 199 -11 q 90 117 104 44 q 76 353 76 189 q 90 590 76 517 q 151 691 104 663 q 307 719 199 719 q 463 691 415 719 q 525 590 511 663 q 539 353 539 517 q 525 117 539 189 q 464 17 511 44 q 307 -11 417 -11 m 307 33 q 434 57 397 33 q 481 141 471 81 q 490 353 490 201 q 481 566 490 506 q 434 651 471 626 q 307 675 397 675 q 181 651 217 675 q 135 566 144 626 q 125 353 125 506 q 135 141 125 201 q 181 57 144 81 q 307 33 217 33 m 211 846 l 211 853 l 289 1019 l 347 1019 l 347 1013 l 244 846 l 211 846 m 393 846 l 393 853 l 471 1019 l 528 1019 l 528 1013 l 426 846 l 393 846 z "},"ȏ":{"ha":615,"x_min":76,"x_max":539,"o":"m 307 -11 q 151 17 199 -11 q 90 117 104 44 q 76 353 76 189 q 90 590 76 517 q 151 691 104 663 q 307 719 199 719 q 463 691 415 719 q 525 590 511 663 q 539 353 539 517 q 525 117 539 189 q 464 17 511 44 q 307 -11 417 -11 m 307 33 q 434 57 397 33 q 481 141 471 81 q 490 353 490 201 q 481 566 490 506 q 434 651 471 626 q 307 675 397 675 q 181 651 217 675 q 135 566 144 626 q 125 353 125 506 q 135 141 125 201 q 181 57 144 81 q 307 33 217 33 m 161 844 q 168 955 161 917 q 206 1017 175 993 q 306 1040 238 1040 q 404 1017 374 1040 q 442 955 435 993 q 449 844 449 917 l 404 844 q 399 938 404 907 q 374 985 394 968 q 306 1001 353 1001 q 238 985 258 1001 q 211 938 217 968 q 206 844 206 907 l 161 844 z "},"ō":{"ha":615,"x_min":76,"x_max":539,"o":"m 307 -11 q 151 17 199 -11 q 90 117 104 44 q 76 353 76 189 q 90 590 76 517 q 151 691 104 663 q 307 719 199 719 q 463 691 415 719 q 525 590 511 663 q 539 353 539 517 q 525 117 539 189 q 464 17 511 44 q 307 -11 417 -11 m 307 33 q 434 57 397 33 q 481 141 471 81 q 490 353 490 201 q 481 566 490 506 q 434 651 471 626 q 307 675 397 675 q 181 651 217 675 q 135 566 144 626 q 125 353 125 506 q 135 141 125 201 q 181 57 144 81 q 307 33 217 33 m 179 982 l 179 1032 l 435 1032 l 435 982 l 179 982 z "},"ǫ":{"ha":615,"x_min":76,"x_max":539,"o":"m 307 719 q 463 691 415 719 q 525 590 511 663 q 539 353 539 517 q 526 124 539 194 q 472 22 514 53 q 405 -60 436 -3 q 374 -164 374 -118 q 439 -228 374 -228 l 463 -226 l 463 -271 q 432 -272 450 -272 q 352 -245 378 -272 q 326 -172 326 -218 q 347 -88 326 -132 q 401 -6 367 -44 q 307 -11 368 -11 q 151 17 199 -11 q 90 117 104 44 q 76 353 76 189 q 90 590 76 517 q 151 691 104 663 q 307 719 199 719 m 307 33 q 434 57 397 33 q 481 141 471 81 q 490 353 490 201 q 481 566 490 506 q 434 651 471 626 q 307 675 397 675 q 181 651 217 675 q 135 566 144 626 q 125 353 125 506 q 135 141 125 201 q 181 57 144 81 q 307 33 217 33 z "},"ø":{"ha":615,"x_min":76,"x_max":539,"o":"m 485 674 q 529 569 519 639 q 539 353 539 499 q 525 117 539 189 q 464 17 511 44 q 307 -11 417 -11 q 167 8 214 -11 l 126 -76 l 76 -76 l 129 35 q 86 139 96 69 q 76 353 76 208 q 90 590 76 517 q 151 691 104 663 q 307 719 199 719 q 447 699 401 719 l 489 785 l 539 785 l 485 674 m 125 353 q 130 169 125 226 q 151 81 135 111 l 428 657 q 307 675 393 675 q 181 651 217 675 q 135 566 144 626 q 125 353 125 506 m 490 353 q 486 539 490 483 q 463 625 482 594 l 186 50 q 233 37 206 40 q 307 33 261 33 q 434 57 397 33 q 481 141 471 81 q 490 353 490 201 z "},"ǿ":{"ha":615,"x_min":76,"x_max":539,"o":"m 485 674 q 529 569 519 639 q 539 353 539 499 q 525 117 539 189 q 464 17 511 44 q 307 -11 417 -11 q 167 8 214 -11 l 126 -76 l 76 -76 l 129 35 q 86 139 96 69 q 76 353 76 208 q 90 590 76 517 q 151 691 104 663 q 307 719 199 719 q 447 699 401 719 l 489 785 l 539 785 l 485 674 m 125 353 q 130 169 125 226 q 151 81 135 111 l 428 657 q 307 675 393 675 q 181 651 217 675 q 135 566 144 626 q 125 353 125 506 m 490 353 q 486 539 490 483 q 463 625 482 594 l 186 50 q 233 37 206 40 q 307 33 261 33 q 434 57 397 33 q 481 141 471 81 q 490 353 490 201 m 286 840 l 286 847 l 365 1032 l 424 1032 l 424 1025 l 319 840 l 286 840 z "},"õ":{"ha":615,"x_min":76,"x_max":539,"o":"m 307 -11 q 151 17 199 -11 q 90 117 104 44 q 76 353 76 189 q 90 590 76 517 q 151 691 104 663 q 307 719 199 719 q 463 691 415 719 q 525 590 511 663 q 539 353 539 517 q 525 117 539 189 q 464 17 511 44 q 307 -11 417 -11 m 307 33 q 434 57 397 33 q 481 141 471 81 q 490 353 490 201 q 481 566 490 506 q 434 651 471 626 q 307 675 397 675 q 181 651 217 675 q 135 566 144 626 q 125 353 125 506 q 135 141 125 201 q 181 57 144 81 q 307 33 217 33 m 493 1032 q 478 928 493 957 q 419 900 463 900 q 367 909 393 900 q 300 938 342 918 q 240 963 261 956 q 197 971 219 971 q 169 953 175 971 q 163 885 163 935 l 125 885 q 140 988 125 960 q 197 1017 154 1017 q 251 1007 225 1017 q 321 978 278 997 q 374 954 351 963 q 419 946 397 946 q 449 965 442 946 q 456 1032 456 983 l 493 1032 z "},"œ":{"ha":1013,"x_min":76,"x_max":936,"o":"m 936 338 l 539 338 q 551 144 539 204 q 603 58 564 83 q 732 33 643 33 q 827 39 775 33 q 915 53 879 44 l 915 7 q 831 -6 885 0 q 726 -11 778 -11 q 586 13 635 -11 q 515 97 538 38 q 451 12 497 35 q 307 -11 404 -11 q 151 17 199 -11 q 90 117 104 44 q 76 353 76 189 q 90 590 76 517 q 151 691 104 663 q 307 719 199 719 q 449 697 403 719 q 514 617 494 675 q 585 696 536 672 q 726 719 633 719 q 869 688 825 719 q 924 585 913 657 q 936 356 936 514 l 936 338 m 307 33 q 434 57 397 33 q 481 141 471 81 q 490 353 490 201 q 481 566 490 506 q 434 651 471 626 q 307 675 397 675 q 181 651 217 675 q 135 566 144 626 q 125 353 125 506 q 135 141 125 201 q 181 57 144 81 q 307 33 217 33 m 724 675 q 599 654 636 675 q 551 576 563 633 q 539 382 539 518 l 888 382 l 888 411 q 874 585 888 531 q 826 658 860 640 q 724 675 793 675 z "},"p":{"ha":632,"x_min":101,"x_max":556,"o":"m 101 708 l 139 708 l 144 600 l 150 600 q 217 696 169 672 q 338 719 264 719 q 476 690 431 719 q 539 584 522 660 q 556 354 556 508 q 539 124 556 199 q 477 19 522 49 q 338 -11 432 -11 q 217 14 261 -11 q 156 96 172 39 l 150 96 l 150 -268 l 101 -268 l 101 708 m 328 33 q 446 56 410 33 q 494 142 482 78 q 507 354 507 207 q 494 566 507 501 q 446 653 482 631 q 328 675 410 675 q 219 648 260 675 q 165 561 179 621 q 153 474 156 521 q 150 354 150 428 q 163 160 150 215 q 219 63 179 92 q 328 33 258 33 z "},"þ":{"ha":632,"x_min":101,"x_max":556,"o":"m 101 1032 l 150 1032 l 150 613 l 156 613 q 217 694 172 669 q 338 719 261 719 q 476 690 431 719 q 539 584 522 660 q 556 354 556 508 q 539 124 556 199 q 477 19 522 49 q 338 -11 432 -11 q 217 14 261 -11 q 156 96 172 39 l 150 96 l 150 -264 l 101 -264 l 101 1032 m 328 33 q 446 56 410 33 q 494 142 482 78 q 507 354 507 207 q 494 566 507 501 q 446 653 482 631 q 328 675 410 675 q 219 647 260 675 q 163 554 179 619 q 152 472 154 518 q 150 354 150 426 q 161 165 150 215 q 219 63 179 93 q 328 33 258 33 z "},"q":{"ha":632,"x_min":76,"x_max":531,"o":"m 482 96 l 476 96 q 415 14 460 39 q 294 -11 371 -11 q 155 19 200 -11 q 93 124 110 49 q 76 354 76 199 q 93 585 76 510 q 155 690 110 660 q 294 719 200 719 q 415 696 368 719 q 482 600 463 672 l 488 600 l 492 708 l 531 708 l 531 -268 l 482 -268 l 482 96 m 304 33 q 412 61 372 33 q 468 151 451 89 q 482 354 482 215 q 479 476 482 428 q 465 569 476 524 q 412 649 451 624 q 304 675 372 675 q 186 653 222 675 q 138 566 150 631 q 125 354 125 501 q 138 142 125 207 q 186 56 150 78 q 304 33 222 33 z "},"r":{"ha":369,"x_min":101,"x_max":343,"o":"m 101 708 l 139 708 l 144 567 l 150 567 q 216 687 168 654 q 343 719 264 719 l 343 669 q 224 634 265 669 q 166 533 182 599 q 150 360 150 467 l 150 0 l 101 0 l 101 708 z "},"ŕ":{"ha":369,"x_min":101,"x_max":343,"o":"m 101 708 l 139 708 l 144 567 l 150 567 q 216 687 168 654 q 343 719 264 719 l 343 669 q 224 634 265 669 q 166 533 182 599 q 150 360 150 467 l 150 0 l 101 0 l 101 708 m 164 840 l 164 847 l 243 1032 l 301 1032 l 301 1025 l 197 840 l 164 840 z "},"ř":{"ha":369,"x_min":42,"x_max":343,"o":"m 101 708 l 139 708 l 144 567 l 150 567 q 216 687 168 654 q 343 719 264 719 l 343 669 q 224 634 265 669 q 166 533 182 599 q 150 360 150 467 l 150 0 l 101 0 l 101 708 m 153 840 l 42 1025 l 42 1032 l 79 1032 l 185 882 l 290 1032 l 328 1032 l 328 1025 l 217 840 l 153 840 z "},"ŗ":{"ha":369,"x_min":76,"x_max":343,"o":"m 101 708 l 139 708 l 144 567 l 150 567 q 216 687 168 654 q 343 719 264 719 l 343 669 q 224 634 265 669 q 166 533 182 599 q 150 360 150 467 l 150 0 l 101 0 l 101 708 m 76 -287 q 119 -280 106 -287 q 137 -255 133 -272 q 140 -200 140 -237 l 140 -176 l 113 -176 l 113 -86 l 176 -86 l 176 -190 q 168 -268 176 -242 q 139 -306 160 -294 q 76 -317 118 -317 l 76 -287 z "},"ȑ":{"ha":369,"x_min":-19,"x_max":343,"o":"m 101 708 l 139 708 l 144 567 l 150 567 q 216 687 168 654 q 343 719 264 719 l 343 669 q 224 634 265 669 q 166 533 182 599 q 150 360 150 467 l 150 0 l 101 0 l 101 708 m 115 846 l 82 846 l -19 1013 l -19 1019 l 38 1019 l 115 853 l 115 846 m 297 846 l 264 846 l 161 1013 l 161 1019 l 219 1019 l 297 853 l 297 846 z "},"ṛ":{"ha":369,"x_min":94,"x_max":343,"o":"m 101 708 l 139 708 l 144 567 l 150 567 q 216 687 168 654 q 343 719 264 719 l 343 669 q 224 634 265 669 q 166 533 182 599 q 150 360 150 467 l 150 0 l 101 0 l 101 708 m 94 -176 l 94 -86 l 158 -86 l 158 -176 l 94 -176 z "},"ȓ":{"ha":369,"x_min":39,"x_max":343,"o":"m 101 708 l 139 708 l 144 567 l 150 567 q 216 687 168 654 q 343 719 264 719 l 343 669 q 224 634 265 669 q 166 533 182 599 q 150 360 150 467 l 150 0 l 101 0 l 101 708 m 39 844 q 46 955 39 917 q 84 1017 53 993 q 183 1040 115 1040 q 282 1017 251 1040 q 319 955 313 993 q 326 844 326 917 l 282 844 q 277 938 282 907 q 251 985 272 968 q 183 1001 231 1001 q 115 985 136 1001 q 89 938 94 968 q 83 844 83 907 l 39 844 z "},"s":{"ha":526,"x_min":63,"x_max":464,"o":"m 258 -11 q 163 -7 214 -11 q 79 4 113 -3 l 79 50 q 274 33 172 33 q 364 51 333 33 q 405 101 394 69 q 415 185 415 133 q 408 276 415 249 q 385 313 401 304 q 333 326 369 322 l 182 347 q 88 394 113 357 q 63 518 63 431 q 88 645 63 601 q 157 704 113 689 q 275 719 201 719 q 360 715 315 719 q 436 703 406 710 l 436 657 q 258 675 369 675 q 148 646 185 675 q 111 528 111 617 q 119 445 111 472 q 142 408 126 418 q 193 393 158 397 l 343 374 q 418 351 393 367 q 453 297 443 335 q 464 185 464 260 q 417 32 464 75 q 258 -11 371 -11 z "},"ś":{"ha":526,"x_min":63,"x_max":464,"o":"m 258 -11 q 163 -7 214 -11 q 79 4 113 -3 l 79 50 q 274 33 172 33 q 364 51 333 33 q 405 101 394 69 q 415 185 415 133 q 408 276 415 249 q 385 313 401 304 q 333 326 369 322 l 182 347 q 88 394 113 357 q 63 518 63 431 q 88 645 63 601 q 157 704 113 689 q 275 719 201 719 q 360 715 315 719 q 436 703 406 710 l 436 657 q 258 675 369 675 q 148 646 185 675 q 111 528 111 617 q 119 445 111 472 q 142 408 126 418 q 193 393 158 397 l 343 374 q 418 351 393 367 q 453 297 443 335 q 464 185 464 260 q 417 32 464 75 q 258 -11 371 -11 m 243 840 l 243 847 l 322 1032 l 381 1032 l 381 1025 l 276 840 l 243 840 z "},"ꞌ":{"ha":122,"x_min":33,"x_max":88,"o":"m 33 408 l 33 1032 l 88 1032 l 88 708 l 65 408 l 33 408 z "},"š":{"ha":526,"x_min":63,"x_max":464,"o":"m 258 -11 q 163 -7 214 -11 q 79 4 113 -3 l 79 50 q 274 33 172 33 q 364 51 333 33 q 405 101 394 69 q 415 185 415 133 q 408 276 415 249 q 385 313 401 304 q 333 326 369 322 l 182 347 q 88 394 113 357 q 63 518 63 431 q 88 645 63 601 q 157 704 113 689 q 275 719 201 719 q 360 715 315 719 q 436 703 406 710 l 436 657 q 258 675 369 675 q 148 646 185 675 q 111 528 111 617 q 119 445 111 472 q 142 408 126 418 q 193 393 158 397 l 343 374 q 418 351 393 367 q 453 297 443 335 q 464 185 464 260 q 417 32 464 75 q 258 -11 371 -11 m 236 840 l 125 1025 l 125 1032 l 163 1032 l 268 882 l 374 1032 l 411 1032 l 411 1025 l 300 840 l 236 840 z "},"ş":{"ha":526,"x_min":63,"x_max":464,"o":"m 464 185 q 422 37 464 81 q 281 -11 379 -7 l 222 -264 l 167 -264 l 167 -257 l 240 -11 q 79 4 153 -8 l 79 50 q 274 33 172 33 q 364 51 333 33 q 405 101 394 69 q 415 185 415 133 q 408 276 415 249 q 385 313 401 304 q 333 326 369 322 l 182 347 q 88 394 113 357 q 63 518 63 431 q 88 645 63 601 q 157 704 113 689 q 275 719 201 719 q 360 715 315 719 q 436 703 406 710 l 436 657 q 258 675 369 675 q 148 646 185 675 q 111 528 111 617 q 119 445 111 472 q 142 408 126 418 q 193 393 158 397 l 343 374 q 418 351 393 367 q 453 297 443 335 q 464 185 464 260 z "},"ŝ":{"ha":526,"x_min":63,"x_max":464,"o":"m 258 -11 q 163 -7 214 -11 q 79 4 113 -3 l 79 50 q 274 33 172 33 q 364 51 333 33 q 405 101 394 69 q 415 185 415 133 q 408 276 415 249 q 385 313 401 304 q 333 326 369 322 l 182 347 q 88 394 113 357 q 63 518 63 431 q 88 645 63 601 q 157 704 113 689 q 275 719 201 719 q 360 715 315 719 q 436 703 406 710 l 436 657 q 258 675 369 675 q 148 646 185 675 q 111 528 111 617 q 119 445 111 472 q 142 408 126 418 q 193 393 158 397 l 343 374 q 418 351 393 367 q 453 297 443 335 q 464 185 464 260 q 417 32 464 75 q 258 -11 371 -11 m 121 840 l 121 847 l 232 1032 l 296 1032 l 407 847 l 407 840 l 369 840 l 264 990 l 158 840 l 121 840 z "},"ș":{"ha":526,"x_min":63,"x_max":464,"o":"m 258 -11 q 163 -7 214 -11 q 79 4 113 -3 l 79 50 q 274 33 172 33 q 364 51 333 33 q 405 101 394 69 q 415 185 415 133 q 408 276 415 249 q 385 313 401 304 q 333 326 369 322 l 182 347 q 88 394 113 357 q 63 518 63 431 q 88 645 63 601 q 157 704 113 689 q 275 719 201 719 q 360 715 315 719 q 436 703 406 710 l 436 657 q 258 675 369 675 q 148 646 185 675 q 111 528 111 617 q 119 445 111 472 q 142 408 126 418 q 193 393 158 397 l 343 374 q 418 351 393 367 q 453 297 443 335 q 464 185 464 260 q 417 32 464 75 q 258 -11 371 -11 m 214 -287 q 257 -280 243 -287 q 274 -255 271 -272 q 278 -200 278 -237 l 278 -176 l 250 -176 l 250 -86 l 314 -86 l 314 -190 q 306 -268 314 -242 q 276 -306 297 -294 q 214 -317 256 -317 l 214 -287 z "},"ṣ":{"ha":526,"x_min":63,"x_max":464,"o":"m 258 -11 q 163 -7 214 -11 q 79 4 113 -3 l 79 50 q 274 33 172 33 q 364 51 333 33 q 405 101 394 69 q 415 185 415 133 q 408 276 415 249 q 385 313 401 304 q 333 326 369 322 l 182 347 q 88 394 113 357 q 63 518 63 431 q 88 645 63 601 q 157 704 113 689 q 275 719 201 719 q 360 715 315 719 q 436 703 406 710 l 436 657 q 258 675 369 675 q 148 646 185 675 q 111 528 111 617 q 119 445 111 472 q 142 408 126 418 q 193 393 158 397 l 343 374 q 418 351 393 367 q 453 297 443 335 q 464 185 464 260 q 417 32 464 75 q 258 -11 371 -11 m 232 -176 l 232 -86 l 296 -86 l 296 -176 l 232 -176 z "},"ß":{"ha":651,"x_min":101,"x_max":572,"o":"m 269 0 l 269 44 l 335 44 q 461 63 424 44 q 511 138 499 81 q 524 328 524 194 q 508 488 524 432 q 456 568 492 544 q 351 592 419 592 l 310 592 l 310 636 l 351 636 q 476 677 439 636 q 514 814 514 718 q 497 923 514 883 q 442 980 481 963 q 333 997 403 997 q 226 977 265 997 q 167 908 186 957 q 149 771 149 858 l 149 0 l 101 0 l 101 765 q 125 929 101 869 q 200 1015 149 989 q 336 1042 251 1042 q 511 990 460 1042 q 563 811 563 939 q 533 677 563 721 q 436 621 503 633 l 436 615 q 539 538 506 601 q 572 340 572 475 q 556 133 572 203 q 494 31 540 63 q 354 0 449 0 l 269 0 z "},"ſ":{"ha":336,"x_min":32,"x_max":328,"o":"m 142 664 l 32 664 l 32 708 l 142 708 l 142 868 q 163 974 142 939 q 222 1021 183 1010 q 328 1032 260 1032 l 328 990 q 243 981 272 990 q 202 948 214 972 q 190 876 190 924 l 190 0 l 142 0 l 142 664 z "},"t":{"ha":350,"x_min":32,"x_max":318,"o":"m 142 0 l 142 664 l 32 664 l 32 708 l 142 708 l 142 914 l 190 914 l 190 708 l 318 708 l 318 664 l 190 664 l 190 0 l 142 0 z "},"ŧ":{"ha":350,"x_min":32,"x_max":318,"o":"m 318 664 l 190 664 l 190 385 l 313 385 l 313 340 l 190 340 l 190 0 l 142 0 l 142 340 l 46 340 l 46 385 l 142 385 l 142 664 l 32 664 l 32 708 l 142 708 l 142 914 l 190 914 l 190 708 l 318 708 l 318 664 z "},"ť":{"ha":350,"x_min":32,"x_max":432,"o":"m 142 0 l 142 664 l 32 664 l 32 708 l 142 708 l 142 914 l 190 914 l 190 708 l 318 708 l 318 664 l 190 664 l 190 0 l 142 0 m 361 631 l 378 832 l 378 956 l 432 956 l 432 832 l 393 631 l 361 631 z "},"ţ":{"ha":350,"x_min":32,"x_max":318,"o":"m 190 708 l 318 708 l 318 664 l 190 664 l 190 0 l 185 0 l 125 -264 l 69 -264 l 69 -257 l 147 0 l 142 0 l 142 664 l 32 664 l 32 708 l 142 708 l 142 914 l 190 914 l 190 708 z "},"ț":{"ha":350,"x_min":32,"x_max":318,"o":"m 142 0 l 142 664 l 32 664 l 32 708 l 142 708 l 142 914 l 190 914 l 190 708 l 318 708 l 318 664 l 190 664 l 190 0 l 142 0 m 117 -287 q 160 -280 146 -287 q 177 -255 174 -272 q 181 -200 181 -237 l 181 -176 l 153 -176 l 153 -86 l 217 -86 l 217 -190 q 208 -268 217 -242 q 179 -306 200 -294 q 117 -317 158 -317 l 117 -287 z "},"ṭ":{"ha":350,"x_min":32,"x_max":318,"o":"m 142 0 l 142 664 l 32 664 l 32 708 l 142 708 l 142 914 l 190 914 l 190 708 l 318 708 l 318 664 l 190 664 l 190 0 l 142 0 m 135 -176 l 135 -86 l 199 -86 l 199 -176 l 135 -176 z "},"u":{"ha":636,"x_min":97,"x_max":533,"o":"m 490 108 l 485 108 q 428 21 469 53 q 296 -11 388 -11 q 168 15 210 -11 q 112 99 126 42 q 97 264 97 156 l 97 708 l 146 708 l 146 271 q 158 116 146 165 q 203 50 171 67 q 307 33 236 33 q 429 72 390 33 q 476 172 468 111 q 485 342 485 232 l 485 708 l 533 708 l 533 0 l 496 0 l 490 108 z "},"ú":{"ha":636,"x_min":97,"x_max":533,"o":"m 490 108 l 485 108 q 428 21 469 53 q 296 -11 388 -11 q 168 15 210 -11 q 112 99 126 42 q 97 264 97 156 l 97 708 l 146 708 l 146 271 q 158 116 146 165 q 203 50 171 67 q 307 33 236 33 q 429 72 390 33 q 476 172 468 111 q 485 342 485 232 l 485 708 l 533 708 l 533 0 l 496 0 l 490 108 m 296 840 l 296 847 l 375 1032 l 433 1032 l 433 1025 l 329 840 l 296 840 z "},"ŭ":{"ha":636,"x_min":97,"x_max":533,"o":"m 490 108 l 485 108 q 428 21 469 53 q 296 -11 388 -11 q 168 15 210 -11 q 112 99 126 42 q 97 264 97 156 l 97 708 l 146 708 l 146 271 q 158 116 146 165 q 203 50 171 67 q 307 33 236 33 q 429 72 390 33 q 476 172 468 111 q 485 342 485 232 l 485 708 l 533 708 l 533 0 l 496 0 l 490 108 m 461 1032 q 454 922 461 960 q 416 860 447 883 q 317 836 385 836 q 218 860 249 836 q 181 922 188 883 q 174 1032 174 960 l 218 1032 q 223 939 218 969 q 249 892 228 908 q 317 875 269 875 q 385 892 364 875 q 411 939 406 908 q 417 1032 417 969 l 461 1032 z "},"ǔ":{"ha":636,"x_min":97,"x_max":533,"o":"m 490 108 l 485 108 q 428 21 469 53 q 296 -11 388 -11 q 168 15 210 -11 q 112 99 126 42 q 97 264 97 156 l 97 708 l 146 708 l 146 271 q 158 116 146 165 q 203 50 171 67 q 307 33 236 33 q 429 72 390 33 q 476 172 468 111 q 485 342 485 232 l 485 708 l 533 708 l 533 0 l 496 0 l 490 108 m 286 840 l 175 1025 l 175 1032 l 213 1032 l 318 882 l 424 1032 l 461 1032 l 461 1025 l 350 840 l 286 840 z "},"û":{"ha":636,"x_min":97,"x_max":533,"o":"m 490 108 l 485 108 q 428 21 469 53 q 296 -11 388 -11 q 168 15 210 -11 q 112 99 126 42 q 97 264 97 156 l 97 708 l 146 708 l 146 271 q 158 116 146 165 q 203 50 171 67 q 307 33 236 33 q 429 72 390 33 q 476 172 468 111 q 485 342 485 232 l 485 708 l 533 708 l 533 0 l 496 0 l 490 108 m 174 840 l 174 847 l 285 1032 l 349 1032 l 460 847 l 460 840 l 422 840 l 317 990 l 211 840 l 174 840 z "},"ȕ":{"ha":636,"x_min":97,"x_max":533,"o":"m 490 108 l 485 108 q 428 21 469 53 q 296 -11 388 -11 q 168 15 210 -11 q 112 99 126 42 q 97 264 97 156 l 97 708 l 146 708 l 146 271 q 158 116 146 165 q 203 50 171 67 q 307 33 236 33 q 429 72 390 33 q 476 172 468 111 q 485 342 485 232 l 485 708 l 533 708 l 533 0 l 496 0 l 490 108 m 249 846 l 215 846 l 114 1013 l 114 1019 l 171 1019 l 249 853 l 249 846 m 431 846 l 397 846 l 294 1013 l 294 1019 l 353 1019 l 431 853 l 431 846 z "},"ü":{"ha":636,"x_min":97,"x_max":533,"o":"m 490 108 l 485 108 q 428 21 469 53 q 296 -11 388 -11 q 168 15 210 -11 q 112 99 126 42 q 97 264 97 156 l 97 708 l 146 708 l 146 271 q 158 116 146 165 q 203 50 171 67 q 307 33 236 33 q 429 72 390 33 q 476 172 468 111 q 485 342 485 232 l 485 708 l 533 708 l 533 0 l 496 0 l 490 108 m 165 929 l 165 1014 l 224 1014 l 224 929 l 165 929 m 406 929 l 406 1014 l 464 1014 l 464 929 l 406 929 z "},"ǘ":{"ha":636,"x_min":97,"x_max":533,"o":"m 490 108 l 485 108 q 428 21 469 53 q 296 -11 388 -11 q 168 15 210 -11 q 112 99 126 42 q 97 264 97 156 l 97 708 l 146 708 l 146 271 q 158 116 146 165 q 203 50 171 67 q 307 33 236 33 q 429 72 390 33 q 476 172 468 111 q 485 342 485 232 l 485 708 l 533 708 l 533 0 l 496 0 l 490 108 m 168 929 l 168 1014 l 226 1014 l 226 929 l 168 929 m 408 929 l 408 1014 l 467 1014 l 467 929 l 408 929 m 300 1063 l 300 1069 l 379 1254 l 438 1254 l 438 1247 l 333 1063 l 300 1063 z "},"ǚ":{"ha":636,"x_min":97,"x_max":533,"o":"m 490 108 l 485 108 q 428 21 469 53 q 296 -11 388 -11 q 168 15 210 -11 q 112 99 126 42 q 97 264 97 156 l 97 708 l 146 708 l 146 271 q 158 116 146 165 q 203 50 171 67 q 307 33 236 33 q 429 72 390 33 q 476 172 468 111 q 485 342 485 232 l 485 708 l 533 708 l 533 0 l 496 0 l 490 108 m 168 929 l 168 1014 l 226 1014 l 226 929 l 168 929 m 408 929 l 408 1014 l 467 1014 l 467 929 l 408 929 m 289 1063 l 178 1247 l 178 1254 l 215 1254 l 321 1104 l 426 1254 l 464 1254 l 464 1247 l 353 1063 l 289 1063 z "},"ǜ":{"ha":636,"x_min":97,"x_max":533,"o":"m 490 108 l 485 108 q 428 21 469 53 q 296 -11 388 -11 q 168 15 210 -11 q 112 99 126 42 q 97 264 97 156 l 97 708 l 146 708 l 146 271 q 158 116 146 165 q 203 50 171 67 q 307 33 236 33 q 429 72 390 33 q 476 172 468 111 q 485 342 485 232 l 485 708 l 533 708 l 533 0 l 496 0 l 490 108 m 168 929 l 168 1014 l 226 1014 l 226 929 l 168 929 m 408 929 l 408 1014 l 467 1014 l 467 929 l 408 929 m 310 1063 l 206 1247 l 206 1254 l 264 1254 l 343 1069 l 343 1063 l 310 1063 z "}}}
